Italic_opsz9.ufo
<glyph name="comma" format="2">
  <advance width="285"/>
  <unicode hex="002C"/>
  <outline>
    <contour>
      <point x="127.8878982235275" y="54.0" type="curve" smooth="yes"/>
      <point x="127.8878982235275" y="26.0"/>
      <point x="147.8878982235275" y="0.0"/>
      <point x="181.8878982235275" y="0.0" type="curve" smooth="yes"/>
      <point x="196.8878982235275" y="0.0"/>
      <point x="211.8878982235275" y="5.0"/>
      <point x="221.8878982235275" y="16.0" type="curve"/>
      <point x="221.8878982235275" y="16.0"/>
      <point x="221.8878982235275" y="16.0"/>
      <point x="221.8878982235275" y="16.0" type="curve"/>
      <point x="221.8878982235275" y="16.0"/>
      <point x="221.8878982235275" y="16.0"/>
      <point x="221.8878982235275" y="16.0" type="curve"/>
      <point x="221.8878982235275" y="-17.0"/>
      <point x="221.8878982235275" y="-99.0"/>
      <point x="147.8878982235275" y="-170.0" type="curve" smooth="yes"/>
      <point x="141.8878982235275" y="-176.0"/>
      <point x="141.8878982235275" y="-177.0"/>
      <point x="141.8878982235275" y="-181.0" type="curve" smooth="yes"/>
      <point x="141.8878982235275" y="-188.0"/>
      <point x="148.8878982235275" y="-193.0"/>
      <point x="154.8878982235275" y="-193.0" type="curve" smooth="yes"/>
      <point x="165.8878982235275" y="-193.0"/>
      <point x="246.8878982235275" y="-115.0"/>
      <point x="246.8878982235275" y="2.0" type="curve" smooth="yes"/>
      <point x="246.8878982235275" y="64.0"/>
      <point x="224.8878982235275" y="108.0"/>
      <point x="181.8878982235275" y="108.0" type="curve" smooth="yes"/>
      <point x="147.8878982235275" y="108.0"/>
      <point x="127.8878982235275" y="82.0"/>
    </contour>
  </outline>
</glyph>
<glyph name="period" format="2">
  <advance width="285"/>
  <unicode hex="002E"/>
  <outline>
    <contour>
      <point x="196" y="54" type="curve" smooth="yes"/>
      <point x="196" y="83"/>
      <point x="173" y="108"/>
      <point x="142" y="108" type="curve" smooth="yes"/>
      <point x="111" y="108"/>
      <point x="88" y="83"/>
      <point x="88" y="54" type="curve" smooth="yes"/>
      <point x="88" y="25"/>
      <point x="111" y="0"/>
      <point x="142" y="0" type="curve" smooth="yes"/>
      <point x="173" y="0"/>
      <point x="196" y="25"/>
    </contour>
  </outline>
</glyph>
<glyph name="slash" format="2">
  <advance width="513"/>
  <unicode hex="002F"/>
  <outline>
    <contour>
      <point x="489.8878982235275" y="710.0" type="line" smooth="yes"/>
      <point x="495.8878982235275" y="724.0"/>
      <point x="495.8878982235275" y="726.0"/>
      <point x="495.8878982235275" y="728.0" type="curve" smooth="yes"/>
      <point x="495.8878982235275" y="741.0"/>
      <point x="485.8878982235275" y="750.0"/>
      <point x="474.8878982235275" y="750.0" type="curve" smooth="yes"/>
      <point x="460.8878982235275" y="750.0"/>
      <point x="456.8878982235275" y="742.0"/>
      <point x="455.8878982235275" y="740.0" type="curve"/>
      <point x="102.8878982235275" y="-210.0" type="line" smooth="yes"/>
      <point x="96.8878982235275" y="-224.0"/>
      <point x="96.8878982235275" y="-226.0"/>
      <point x="96.8878982235275" y="-228.0" type="curve" smooth="yes"/>
      <point x="96.8878982235275" y="-241.0"/>
      <point x="106.8878982235275" y="-250.0"/>
      <point x="117.8878982235275" y="-250.0" type="curve" smooth="yes"/>
      <point x="127.8878982235275" y="-250.0"/>
      <point x="135.8878982235275" y="-246.0"/>
      <point x="142.8878982235275" y="-226.0" type="curve" smooth="yes"/>
    </contour>
  </outline>
</glyph>
<glyph name="zero" format="2">
	<unicode hex="0030"/>
	<advance width="1026"/>
	<outline>
		<contour>
			<point x="915.7757964471" y="426" type="curve" smooth="yes"/>
			<point x="915.7757964471" y="708"/>
			<point x="797.7757964471" y="906"/>
			<point x="485.7757964471" y="906" type="curve" smooth="yes"/>
			<point x="161.7757964471" y="906"/>
			<point x="53.7757964471" y="698"/>
			<point x="53.7757964471" y="426" type="curve" smooth="yes"/>
			<point x="53.7757964471" y="144"/>
			<point x="173.7757964471" y="-44"/>
			<point x="483.7757964471" y="-44" type="curve" smooth="yes"/>
			<point x="809.7757964471" y="-44"/>
			<point x="915.7757964471" y="160"/>
		</contour>
		<contour>
			<point x="485.7757964471" y="6" type="curve" smooth="yes"/>
			<point x="397.7757964471" y="6"/>
			<point x="338.7757964471" y="29"/>
			<point x="299.7757964471" y="69" type="curve" smooth="yes"/>
			<point x="221.7757964471" y="148"/>
			<point x="221.7757964471" y="292"/>
			<point x="221.7757964471" y="444" type="curve" smooth="yes"/>
			<point x="221.7757964471" y="586"/>
			<point x="221.7757964471" y="719"/>
			<point x="295.7757964471" y="794" type="curve" smooth="yes"/>
			<point x="334.7757964471" y="833"/>
			<point x="393.7757964471" y="856"/>
			<point x="483.7757964471" y="856" type="curve" smooth="yes"/>
			<point x="573.7757964471" y="856"/>
			<point x="632.7757964471" y="833"/>
			<point x="671.7757964471" y="795" type="curve" smooth="yes"/>
			<point x="747.7757964471" y="720"/>
			<point x="747.7757964471" y="586"/>
			<point x="747.7757964471" y="444" type="curve" smooth="yes"/>
			<point x="747.7757964471" y="338"/>
			<point x="747.7757964471" y="208"/>
			<point x="711.7757964471" y="126" type="curve" smooth="yes"/>
			<point x="677.7757964471" y="54"/>
			<point x="593.7757964471" y="6"/>
		</contour>
	</outline>
</glyph>
<glyph name="one" format="2">
	<unicode hex="0031"/>
	<advance width="1026"/>
	<outline>
		<contour>
			<point x="367" y="784" type="curve"/>
			<point x="367" y="162" type="line" smooth="yes"/>
			<point x="367" y="94"/>
			<point x="361" y="80"/>
			<point x="317" y="70" type="curve" smooth="yes"/>
			<point x="273" y="62"/>
			<point x="217" y="62"/>
			<point x="175" y="62" type="curve" smooth="yes"/>
			<point x="125" y="62"/>
			<point x="111" y="62"/>
			<point x="111" y="30" type="curve" smooth="yes"/>
			<point x="111" y="0"/>
			<point x="133" y="0"/>
			<point x="147" y="0" type="curve" smooth="yes"/>
			<point x="191" y="0"/>
			<point x="241" y="4"/>
			<point x="287" y="4" type="curve" smooth="yes"/>
			<point x="383" y="6"/>
			<point x="477" y="6"/>
			<point x="555" y="6" type="curve" smooth="yes"/>
			<point x="597" y="6"/>
			<point x="713" y="0"/>
			<point x="735" y="0" type="curve" smooth="yes"/>
			<point x="749" y="0"/>
			<point x="771" y="0"/>
			<point x="771" y="30" type="curve" smooth="yes"/>
			<point x="771" y="62"/>
			<point x="757" y="62"/>
			<point x="707" y="62" type="curve" smooth="yes"/>
			<point x="663" y="62"/>
			<point x="607" y="62"/>
			<point x="563" y="70" type="curve" smooth="yes"/>
			<point x="521" y="78"/>
			<point x="515" y="94"/>
			<point x="515" y="162" type="curve" smooth="yes"/>
			<point x="515" y="848" type="line" smooth="yes"/>
			<point x="515" y="884"/>
			<point x="515" y="906"/>
			<point x="489" y="906" type="curve" smooth="yes"/>
			<point x="483" y="906"/>
			<point x="479" y="906"/>
			<point x="461" y="894" type="curve" smooth="yes"/>
			<point x="429" y="872"/>
			<point x="347" y="822"/>
			<point x="157" y="820" type="curve" smooth="yes"/>
			<point x="115" y="820"/>
			<point x="99" y="820"/>
			<point x="99" y="788" type="curve" smooth="yes"/>
			<point x="99" y="758"/>
			<point x="117" y="758"/>
			<point x="155" y="758" type="curve" smooth="yes"/>
			<point x="213" y="758"/>
			<point x="295" y="766"/>
		</contour>
	</outline>
</glyph>
<glyph name="two" format="2">
	<unicode hex="0032"/>
	<advance width="1026"/>
	<outline>
		<contour>
			<point x="121.7757964471" y="0" type="curve" smooth="yes"/>
			<point x="781.7757964471" y="0" type="line" smooth="yes"/>
			<point x="821.7757964471" y="0"/>
			<point x="831.7757964471" y="0"/>
			<point x="837.7757964471" y="20" type="curve"/>
			<point x="839.7757964471" y="20"/>
			<point x="895.7757964471" y="238"/>
			<point x="895.7757964471" y="248" type="curve" smooth="yes"/>
			<point x="895.7757964471" y="260"/>
			<point x="887.7757964471" y="274"/>
			<point x="867.7757964471" y="274" type="curve" smooth="yes"/>
			<point x="845.7757964471" y="274"/>
			<point x="841.7757964471" y="260"/>
			<point x="835.7757964471" y="232" type="curve"/>
			<point x="825.7757964471" y="198"/>
			<point x="813.7757964471" y="150"/>
			<point x="787.7757964471" y="148" type="curve" smooth="yes"/>
			<point x="745.7757964471" y="146"/>
			<point x="689.7757964471" y="144"/>
			<point x="647.7757964471" y="144" type="curve" smooth="yes"/>
			<point x="293.7757964471" y="144" type="line"/>
			<point x="487.7757964471" y="262"/>
			<point x="559.7757964471" y="300"/>
			<point x="589.7757964471" y="314" type="curve" smooth="yes"/>
			<point x="769.7757964471" y="404"/>
			<point x="895.7757964471" y="466"/>
			<point x="895.7757964471" y="622" type="curve" smooth="yes"/>
			<point x="895.7757964471" y="822"/>
			<point x="687.7757964471" y="906"/>
			<point x="461.7757964471" y="906" type="curve" smooth="yes"/>
			<point x="235.7757964471" y="906"/>
			<point x="85.7757964471" y="798"/>
			<point x="85.7757964471" y="656" type="curve" smooth="yes"/>
			<point x="85.7757964471" y="588"/>
			<point x="141.7757964471" y="574"/>
			<point x="163.7757964471" y="574" type="curve" smooth="yes"/>
			<point x="199.7757964471" y="574"/>
			<point x="241.7757964471" y="602"/>
			<point x="241.7757964471" y="652" type="curve" smooth="yes"/>
			<point x="241.7757964471" y="718"/>
			<point x="177.7757964471" y="730"/>
			<point x="169.7757964471" y="732" type="curve"/>
			<point x="225.7757964471" y="818"/>
			<point x="345.7757964471" y="844"/>
			<point x="429.7757964471" y="844" type="curve" smooth="yes"/>
			<point x="597.7757964471" y="844"/>
			<point x="715.7757964471" y="754"/>
			<point x="715.7757964471" y="622" type="curve" smooth="yes"/>
			<point x="715.7757964471" y="488"/>
			<point x="595.7757964471" y="412"/>
			<point x="443.7757964471" y="308" type="curve" smooth="yes"/>
			<point x="69.7757964471" y="54" type="line"/>
			<point x="63.7757964471" y="46"/>
			<point x="63.7757964471" y="40"/>
			<point x="63.7757964471" y="32" type="curve" smooth="yes"/>
			<point x="63.7757964471" y="0"/>
			<point x="79.7757964471" y="0"/>
		</contour>
	</outline>
</glyph>
<glyph name="three" format="2">
	<unicode hex="0033"/>
	<advance width="513"/>
	<outline>
		<contour>
			<point x="291.8878982235" y="-216" type="curve" smooth="yes"/>
			<point x="418.8878982235" y="-216"/>
			<point x="509.8878982235" y="-127"/>
			<point x="509.8878982235" y="-29" type="curve" smooth="yes"/>
			<point x="509.8878982235" y="50"/>
			<point x="447.8878982235" y="125"/>
			<point x="345.8878982235" y="148" type="curve"/>
			<point x="426.8878982235" y="176"/>
			<point x="481.8878982235" y="244"/>
			<point x="481.8878982235" y="319" type="curve" smooth="yes"/>
			<point x="481.8878982235" y="396"/>
			<point x="394.8878982235" y="453"/>
			<point x="293.8878982235" y="453" type="curve" smooth="yes"/>
			<point x="187.8878982235" y="453"/>
			<point x="110.8878982235" y="395"/>
			<point x="110.8878982235" y="322" type="curve" smooth="yes"/>
			<point x="110.8878982235" y="275"/>
			<point x="151.8878982235" y="270"/>
			<point x="159.8878982235" y="270" type="curve" smooth="yes"/>
			<point x="183.8878982235" y="270"/>
			<point x="208.8878982235" y="288"/>
			<point x="208.8878982235" y="319" type="curve" smooth="yes"/>
			<point x="208.8878982235" y="338"/>
			<point x="200.8878982235" y="368"/>
			<point x="153.8878982235" y="368" type="curve"/>
			<point x="187.8878982235" y="419"/>
			<point x="260.8878982235" y="428"/>
			<point x="289.8878982235" y="428" type="curve" smooth="yes"/>
			<point x="333.8878982235" y="428"/>
			<point x="391.8878982235" y="406"/>
			<point x="391.8878982235" y="319" type="curve" smooth="yes"/>
			<point x="391.8878982235" y="295"/>
			<point x="386.8878982235" y="248"/>
			<point x="360.8878982235" y="209" type="curve" smooth="yes"/>
			<point x="329.8878982235" y="163"/>
			<point x="293.8878982235" y="161"/>
			<point x="263.8878982235" y="159" type="curve" smooth="yes"/>
			<point x="228.8878982235" y="157"/>
			<point x="226.8878982235" y="157"/>
			<point x="220.8878982235" y="155" type="curve"/>
			<point x="210.8878982235" y="154"/>
			<point x="210.8878982235" y="144"/>
			<point x="210.8878982235" y="143" type="curve" smooth="yes"/>
			<point x="210.8878982235" y="131"/>
			<point x="219.8878982235" y="131"/>
			<point x="238.8878982235" y="131" type="curve" smooth="yes"/>
			<point x="281.8878982235" y="131" type="line" smooth="yes"/>
			<point x="376.8878982235" y="131"/>
			<point x="410.8878982235" y="57"/>
			<point x="410.8878982235" y="-29" type="curve" smooth="yes"/>
			<point x="410.8878982235" y="-151"/>
			<point x="342.8878982235" y="-188"/>
			<point x="289.8878982235" y="-188" type="curve" smooth="yes"/>
			<point x="242.8878982235" y="-188"/>
			<point x="162.8878982235" y="-171"/>
			<point x="127.8878982235" y="-112" type="curve"/>
			<point x="138.8878982235" y="-112"/>
			<point x="188.8878982235" y="-112"/>
			<point x="188.8878982235" y="-59" type="curve" smooth="yes"/>
			<point x="188.8878982235" y="-27"/>
			<point x="164.8878982235" y="-7"/>
			<point x="135.8878982235" y="-7" type="curve" smooth="yes"/>
			<point x="115.8878982235" y="-7"/>
			<point x="82.8878982235" y="-18"/>
			<point x="82.8878982235" y="-62" type="curve" smooth="yes"/>
			<point x="82.8878982235" y="-152"/>
			<point x="178.8878982235" y="-216"/>
		</contour>
	</outline>
</glyph>
<glyph name="four" format="2">
	<unicode hex="0034"/>
	<advance width="1026"/>
	<outline>
		<contour>
			<point x="411.7757964471" y="-388" type="curve" smooth="yes"/>
			<point x="447.7757964471" y="-388"/>
			<point x="489.7757964471" y="-384"/>
			<point x="527.7757964471" y="-384" type="curve" smooth="yes"/>
			<point x="569.7757964471" y="-384"/>
			<point x="611.7757964471" y="-382"/>
			<point x="653.7757964471" y="-382" type="curve" smooth="yes"/>
			<point x="693.7757964471" y="-382"/>
			<point x="741.7757964471" y="-382"/>
			<point x="771.7757964471" y="-384" type="curve" smooth="yes"/>
			<point x="795.7757964471" y="-386"/>
			<point x="873.7757964471" y="-388"/>
			<point x="897.7757964471" y="-388" type="curve" smooth="yes"/>
			<point x="907.7757964471" y="-388"/>
			<point x="931.7757964471" y="-388"/>
			<point x="931.7757964471" y="-358" type="curve" smooth="yes"/>
			<point x="931.7757964471" y="-326"/>
			<point x="915.7757964471" y="-326"/>
			<point x="867.7757964471" y="-326" type="curve" smooth="yes"/>
			<point x="867.7757964471" y="-326"/>
			<point x="867.7757964471" y="-326"/>
			<point x="867.7757964471" y="-326" type="curve" smooth="yes"/>
			<point x="731.7757964471" y="-326"/>
			<point x="731.7757964471" y="-312"/>
			<point x="731.7757964471" y="-232" type="curve" smooth="yes"/>
			<point x="731.7757964471" y="0" type="line"/>
			<point x="881.7757964471" y="0" type="line" smooth="yes"/>
			<point x="921.7757964471" y="0"/>
			<point x="939.7757964471" y="0"/>
			<point x="939.7757964471" y="30" type="curve" smooth="yes"/>
			<point x="939.7757964471" y="62"/>
			<point x="923.7757964471" y="62"/>
			<point x="881.7757964471" y="62" type="curve" smooth="yes"/>
			<point x="731.7757964471" y="62" type="line"/>
			<point x="731.7757964471" y="870" type="line" smooth="yes"/>
			<point x="731.7757964471" y="916"/>
			<point x="731.7757964471" y="928"/>
			<point x="693.7757964471" y="928" type="curve" smooth="yes"/>
			<point x="665.7757964471" y="928"/>
			<point x="663.7757964471" y="924"/>
			<point x="645.7757964471" y="900" type="curve" smooth="yes"/>
			<point x="47.7757964471" y="88" type="line" smooth="yes"/>
			<point x="29.7757964471" y="64"/>
			<point x="29.7757964471" y="56"/>
			<point x="29.7757964471" y="40" type="curve" smooth="yes"/>
			<point x="29.7757964471" y="0"/>
			<point x="39.7757964471" y="0"/>
			<point x="87.7757964471" y="0" type="curve" smooth="yes"/>
			<point x="577.7757964471" y="0" type="line"/>
			<point x="577.7757964471" y="-232" type="line" smooth="yes"/>
			<point x="577.7757964471" y="-312"/>
			<point x="577.7757964471" y="-326"/>
			<point x="439.7757964471" y="-326" type="curve" smooth="yes"/>
			<point x="439.7757964471" y="-326"/>
			<point x="439.7757964471" y="-326"/>
			<point x="439.7757964471" y="-326" type="curve" smooth="yes"/>
			<point x="393.7757964471" y="-326"/>
			<point x="377.7757964471" y="-326"/>
			<point x="377.7757964471" y="-358" type="curve" smooth="yes"/>
			<point x="377.7757964471" y="-388"/>
			<point x="401.7757964471" y="-388"/>
		</contour>
		<contour>
			<point x="589.7757964471" y="62" type="line"/>
			<point x="95.7757964471" y="62" type="line"/>
			<point x="589.7757964471" y="734" type="line"/>
		</contour>
	</outline>
</glyph>
<glyph name="five" format="2">
	<unicode hex="0035"/>
	<advance width="513"/>
	<outline>
		<contour>
			<point x="278.8878982235" y="-216" type="curve" smooth="yes"/>
			<point x="397.8878982235" y="-216"/>
			<point x="501.8878982235" y="-123"/>
			<point x="501.8878982235" y="1" type="curve" smooth="yes"/>
			<point x="501.8878982235" y="115"/>
			<point x="417.8878982235" y="214"/>
			<point x="307.8878982235" y="214" type="curve" smooth="yes"/>
			<point x="231.8878982235" y="214"/>
			<point x="188.8878982235" y="178"/>
			<point x="174.8878982235" y="163" type="curve"/>
			<point x="174.8878982235" y="356" type="line"/>
			<point x="222.8878982235" y="341"/>
			<point x="260.8878982235" y="340"/>
			<point x="267.8878982235" y="340" type="curve" smooth="yes"/>
			<point x="350.0017382235" y="341"/>
			<point x="411.7771212987" y="382.161162824"/>
			<point x="441.7567554547" y="411.9147369683" type="curve" smooth="yes"/>
			<point x="454.8587361691" y="424.9179228176"/>
			<point x="461.8878982235" y="435.74232"/>
			<point x="461.8878982235" y="439" type="curve" smooth="yes"/>
			<point x="461.8878982235" y="451"/>
			<point x="451.8878982235" y="452"/>
			<point x="450.8878982235" y="452" type="curve" smooth="yes"/>
			<point x="448.8878982235" y="452"/>
			<point x="446.8878982235" y="452"/>
			<point x="437.8878982235" y="449" type="curve"/>
			<point x="394.8878982235" y="431"/>
			<point x="349.8878982235" y="422"/>
			<point x="302.8878982235" y="422" type="curve" smooth="yes"/>
			<point x="255.8878982235" y="422"/>
			<point x="211.8878982235" y="431"/>
			<point x="167.8878982235" y="448" type="curve" smooth="yes"/>
			<point x="158.8878982235" y="452"/>
			<point x="156.8878982235" y="452"/>
			<point x="154.8878982235" y="452" type="curve" smooth="yes"/>
			<point x="143.8878982235" y="452"/>
			<point x="143.8878982235" y="442"/>
			<point x="143.8878982235" y="424" type="curve" smooth="yes"/>
			<point x="143.8878982235" y="142" type="line" smooth="yes"/>
			<point x="143.8878982235" y="123"/>
			<point x="143.8878982235" y="112"/>
			<point x="157.8878982235" y="112" type="curve" smooth="yes"/>
			<point x="165.8878982235" y="112"/>
			<point x="167.8878982235" y="115"/>
			<point x="174.8878982235" y="124" type="curve" smooth="yes"/>
			<point x="214.8878982235" y="180"/>
			<point x="272.8878982235" y="189"/>
			<point x="305.8878982235" y="189" type="curve" smooth="yes"/>
			<point x="356.8878982235" y="189"/>
			<point x="382.8878982235" y="150"/>
			<point x="393.8878982235" y="130" type="curve" smooth="yes"/>
			<point x="411.8878982235" y="94"/>
			<point x="414.8878982235" y="48"/>
			<point x="414.8878982235" y="4" type="curve" smooth="yes"/>
			<point x="414.8878982235" y="-32"/>
			<point x="413.8878982235" y="-87"/>
			<point x="384.8878982235" y="-131" type="curve" smooth="yes"/>
			<point x="370.8878982235" y="-151"/>
			<point x="334.8878982235" y="-188"/>
			<point x="275.8878982235" y="-188" type="curve" smooth="yes"/>
			<point x="214.8878982235" y="-188"/>
			<point x="149.8878982235" y="-151"/>
			<point x="125.8878982235" y="-81" type="curve"/>
			<point x="167.8878982235" y="-88"/>
			<point x="184.8878982235" y="-63"/>
			<point x="185.8878982235" y="-35" type="curve" smooth="yes"/>
			<point x="186.8878982235" y="2"/>
			<point x="154.8878982235" y="13"/>
			<point x="138.8878982235" y="13" type="curve" smooth="yes"/>
			<point x="123.8878982235" y="13"/>
			<point x="90.8878982235" y="4"/>
			<point x="90.8878982235" y="-38" type="curve" smooth="yes"/>
			<point x="90.8878982235" y="-126"/>
			<point x="165.8878982235" y="-216"/>
		</contour>
	</outline>
</glyph>
<glyph name="six" format="2">
	<unicode hex="0036"/>
	<advance width="513"/>
	<outline>
		<contour>
			<point x="86.5" y="330" type="curve"/>
			<point x="86.5" y="391"/>
			<point x="89.5" y="472"/>
			<point x="121.5" y="537" type="curve" smooth="yes"/>
			<point x="147.5" y="587"/>
			<point x="197.5" y="641"/>
			<point x="269.5" y="641" type="curve" smooth="yes"/>
			<point x="295.5" y="641"/>
			<point x="336.5" y="635"/>
			<point x="359.5" y="602" type="curve"/>
			<point x="314.5" y="602"/>
			<point x="309.5" y="569"/>
			<point x="309.5" y="557" type="curve" smooth="yes"/>
			<point x="309.5" y="529"/>
			<point x="331.5" y="512"/>
			<point x="354.5" y="512" type="curve" smooth="yes"/>
			<point x="371.5" y="512"/>
			<point x="399.5" y="523"/>
			<point x="399.5" y="559" type="curve" smooth="yes"/>
			<point x="399.5" y="616"/>
			<point x="357.5" y="666"/>
			<point x="267.5" y="666" type="curve" smooth="yes"/>
			<point x="137.5" y="666"/>
			<point x="-2.5" y="538"/>
			<point x="-2.5" y="316" type="curve" smooth="yes"/>
			<point x="-2.5" y="48"/>
			<point x="117.5" y="-22"/>
			<point x="213.5" y="-22" type="curve" smooth="yes"/>
			<point x="292.5" y="-22"/>
			<point x="334.5" y="17"/>
			<point x="355.5" y="38" type="curve" smooth="yes"/>
			<point x="405.5" y="88"/>
			<point x="424.5" y="135"/>
			<point x="424.5" y="203" type="curve" smooth="yes"/>
			<point x="424.5" y="289"/>
			<point x="393.5" y="329"/>
			<point x="359.5" y="365" type="curve" smooth="yes"/>
			<point x="312.5" y="417"/>
			<point x="260.5" y="426"/>
			<point x="219.5" y="426" type="curve" smooth="yes"/>
			<point x="149.5" y="426"/>
			<point x="108.5" y="378"/>
		</contour>
		<contour>
			<point x="212.5" y="6" type="curve" smooth="yes"/>
			<point x="157.5" y="6"/>
			<point x="123.5" y="48"/>
			<point x="108.5" y="84" type="curve" smooth="yes"/>
			<point x="97.5" y="111"/>
			<point x="88.5" y="166"/>
			<point x="88.5" y="226" type="curve" smooth="yes"/>
			<point x="88.5" y="302"/>
			<point x="125.5" y="401"/>
			<point x="217.5" y="401" type="curve" smooth="yes"/>
			<point x="235.5" y="401"/>
			<point x="282.5" y="401"/>
			<point x="315.5" y="339" type="curve" smooth="yes"/>
			<point x="333.5" y="303"/>
			<point x="335.5" y="267"/>
			<point x="335.5" y="204" type="curve" smooth="yes"/>
			<point x="335.5" y="152"/>
			<point x="335.5" y="107"/>
			<point x="314.5" y="69" type="curve" smooth="yes"/>
			<point x="283.5" y="14"/>
			<point x="242.5" y="6"/>
		</contour>
	</outline>
</glyph>
<glyph name="seven" format="2">
	<unicode hex="0037"/>
	<advance width="513"/>
	<outline>
		<contour>
			<point x="182.5" y="-216" type="curve" smooth="yes"/>
			<point x="227.5" y="-216"/>
			<point x="227.5" y="-173"/>
			<point x="227.5" y="-159" type="curve" smooth="yes"/>
			<point x="227.5" y="-117" type="line" smooth="yes"/>
			<point x="227.5" y="-48"/>
			<point x="233.5" y="27"/>
			<point x="245.5" y="78" type="curve" smooth="yes"/>
			<point x="265.5" y="160"/>
			<point x="279.5" y="179"/>
			<point x="379.5" y="311" type="curve" smooth="yes"/>
			<point x="399.5" y="336"/>
			<point x="442.5" y="393"/>
			<point x="450.5" y="406" type="curve"/>
			<point x="453.5" y="409"/>
			<point x="453.5" y="412"/>
			<point x="453.5" y="415" type="curve" smooth="yes"/>
			<point x="453.5" y="431"/>
			<point x="445.5" y="431"/>
			<point x="424.5" y="431" type="curve" smooth="yes"/>
			<point x="195.5" y="431" type="line" smooth="yes"/>
			<point x="177.5" y="431"/>
			<point x="144.5" y="432"/>
			<point x="127.5" y="433" type="curve" smooth="yes"/>
			<point x="108.5" y="435"/>
			<point x="85.5" y="437"/>
			<point x="73.5" y="445" type="curve"/>
			<point x="73.5" y="450"/>
			<point x="73.5" y="463"/>
			<point x="59.5" y="463" type="curve" smooth="yes"/>
			<point x="47.5" y="463"/>
			<point x="46.5" y="457"/>
			<point x="43.5" y="439" type="curve" smooth="yes"/>
			<point x="33.5" y="384"/>
			<point x="22.5" y="330"/>
			<point x="12.5" y="275" type="curve" smooth="yes"/>
			<point x="9.5" y="262"/>
			<point x="17.5" y="257"/>
			<point x="25.5" y="257" type="curve" smooth="yes"/>
			<point x="33.5" y="257"/>
			<point x="38.5" y="260"/>
			<point x="41.5" y="278" type="curve" smooth="yes"/>
			<point x="46.5" y="305"/>
			<point x="55.5" y="349"/>
			<point x="65.5" y="351" type="curve"/>
			<point x="94.5" y="354"/>
			<point x="126.5" y="354"/>
			<point x="157.5" y="354" type="curve" smooth="yes"/>
			<point x="374.5" y="354" type="line"/>
			<point x="358.5" y="331"/>
			<point x="338.5" y="305"/>
			<point x="320.5" y="281" type="curve" smooth="yes"/>
			<point x="265.5" y="209"/>
			<point x="229.5" y="162"/>
			<point x="195.5" y="87" type="curve" smooth="yes"/>
			<point x="143.5" y="-28"/>
			<point x="137.5" y="-124"/>
			<point x="137.5" y="-162" type="curve" smooth="yes"/>
			<point x="137.5" y="-172"/>
			<point x="137.5" y="-216"/>
		</contour>
	</outline>
</glyph>
<glyph name="eight" format="2">
	<unicode hex="0038"/>
	<advance width="1026"/>
	<outline>
		<contour>
			<point x="483.7757964471" y="-44" type="curve" smooth="yes"/>
			<point x="717.7757964471" y="-44"/>
			<point x="911.7757964471" y="120"/>
			<point x="911.7757964471" y="334" type="curve" smooth="yes"/>
			<point x="911.7757964471" y="526"/>
			<point x="765.7757964471" y="620"/>
			<point x="705.7757964471" y="660" type="curve" smooth="yes"/>
			<point x="673.7757964471" y="680"/>
			<point x="639.7757964471" y="702"/>
			<point x="607.7757964471" y="722" type="curve"/>
			<point x="745.7757964471" y="792"/>
			<point x="855.7757964471" y="894"/>
			<point x="855.7757964471" y="1034" type="curve" smooth="yes"/>
			<point x="855.7757964471" y="1220"/>
			<point x="669.7757964471" y="1332"/>
			<point x="485.7757964471" y="1332" type="curve" smooth="yes"/>
			<point x="283.7757964471" y="1332"/>
			<point x="113.7757964471" y="1188"/>
			<point x="113.7757964471" y="1000" type="curve" smooth="yes"/>
			<point x="113.7757964471" y="934"/>
			<point x="135.7757964471" y="860"/>
			<point x="193.7757964471" y="794" type="curve" smooth="yes"/>
			<point x="229.7757964471" y="752"/>
			<point x="249.7757964471" y="740"/>
			<point x="355.7757964471" y="674" type="curve"/>
			<point x="217.7757964471" y="608"/>
			<point x="57.7757964471" y="492"/>
			<point x="57.7757964471" y="302" type="curve" smooth="yes"/>
			<point x="57.7757964471" y="88"/>
			<point x="267.7757964471" y="-44"/>
		</contour>
		<contour>
			<point x="485.7757964471" y="12" type="curve" smooth="yes"/>
			<point x="315.7757964471" y="12"/>
			<point x="163.7757964471" y="132"/>
			<point x="163.7757964471" y="302" type="curve" smooth="yes"/>
			<point x="163.7757964471" y="486"/>
			<point x="321.7757964471" y="600"/>
			<point x="411.7757964471" y="640" type="curve"/>
			<point x="499.7757964471" y="584"/>
			<point x="587.7757964471" y="530"/>
			<point x="675.7757964471" y="474" type="curve" smooth="yes"/>
			<point x="709.7757964471" y="452"/>
			<point x="805.7757964471" y="388"/>
			<point x="805.7757964471" y="266" type="curve" smooth="yes"/>
			<point x="805.7757964471" y="116"/>
			<point x="653.7757964471" y="12"/>
		</contour>
		<contour>
			<point x="553.7757964471" y="754" type="curve"/>
			<point x="347.7757964471" y="886"/>
			<point x="379.7757964471" y="864"/>
			<point x="335.7757964471" y="890" type="curve"/>
			<point x="279.7757964471" y="928"/>
			<point x="205.7757964471" y="976"/>
			<point x="205.7757964471" y="1072" type="curve" smooth="yes"/>
			<point x="205.7757964471" y="1204"/>
			<point x="345.7757964471" y="1282"/>
			<point x="483.7757964471" y="1282" type="curve" smooth="yes"/>
			<point x="631.7757964471" y="1282"/>
			<point x="763.7757964471" y="1180"/>
			<point x="763.7757964471" y="1034" type="curve" smooth="yes"/>
			<point x="763.7757964471" y="896"/>
			<point x="647.7757964471" y="804"/>
		</contour>
	</outline>
</glyph>
<glyph name="nine" format="2">
	<unicode hex="0039"/>
	<advance width="513"/>
	<outline>
		<contour>
			<point x="335.5" y="112" type="curve"/>
			<point x="335.5" y="32"/>
			<point x="330.5" y="-34"/>
			<point x="300.5" y="-95" type="curve" smooth="yes"/>
			<point x="276.5" y="-141"/>
			<point x="230.5" y="-188"/>
			<point x="165.5" y="-188" type="curve" smooth="yes"/>
			<point x="139.5" y="-188"/>
			<point x="91.5" y="-184"/>
			<point x="65.5" y="-154" type="curve"/>
			<point x="93.5" y="-152"/>
			<point x="112.5" y="-135"/>
			<point x="112.5" y="-108" type="curve" smooth="yes"/>
			<point x="112.5" y="-80"/>
			<point x="90.5" y="-63"/>
			<point x="67.5" y="-63" type="curve" smooth="yes"/>
			<point x="50.5" y="-63"/>
			<point x="22.5" y="-74"/>
			<point x="22.5" y="-110" type="curve" smooth="yes"/>
			<point x="22.5" y="-172"/>
			<point x="73.5" y="-216"/>
			<point x="166.5" y="-216" type="curve" smooth="yes"/>
			<point x="299.5" y="-216"/>
			<point x="424.5" y="-83"/>
			<point x="424.5" y="125" type="curve" smooth="yes"/>
			<point x="424.5" y="390"/>
			<point x="304.5" y="453"/>
			<point x="214.5" y="453" type="curve" smooth="yes"/>
			<point x="139.5" y="453"/>
			<point x="96.5" y="423"/>
			<point x="62.5" y="389" type="curve" smooth="yes"/>
			<point x="23.5" y="350"/>
			<point x="-2.5" y="309"/>
			<point x="-2.5" y="234" type="curve" smooth="yes"/>
			<point x="-2.5" y="158"/>
			<point x="23.5" y="118"/>
			<point x="54.5" y="84" type="curve" smooth="yes"/>
			<point x="104.5" y="28"/>
			<point x="155.5" y="17"/>
			<point x="202.5" y="17" type="curve" smooth="yes"/>
			<point x="276.5" y="17"/>
			<point x="317.5" y="71"/>
		</contour>
		<contour>
			<point x="204.5" y="42" type="curve" smooth="yes"/>
			<point x="177.5" y="42"/>
			<point x="140.5" y="46"/>
			<point x="109.5" y="99" type="curve" smooth="yes"/>
			<point x="87.5" y="135"/>
			<point x="86.5" y="178"/>
			<point x="86.5" y="234" type="curve" smooth="yes"/>
			<point x="86.5" y="302"/>
			<point x="87.5" y="337"/>
			<point x="117.5" y="378" type="curve" smooth="yes"/>
			<point x="141.5" y="412"/>
			<point x="173.5" y="428"/>
			<point x="214.5" y="428" type="curve" smooth="yes"/>
			<point x="269.5" y="428"/>
			<point x="302.5" y="384"/>
			<point x="316.5" y="346" type="curve" smooth="yes"/>
			<point x="322.5" y="331"/>
			<point x="333.5" y="285"/>
			<point x="333.5" y="214" type="curve" smooth="yes"/>
			<point x="333.5" y="141"/>
			<point x="296.5" y="42"/>
		</contour>
	</outline>
</glyph>
<glyph name="less" format="2">
	<unicode hex="003C"/>
	<advance width="1598"/>
	<outline>
		<contour>
			<point x="1355.7757964471" y="1014" type="line" smooth="yes"/>
			<point x="1373.7757964471" y="1022"/>
			<point x="1395.7757964471" y="1034"/>
			<point x="1395.7757964471" y="1060" type="curve" smooth="yes"/>
			<point x="1395.7757964471" y="1082"/>
			<point x="1379.7757964471" y="1104"/>
			<point x="1351.7757964471" y="1104" type="curve" smooth="yes"/>
			<point x="1349.7757964471" y="1104"/>
			<point x="1339.7757964471" y="1104"/>
			<point x="1315.7757964471" y="1092" type="curve" smooth="yes"/>
			<point x="183.7757964471" y="548" type="line" smooth="yes"/>
			<point x="165.7757964471" y="540"/>
			<point x="143.7757964471" y="528"/>
			<point x="143.7757964471" y="502" type="curve" smooth="yes"/>
			<point x="143.7757964471" y="474"/>
			<point x="161.7757964471" y="464"/>
			<point x="183.7757964471" y="454" type="curve" smooth="yes"/>
			<point x="1311.7757964471" y="-88" type="line" smooth="yes"/>
			<point x="1339.7757964471" y="-102"/>
			<point x="1347.7757964471" y="-102"/>
			<point x="1351.7757964471" y="-102" type="curve" smooth="yes"/>
			<point x="1383.7757964471" y="-102"/>
			<point x="1395.7757964471" y="-74"/>
			<point x="1395.7757964471" y="-60" type="curve" smooth="yes"/>
			<point x="1395.7757964471" y="-34"/>
			<point x="1381.7757964471" y="-26"/>
			<point x="1359.7757964471" y="-16" type="curve" smooth="yes"/>
			<point x="285.7757964471" y="502" type="line"/>
		</contour>
	</outline>
</glyph>
<glyph name="greater" format="2">
	<unicode hex="003E"/>
	<advance width="1598"/>
	<outline>
		<contour>
			<point x="1355.7757964471" y="454" type="line" smooth="yes"/>
			<point x="1377.7757964471" y="464"/>
			<point x="1395.7757964471" y="474"/>
			<point x="1395.7757964471" y="502" type="curve" smooth="yes"/>
			<point x="1395.7757964471" y="528"/>
			<point x="1373.7757964471" y="540"/>
			<point x="1355.7757964471" y="548" type="curve" smooth="yes"/>
			<point x="227.7757964471" y="1090" type="line" smooth="yes"/>
			<point x="199.7757964471" y="1104"/>
			<point x="189.7757964471" y="1104"/>
			<point x="185.7757964471" y="1104" type="curve" smooth="yes"/>
			<point x="159.7757964471" y="1104"/>
			<point x="143.7757964471" y="1082"/>
			<point x="143.7757964471" y="1062" type="curve" smooth="yes"/>
			<point x="143.7757964471" y="1038"/>
			<point x="155.7757964471" y="1028"/>
			<point x="183.7757964471" y="1014" type="curve" smooth="yes"/>
			<point x="1253.7757964471" y="502" type="line"/>
			<point x="183.7757964471" y="-12" type="line" smooth="yes"/>
			<point x="155.7757964471" y="-26"/>
			<point x="143.7757964471" y="-36"/>
			<point x="143.7757964471" y="-60" type="curve" smooth="yes"/>
			<point x="143.7757964471" y="-74"/>
			<point x="155.7757964471" y="-102"/>
			<point x="187.7757964471" y="-102" type="curve" smooth="yes"/>
			<point x="189.7757964471" y="-102"/>
			<point x="199.7757964471" y="-102"/>
			<point x="223.7757964471" y="-90" type="curve" smooth="yes"/>
		</contour>
	</outline>
</glyph>
<glyph name="A" format="2">
  <advance width="770"/>
  <unicode hex="0041"/>
  <outline>
    <contour>
      <point x="584.8878982235275" y="231.0" type="line"/>
      <point x="586.8878982235275" y="207.0"/>
      <point x="590.8878982235275" y="174.0"/>
      <point x="593.8878982235275" y="149.0" type="curve" smooth="yes"/>
      <point x="597.8878982235275" y="110.0"/>
      <point x="603.8878982235275" y="66.0"/>
      <point x="603.8878982235275" y="63.0" type="curve" smooth="yes"/>
      <point x="603.8878982235275" y="48.0"/>
      <point x="589.8878982235275" y="31.0"/>
      <point x="531.8878982235275" y="31.0" type="curve" smooth="yes"/>
      <point x="521.8878982235275" y="31.0"/>
      <point x="508.8878982235275" y="31.0"/>
      <point x="508.8878982235275" y="13.0" type="curve" smooth="yes"/>
      <point x="508.8878982235275" y="2.0"/>
      <point x="516.8878982235275" y="0.0"/>
      <point x="523.8878982235275" y="0.0" type="curve" smooth="yes"/>
      <point x="551.8878982235275" y="0.0"/>
      <point x="597.8878982235275" y="3.0"/>
      <point x="646.8878982235275" y="3.0" type="curve" smooth="yes"/>
      <point x="702.8878982235275" y="3.0"/>
      <point x="733.8878982235275" y="0.0"/>
      <point x="760.8878982235275" y="0.0" type="curve" smooth="yes"/>
      <point x="766.8878982235275" y="0.0"/>
      <point x="779.8878982235275" y="0.0"/>
      <point x="779.8878982235275" y="18.0" type="curve" smooth="yes"/>
      <point x="779.8878982235275" y="31.0"/>
      <point x="768.8878982235275" y="31.0"/>
      <point x="756.8878982235275" y="31.0" type="curve" smooth="yes"/>
      <point x="696.8878982235275" y="31.0"/>
      <point x="695.8878982235275" y="38.0"/>
      <point x="692.8878982235275" y="67.0" type="curve" smooth="yes"/>
      <point x="622.8878982235275" y="689.0" type="line" smooth="yes"/>
      <point x="620.8878982235275" y="711.0"/>
      <point x="619.8878982235275" y="716.0"/>
      <point x="602.8878982235275" y="716.0" type="curve" smooth="yes"/>
      <point x="588.8878982235275" y="716.0"/>
      <point x="582.8878982235275" y="709.0"/>
      <point x="574.8878982235275" y="696.0" type="curve" smooth="yes"/>
      <point x="221.8878982235275" y="117.0" type="line" smooth="yes"/>
      <point x="172.8878982235275" y="37.0"/>
      <point x="128.8878982235275" y="34.0"/>
      <point x="88.8878982235275" y="31.0" type="curve"/>
      <point x="81.8878982235275" y="30.0"/>
      <point x="76.8878982235275" y="22.0"/>
      <point x="76.8878982235275" y="13.0" type="curve" smooth="yes"/>
      <point x="76.8878982235275" y="7.0"/>
      <point x="80.8878982235275" y="0.0"/>
      <point x="90.8878982235275" y="0.0" type="curve" smooth="yes"/>
      <point x="109.8878982235275" y="0.0"/>
      <point x="156.8878982235275" y="3.0"/>
      <point x="175.8878982235275" y="3.0" type="curve" smooth="yes"/>
      <point x="197.8878982235275" y="3.0"/>
      <point x="251.8878982235275" y="0.0"/>
      <point x="273.8878982235275" y="0.0" type="curve" smooth="yes"/>
      <point x="279.8878982235275" y="0.0"/>
      <point x="292.8878982235275" y="0.0"/>
      <point x="292.8878982235275" y="18.0" type="curve" smooth="yes"/>
      <point x="292.8878982235275" y="30.0"/>
      <point x="280.8878982235275" y="31.0"/>
      <point x="277.8878982235275" y="31.0" type="curve"/>
      <point x="268.8878982235275" y="32.0"/>
      <point x="230.8878982235275" y="34.0"/>
      <point x="230.8878982235275" y="64.0" type="curve" smooth="yes"/>
      <point x="230.8878982235275" y="78.0"/>
      <point x="241.8878982235275" y="97.0"/>
      <point x="244.8878982235275" y="102.0" type="curve" smooth="yes"/>
      <point x="323.8878982235275" y="231.0" type="line"/>
      <point x="323.8878982235275" y="231.0"/>
      <point x="323.8878982235275" y="231.0"/>
      <point x="323.8878982235275" y="231.0" type="curve"/>
    </contour>
    <contour>
      <point x="342.8878982235275" y="262.0" type="line"/>
      <point x="544.8878982235275" y="592.0" type="line"/>
      <point x="581.8878982235275" y="262.0" type="line"/>
    </contour>
  </outline>
</glyph>
<glyph name="B" format="2">
	<unicode hex="0042"/>
	<advance width="777"/>
	<outline>
		<contour>
			<point x="759.8878982235" y="215" type="curve" smooth="yes"/>
			<point x="759.8878982235" y="286"/>
			<point x="700.8878982235" y="346"/>
			<point x="601.8878982235" y="357" type="curve"/>
			<point x="715.8878982235" y="379"/>
			<point x="812.8878982235" y="455"/>
			<point x="812.8878982235" y="544" type="curve" smooth="yes"/>
			<point x="812.8878982235" y="622"/>
			<point x="740.8878982235" y="683"/>
			<point x="621.8878982235" y="683" type="curve" smooth="yes"/>
			<point x="279.8878982235" y="683" type="line" smooth="yes"/>
			<point x="261.8878982235" y="683"/>
			<point x="249.8878982235" y="683"/>
			<point x="249.8878982235" y="665" type="curve" smooth="yes"/>
			<point x="249.8878982235" y="652"/>
			<point x="258.8878982235" y="652"/>
			<point x="279.8878982235" y="652" type="curve" smooth="yes"/>
			<point x="290.8878982235" y="652"/>
			<point x="300.8878982235" y="652"/>
			<point x="315.8878982235" y="651" type="curve" smooth="yes"/>
			<point x="333.8878982235" y="650"/>
			<point x="341.8878982235" y="646"/>
			<point x="341.8878982235" y="637" type="curve" smooth="yes"/>
			<point x="341.8878982235" y="632"/>
			<point x="340.8878982235" y="626"/>
			<point x="337.8878982235" y="615" type="curve" smooth="yes"/>
			<point x="202.8878982235" y="76" type="line" smooth="yes"/>
			<point x="193.8878982235" y="40"/>
			<point x="191.8878982235" y="31"/>
			<point x="116.8878982235" y="31" type="curve" smooth="yes"/>
			<point x="97.8878982235" y="31"/>
			<point x="86.8878982235" y="31"/>
			<point x="86.8878982235" y="13" type="curve" smooth="yes"/>
			<point x="86.8878982235" y="0"/>
			<point x="96.8878982235" y="0"/>
			<point x="114.8878982235" y="0" type="curve" smooth="yes"/>
			<point x="478.8878982235" y="0" type="line" smooth="yes"/>
			<point x="640.8878982235" y="0"/>
			<point x="759.8878982235" y="118"/>
		</contour>
		<contour>
			<point x="720.8878982235" y="548" type="curve" smooth="yes"/>
			<point x="720.8878982235" y="459"/>
			<point x="627.8878982235" y="368"/>
			<point x="514.8878982235" y="368" type="curve" smooth="yes"/>
			<point x="358.8878982235" y="368" type="line"/>
			<point x="419.8878982235" y="613" type="line" smooth="yes"/>
			<point x="428.8878982235" y="649"/>
			<point x="430.8878982235" y="652"/>
			<point x="472.8878982235" y="652" type="curve" smooth="yes"/>
			<point x="607.8878982235" y="652" type="line" smooth="yes"/>
			<point x="711.8878982235" y="652"/>
			<point x="720.8878982235" y="573"/>
		</contour>
		<contour>
			<point x="664.8878982235" y="225" type="curve" smooth="yes"/>
			<point x="664.8878982235" y="126"/>
			<point x="573.8878982235" y="31"/>
			<point x="453.8878982235" y="31" type="curve" smooth="yes"/>
			<point x="307.8878982235" y="31" type="line" smooth="yes"/>
			<point x="275.8878982235" y="31"/>
			<point x="274.8878982235" y="34"/>
			<point x="280.8878982235" y="57" type="curve" smooth="yes"/>
			<point x="351.8878982235" y="343" type="line"/>
			<point x="539.8878982235" y="343" type="line" smooth="yes"/>
			<point x="601.8878982235" y="343"/>
			<point x="664.8878982235" y="316"/>
		</contour>
	</outline>
</glyph>
<glyph name="C" format="2">
	<unicode hex="0043"/>
	<advance width="1466"/>
	<outline>
		<contour>
			<point x="73.7757964471" y="510" type="curve" smooth="yes"/>
			<point x="73.7757964471" y="184"/>
			<point x="311.7757964471" y="-44"/>
			<point x="633.7757964471" y="-44" type="curve" smooth="yes"/>
			<point x="841.7757964471" y="-44"/>
			<point x="1005.7757964471" y="64"/>
			<point x="1083.7757964471" y="134" type="curve" smooth="yes"/>
			<point x="1265.7757964471" y="296"/>
			<point x="1299.7757964471" y="472"/>
			<point x="1299.7757964471" y="480" type="curve" smooth="yes"/>
			<point x="1299.7757964471" y="488"/>
			<point x="1295.7757964471" y="502"/>
			<point x="1271.7757964471" y="502" type="curve" smooth="yes"/>
			<point x="1249.7757964471" y="502"/>
			<point x="1245.7757964471" y="490"/>
			<point x="1243.7757964471" y="482" type="curve"/>
			<point x="1203.7757964471" y="352"/>
			<point x="1133.7757964471" y="251"/>
			<point x="1050.7757964471" y="177" type="curve" smooth="yes"/>
			<point x="928.7757964471" y="68"/>
			<point x="778.7757964471" y="18"/>
			<point x="659.7757964471" y="18" type="curve" smooth="yes"/>
			<point x="465.7757964471" y="18"/>
			<point x="259.7757964471" y="136"/>
			<point x="259.7757964471" y="438" type="curve" smooth="yes"/>
			<point x="259.7757964471" y="528"/>
			<point x="289.7757964471" y="844"/>
			<point x="491.7757964471" y="1090" type="curve" smooth="yes"/>
			<point x="611.7757964471" y="1234"/>
			<point x="807.7757964471" y="1348"/>
			<point x="999.7757964471" y="1348" type="curve" smooth="yes"/>
			<point x="1221.7757964471" y="1348"/>
			<point x="1339.7757964471" y="1178"/>
			<point x="1339.7757964471" y="958" type="curve" smooth="yes"/>
			<point x="1339.7757964471" y="890"/>
			<point x="1333.7757964471" y="876"/>
			<point x="1333.7757964471" y="860" type="curve" smooth="yes"/>
			<point x="1333.7757964471" y="838"/>
			<point x="1357.7757964471" y="838"/>
			<point x="1363.7757964471" y="838" type="curve" smooth="yes"/>
			<point x="1389.7757964471" y="838"/>
			<point x="1389.7757964471" y="842"/>
			<point x="1399.7757964471" y="880" type="curve" smooth="yes"/>
			<point x="1519.7757964471" y="1356" type="line" smooth="yes"/>
			<point x="1525.7757964471" y="1380"/>
			<point x="1525.7757964471" y="1384"/>
			<point x="1525.7757964471" y="1388" type="curve" smooth="yes"/>
			<point x="1525.7757964471" y="1390"/>
			<point x="1523.7757964471" y="1410"/>
			<point x="1501.7757964471" y="1410" type="curve" smooth="yes"/>
			<point x="1489.7757964471" y="1410"/>
			<point x="1483.7757964471" y="1404"/>
			<point x="1469.7757964471" y="1388" type="curve" smooth="yes"/>
			<point x="1347.7757964471" y="1254" type="line" smooth="yes"/>
			<point x="1339.7757964471" y="1246"/>
			<point x="1331.7757964471" y="1236"/>
			<point x="1329.7757964471" y="1236" type="curve" smooth="yes"/>
			<point x="1327.7757964471" y="1236"/>
			<point x="1325.7757964471" y="1238"/>
			<point x="1313.7757964471" y="1252" type="curve"/>
			<point x="1283.7757964471" y="1292"/>
			<point x="1193.7757964471" y="1410"/>
			<point x="985.7757964471" y="1410" type="curve" smooth="yes"/>
			<point x="527.7757964471" y="1410"/>
			<point x="73.7757964471" y="966"/>
		</contour>
	</outline>
</glyph>
<glyph name="D" format="2">
	<unicode hex="0044"/>
	<advance width="847"/>
	<outline>
		<contour>
			<point x="777.5" y="428" type="curve" smooth="yes"/>
			<point x="777.5" y="565"/>
			<point x="691.5" y="683"/>
			<point x="535.5" y="683" type="curve" smooth="yes"/>
			<point x="192.5" y="683" type="line" smooth="yes"/>
			<point x="174.5" y="683"/>
			<point x="162.5" y="683"/>
			<point x="162.5" y="665" type="curve" smooth="yes"/>
			<point x="162.5" y="652"/>
			<point x="171.5" y="652"/>
			<point x="192.5" y="652" type="curve" smooth="yes"/>
			<point x="196.5" y="652"/>
			<point x="214.5" y="652"/>
			<point x="230.5" y="650" type="curve" smooth="yes"/>
			<point x="247.5" y="648"/>
			<point x="254.5" y="646"/>
			<point x="254.5" y="635" type="curve" smooth="yes"/>
			<point x="254.5" y="630"/>
			<point x="253.5" y="626"/>
			<point x="250.5" y="615" type="curve" smooth="yes"/>
			<point x="115.5" y="76" type="line" smooth="yes"/>
			<point x="106.5" y="40"/>
			<point x="104.5" y="31"/>
			<point x="29.5" y="31" type="curve" smooth="yes"/>
			<point x="10.5" y="31"/>
			<point x="-0.5" y="31"/>
			<point x="-0.5" y="13" type="curve" smooth="yes"/>
			<point x="-0.5" y="0"/>
			<point x="9.5" y="0"/>
			<point x="27.5" y="0" type="curve" smooth="yes"/>
			<point x="364.5" y="0" type="line" smooth="yes"/>
			<point x="578.5" y="0"/>
			<point x="777.5" y="212"/>
		</contour>
		<contour>
			<point x="335.5" y="613" type="line" smooth="yes"/>
			<point x="344.5" y="649"/>
			<point x="346.5" y="652"/>
			<point x="388.5" y="652" type="curve" smooth="yes"/>
			<point x="501.5" y="652" type="line" smooth="yes"/>
			<point x="605.5" y="652"/>
			<point x="688.5" y="594"/>
			<point x="688.5" y="465" type="curve" smooth="yes"/>
			<point x="688.5" y="407"/>
			<point x="663.5" y="247"/>
			<point x="585.5" y="148" type="curve" smooth="yes"/>
			<point x="539.5" y="91"/>
			<point x="456.5" y="31"/>
			<point x="346.5" y="31" type="curve" smooth="yes"/>
			<point x="218.5" y="31" type="line" smooth="yes"/>
			<point x="183.5" y="31"/>
			<point x="192.5" y="39"/>
			<point x="198.5" y="64" type="curve" smooth="yes"/>
		</contour>
	</outline>
</glyph>
<glyph name="E" format="2">
	<unicode hex="0045"/>
	<advance width="1512"/>
	<outline>
		<contour>
			<point x="229" y="152" type="line" smooth="yes"/>
			<point x="211" y="80"/>
			<point x="207" y="62"/>
			<point x="57" y="62" type="curve" smooth="yes"/>
			<point x="19" y="62"/>
			<point x="-3" y="62"/>
			<point x="-3" y="26" type="curve" smooth="yes"/>
			<point x="-3" y="0"/>
			<point x="17" y="0"/>
			<point x="53" y="0" type="curve" smooth="yes"/>
			<point x="1129" y="0" type="line" smooth="yes"/>
			<point x="1151" y="0"/>
			<point x="1159" y="4"/>
			<point x="1171" y="30" type="curve"/>
			<point x="1359" y="460" type="line" smooth="yes"/>
			<point x="1365" y="476"/>
			<point x="1369" y="488"/>
			<point x="1369" y="490" type="curve" smooth="yes"/>
			<point x="1369" y="506"/>
			<point x="1357" y="516"/>
			<point x="1341" y="516" type="curve" smooth="yes"/>
			<point x="1325" y="516"/>
			<point x="1323" y="514"/>
			<point x="1301" y="468" type="curve" smooth="yes"/>
			<point x="1177" y="188"/>
			<point x="1095" y="62"/>
			<point x="763" y="62" type="curve" smooth="yes"/>
			<point x="457" y="62" type="line" smooth="yes"/>
			<point x="375" y="62"/>
			<point x="387" y="68"/>
			<point x="401" y="128" type="curve" smooth="yes"/>
			<point x="537" y="676" type="line"/>
			<point x="741" y="676" type="line" smooth="yes"/>
			<point x="883" y="676"/>
			<point x="913" y="652"/>
			<point x="913" y="586" type="curve" smooth="yes"/>
			<point x="913" y="536"/>
			<point x="893" y="484"/>
			<point x="893" y="468" type="curve" smooth="yes"/>
			<point x="893" y="466"/>
			<point x="893" y="442"/>
			<point x="919" y="442" type="curve" smooth="yes"/>
			<point x="943" y="442"/>
			<point x="945" y="456"/>
			<point x="953" y="486" type="curve" smooth="yes"/>
			<point x="1065" y="928" type="line" smooth="yes"/>
			<point x="1073" y="958"/>
			<point x="1067" y="972"/>
			<point x="1041" y="972" type="curve" smooth="yes"/>
			<point x="1019" y="972"/>
			<point x="1015" y="960"/>
			<point x="1005" y="922" type="curve" smooth="yes"/>
			<point x="965" y="764"/>
			<point x="903" y="738"/>
			<point x="743" y="738" type="curve" smooth="yes"/>
			<point x="553" y="738" type="line"/>
			<point x="583" y="862"/>
			<point x="677" y="1242"/>
			<point x="687" y="1266" type="curve" smooth="yes"/>
			<point x="699" y="1294"/>
			<point x="713" y="1298"/>
			<point x="779" y="1298" type="curve" smooth="yes"/>
			<point x="1073" y="1298" type="line" smooth="yes"/>
			<point x="1323" y="1298"/>
			<point x="1379" y="1238"/>
			<point x="1379" y="1076" type="curve" smooth="yes"/>
			<point x="1379" y="1014"/>
			<point x="1369" y="954"/>
			<point x="1369" y="940" type="curve" smooth="yes"/>
			<point x="1369" y="924"/>
			<point x="1379" y="910"/>
			<point x="1397" y="910" type="curve" smooth="yes"/>
			<point x="1421" y="910"/>
			<point x="1423" y="924"/>
			<point x="1427" y="960" type="curve" smooth="yes"/>
			<point x="1441" y="1084"/>
			<point x="1455" y="1208"/>
			<point x="1469" y="1332" type="curve" smooth="yes"/>
			<point x="1473" y="1360"/>
			<point x="1449" y="1360"/>
			<point x="1411" y="1360" type="curve" smooth="yes"/>
			<point x="381" y="1360" type="line" smooth="yes"/>
			<point x="343" y="1360"/>
			<point x="321" y="1360"/>
			<point x="321" y="1324" type="curve" smooth="yes"/>
			<point x="321" y="1298"/>
			<point x="341" y="1298"/>
			<point x="383" y="1298" type="curve" smooth="yes"/>
			<point x="391" y="1298"/>
			<point x="427" y="1298"/>
			<point x="459" y="1294" type="curve" smooth="yes"/>
			<point x="513" y="1286"/>
			<point x="511" y="1278"/>
			<point x="495" y="1216" type="curve" smooth="yes"/>
		</contour>
	</outline>
</glyph>
<glyph name="F" format="2">
	<unicode hex="0046"/>
	<advance width="656"/>
	<outline>
		<contour>
			<point x="350.8878982235" y="325" type="line"/>
			<point x="448.8878982235" y="325" type="line" smooth="yes"/>
			<point x="519.8878982235" y="325"/>
			<point x="533.8878982235" y="313"/>
			<point x="533.8878982235" y="281" type="curve" smooth="yes"/>
			<point x="533.8878982235" y="252"/>
			<point x="522.8878982235" y="226.91152"/>
			<point x="522.8878982235" y="221" type="curve" smooth="yes"/>
			<point x="522.8878982235" y="217"/>
			<point x="525.8878982235" y="208"/>
			<point x="536.8878982235" y="208" type="curve" smooth="yes"/>
			<point x="547.8878982235" y="208"/>
			<point x="548.8878982235" y="213"/>
			<point x="552.8878982235" y="229" type="curve" smooth="yes"/>
			<point x="609.8878982235" y="453" type="line" smooth="yes"/>
			<point x="610.8878982235" y="458"/>
			<point x="612.8878982235" y="473"/>
			<point x="596.8878982235" y="473" type="curve" smooth="yes"/>
			<point x="585.8878982235" y="473"/>
			<point x="583.8878982235" y="466"/>
			<point x="579.8878982235" y="449" type="curve" smooth="yes"/>
			<point x="559.8878982235" y="371"/>
			<point x="531.8878982235" y="356"/>
			<point x="450.8878982235" y="356" type="curve" smooth="yes"/>
			<point x="358.8878982235" y="356" type="line"/>
			<point x="371.8878982235" y="411"/>
			<point x="422.8878982235" y="616"/>
			<point x="426.8878982235" y="629" type="curve" smooth="yes"/>
			<point x="433.8878982235" y="649"/>
			<point x="444.8878982235" y="649"/>
			<point x="474.8878982235" y="649" type="curve" smooth="yes"/>
			<point x="612.8878982235" y="649" type="line" smooth="yes"/>
			<point x="738.8878982235" y="649"/>
			<point x="760.8878982235" y="616"/>
			<point x="760.8878982235" y="539" type="curve" smooth="yes"/>
			<point x="760.8878982235" y="505"/>
			<point x="755.8878982235" y="478"/>
			<point x="755.8878982235" y="470" type="curve" smooth="yes"/>
			<point x="755.8878982235" y="462"/>
			<point x="760.8878982235" y="455"/>
			<point x="769.8878982235" y="455" type="curve" smooth="yes"/>
			<point x="781.8878982235" y="455"/>
			<point x="782.8878982235" y="462"/>
			<point x="784.8878982235" y="480" type="curve" smooth="yes"/>
			<point x="805.8878982235" y="665" type="line" smooth="yes"/>
			<point x="807.8878982235" y="680"/>
			<point x="795.8878982235" y="680"/>
			<point x="776.8878982235" y="680" type="curve" smooth="yes"/>
			<point x="275.8878982235" y="680" type="line" smooth="yes"/>
			<point x="255.8878982235" y="680"/>
			<point x="245.8878982235" y="680"/>
			<point x="245.8878982235" y="662" type="curve" smooth="yes"/>
			<point x="245.8878982235" y="649"/>
			<point x="255.8878982235" y="649"/>
			<point x="276.8878982235" y="649" type="curve" smooth="yes"/>
			<point x="280.8878982235" y="649"/>
			<point x="298.8878982235" y="649"/>
			<point x="314.8878982235" y="647" type="curve" smooth="yes"/>
			<point x="336.8878982235" y="644"/>
			<point x="337.8878982235" y="640"/>
			<point x="337.8878982235" y="631" type="curve" smooth="yes"/>
			<point x="337.8878982235" y="628"/>
			<point x="337.8878982235" y="626"/>
			<point x="332.8878982235" y="608" type="curve" smooth="yes"/>
			<point x="199.8878982235" y="76" type="line" smooth="yes"/>
			<point x="190.8878982235" y="40"/>
			<point x="188.8878982235" y="31"/>
			<point x="113.8878982235" y="31" type="curve" smooth="yes"/>
			<point x="94.8878982235" y="31"/>
			<point x="83.8878982235" y="31"/>
			<point x="83.8878982235" y="13" type="curve" smooth="yes"/>
			<point x="83.8878982235" y="7"/>
			<point x="86.8878982235" y="0"/>
			<point x="98.8878982235" y="0" type="curve" smooth="yes"/>
			<point x="109.8878982235" y="0"/>
			<point x="154.8878982235" y="2"/>
			<point x="176.8878982235" y="2" type="curve" smooth="yes"/>
			<point x="201.8878982235" y="2"/>
			<point x="250.8878982235" y="3"/>
			<point x="302.8878982235" y="2" type="curve" smooth="yes"/>
			<point x="326.8878982235" y="2"/>
			<point x="354.8878982235" y="0"/>
			<point x="378.8878982235" y="0" type="curve" smooth="yes"/>
			<point x="386.8878982235" y="0"/>
			<point x="399.8878982235" y="0"/>
			<point x="399.8878982235" y="18" type="curve" smooth="yes"/>
			<point x="399.8878982235" y="31"/>
			<point x="389.8878982235" y="31"/>
			<point x="368.8878982235" y="31" type="curve" smooth="yes"/>
			<point x="366.8878982235" y="31"/>
			<point x="340.8878982235" y="31"/>
			<point x="316.8878982235" y="33" type="curve" smooth="yes"/>
			<point x="285.8878982235" y="36"/>
			<point x="283.8878982235" y="40"/>
			<point x="283.8878982235" y="52" type="curve" smooth="yes"/>
			<point x="283.8878982235" y="54"/>
			<point x="283.8878982235" y="60"/>
			<point x="287.8878982235" y="75" type="curve" smooth="yes"/>
		</contour>
	</outline>
</glyph>
<glyph name="G" format="2">
	<unicode hex="0047"/>
	<advance width="1608"/>
	<outline>
		<contour>
			<point x="11" y="510" type="curve" smooth="yes"/>
			<point x="11" y="196"/>
			<point x="235" y="-44"/>
			<point x="575" y="-44" type="curve" smooth="yes"/>
			<point x="803" y="-44"/>
			<point x="955" y="54"/>
			<point x="1009" y="124" type="curve"/>
			<point x="1025" y="78"/>
			<point x="1077" y="2"/>
			<point x="1101" y="2" type="curve" smooth="yes"/>
			<point x="1117" y="2"/>
			<point x="1121" y="12"/>
			<point x="1131" y="52" type="curve" smooth="yes"/>
			<point x="1183" y="260"/>
			<point x="1203" y="342"/>
			<point x="1213" y="386" type="curve" smooth="yes"/>
			<point x="1239" y="480"/>
			<point x="1239" y="484"/>
			<point x="1355" y="486" type="curve" smooth="yes"/>
			<point x="1363" y="486"/>
			<point x="1389" y="488"/>
			<point x="1389" y="522" type="curve" smooth="yes"/>
			<point x="1389" y="524"/>
			<point x="1389" y="548"/>
			<point x="1361" y="548" type="curve" smooth="yes"/>
			<point x="1345" y="548"/>
			<point x="1269" y="542"/>
			<point x="1255" y="542" type="curve" smooth="yes"/>
			<point x="1137" y="540"/>
			<point x="1047" y="544"/>
			<point x="1003" y="544" type="curve" smooth="yes"/>
			<point x="955" y="544"/>
			<point x="903" y="548"/>
			<point x="857" y="548" type="curve" smooth="yes"/>
			<point x="839" y="548"/>
			<point x="815" y="548"/>
			<point x="815" y="512" type="curve" smooth="yes"/>
			<point x="815" y="486"/>
			<point x="833" y="486"/>
			<point x="883" y="486" type="curve" smooth="yes"/>
			<point x="927" y="486"/>
			<point x="937" y="486"/>
			<point x="987" y="482" type="curve" smooth="yes"/>
			<point x="1041" y="476"/>
			<point x="1051" y="470"/>
			<point x="1051" y="444" type="curve" smooth="yes"/>
			<point x="1051" y="426"/>
			<point x="1005" y="242"/>
			<point x="993" y="212" type="curve"/>
			<point x="964" y="149"/>
			<point x="911" y="105"/>
			<point x="851" y="74" type="curve" smooth="yes"/>
			<point x="771" y="34"/>
			<point x="678" y="18"/>
			<point x="607" y="18" type="curve" smooth="yes"/>
			<point x="431" y="18"/>
			<point x="199" y="114"/>
			<point x="199" y="442" type="curve" smooth="yes"/>
			<point x="199" y="566"/>
			<point x="241" y="860"/>
			<point x="429" y="1090" type="curve" smooth="yes"/>
			<point x="547" y="1234"/>
			<point x="745" y="1348"/>
			<point x="937" y="1348" type="curve" smooth="yes"/>
			<point x="1159" y="1348"/>
			<point x="1277" y="1178"/>
			<point x="1277" y="958" type="curve" smooth="yes"/>
			<point x="1277" y="896"/>
			<point x="1271" y="876"/>
			<point x="1271" y="860" type="curve" smooth="yes"/>
			<point x="1271" y="838"/>
			<point x="1295" y="838"/>
			<point x="1301" y="838" type="curve" smooth="yes"/>
			<point x="1327" y="838"/>
			<point x="1327" y="842"/>
			<point x="1337" y="880" type="curve" smooth="yes"/>
			<point x="1461" y="1372" type="line" smooth="yes"/>
			<point x="1467" y="1394"/>
			<point x="1459" y="1410"/>
			<point x="1439" y="1410" type="curve" smooth="yes"/>
			<point x="1427" y="1410"/>
			<point x="1421" y="1404"/>
			<point x="1407" y="1388" type="curve" smooth="yes"/>
			<point x="1285" y="1254" type="line" smooth="yes"/>
			<point x="1269" y="1236"/>
			<point x="1267" y="1230"/>
			<point x="1251" y="1252" type="curve" smooth="yes"/>
			<point x="1221" y="1292"/>
			<point x="1131" y="1410"/>
			<point x="923" y="1410" type="curve" smooth="yes"/>
			<point x="465" y="1410"/>
			<point x="11" y="966"/>
		</contour>
	</outline>
</glyph>
<glyph name="H" format="2">
	<unicode hex="0048"/>
	<advance width="1700"/>
	<outline>
		<contour>
			<point x="537" y="680" type="line"/>
			<point x="1159" y="680" type="line"/>
			<point x="1143" y="610"/>
			<point x="1025" y="134"/>
			<point x="1015" y="112" type="curve" smooth="yes"/>
			<point x="1001" y="78"/>
			<point x="995" y="64"/>
			<point x="843" y="62" type="curve" smooth="yes"/>
			<point x="819" y="62"/>
			<point x="795" y="62"/>
			<point x="795" y="26" type="curve" smooth="yes"/>
			<point x="795" y="8"/>
			<point x="809" y="0"/>
			<point x="825" y="0" type="curve" smooth="yes"/>
			<point x="863" y="0"/>
			<point x="913" y="2"/>
			<point x="951" y="4" type="curve" smooth="yes"/>
			<point x="1071" y="8"/>
			<point x="1087" y="8"/>
			<point x="1207" y="4" type="curve" smooth="yes"/>
			<point x="1247" y="2"/>
			<point x="1299" y="0"/>
			<point x="1337" y="0" type="curve" smooth="yes"/>
			<point x="1353" y="0"/>
			<point x="1377" y="0"/>
			<point x="1377" y="36" type="curve" smooth="yes"/>
			<point x="1377" y="62"/>
			<point x="1357" y="62"/>
			<point x="1315" y="62" type="curve" smooth="yes"/>
			<point x="1307" y="62"/>
			<point x="1271" y="62"/>
			<point x="1239" y="66" type="curve" smooth="yes"/>
			<point x="1195" y="72"/>
			<point x="1193" y="80"/>
			<point x="1193" y="98" type="curve" smooth="yes"/>
			<point x="1193" y="116"/>
			<point x="1197" y="132"/>
			<point x="1201" y="146" type="curve" smooth="yes"/>
			<point x="1469" y="1212" type="line" smooth="yes"/>
			<point x="1487" y="1286"/>
			<point x="1493" y="1304"/>
			<point x="1649" y="1304" type="curve" smooth="yes"/>
			<point x="1681" y="1304"/>
			<point x="1703" y="1304"/>
			<point x="1703" y="1340" type="curve" smooth="yes"/>
			<point x="1703" y="1358"/>
			<point x="1689" y="1366"/>
			<point x="1673" y="1366" type="curve"/>
			<point x="1631" y="1365"/>
			<point x="1589" y="1363"/>
			<point x="1547" y="1362" type="curve" smooth="yes"/>
			<point x="1427" y="1358"/>
			<point x="1411" y="1358"/>
			<point x="1291" y="1362" type="curve" smooth="yes"/>
			<point x="1251" y="1364"/>
			<point x="1199" y="1366"/>
			<point x="1161" y="1366" type="curve" smooth="yes"/>
			<point x="1149" y="1366"/>
			<point x="1121" y="1366"/>
			<point x="1121" y="1330" type="curve" smooth="yes"/>
			<point x="1121" y="1304"/>
			<point x="1141" y="1304"/>
			<point x="1181" y="1304" type="curve" smooth="yes"/>
			<point x="1189" y="1304"/>
			<point x="1225" y="1304"/>
			<point x="1257" y="1300" type="curve" smooth="yes"/>
			<point x="1295" y="1296"/>
			<point x="1305" y="1290"/>
			<point x="1305" y="1270" type="curve" smooth="yes"/>
			<point x="1305" y="1260"/>
			<point x="1303" y="1254"/>
			<point x="1297" y="1230" type="curve" smooth="yes"/>
			<point x="1175" y="742" type="line"/>
			<point x="553" y="742" type="line"/>
			<point x="671" y="1212" type="line" smooth="yes"/>
			<point x="689" y="1288"/>
			<point x="695" y="1304"/>
			<point x="851" y="1304" type="curve" smooth="yes"/>
			<point x="883" y="1304"/>
			<point x="905" y="1304"/>
			<point x="905" y="1340" type="curve" smooth="yes"/>
			<point x="905" y="1358"/>
			<point x="891" y="1366"/>
			<point x="875" y="1366" type="curve"/>
			<point x="833" y="1365"/>
			<point x="791" y="1363"/>
			<point x="749" y="1362" type="curve" smooth="yes"/>
			<point x="629" y="1358"/>
			<point x="613" y="1358"/>
			<point x="493" y="1362" type="curve" smooth="yes"/>
			<point x="453" y="1364"/>
			<point x="401" y="1366"/>
			<point x="363" y="1366" type="curve" smooth="yes"/>
			<point x="351" y="1366"/>
			<point x="323" y="1366"/>
			<point x="323" y="1330" type="curve" smooth="yes"/>
			<point x="323" y="1304"/>
			<point x="343" y="1304"/>
			<point x="383" y="1304" type="curve" smooth="yes"/>
			<point x="391" y="1304"/>
			<point x="427" y="1304"/>
			<point x="459" y="1300" type="curve" smooth="yes"/>
			<point x="497" y="1296"/>
			<point x="507" y="1290"/>
			<point x="507" y="1270" type="curve" smooth="yes"/>
			<point x="507" y="1260"/>
			<point x="505" y="1252"/>
			<point x="499" y="1230" type="curve" smooth="yes"/>
			<point x="229" y="152" type="line" smooth="yes"/>
			<point x="211" y="80"/>
			<point x="207" y="62"/>
			<point x="57" y="62" type="curve" smooth="yes"/>
			<point x="19" y="62"/>
			<point x="-3" y="62"/>
			<point x="-3" y="26" type="curve" smooth="yes"/>
			<point x="-3" y="8"/>
			<point x="11" y="0"/>
			<point x="27" y="0" type="curve" smooth="yes"/>
			<point x="65" y="0"/>
			<point x="115" y="2"/>
			<point x="153" y="4" type="curve" smooth="yes"/>
			<point x="273" y="8"/>
			<point x="289" y="8"/>
			<point x="409" y="4" type="curve" smooth="yes"/>
			<point x="449" y="2"/>
			<point x="501" y="0"/>
			<point x="539" y="0" type="curve" smooth="yes"/>
			<point x="555" y="0"/>
			<point x="579" y="0"/>
			<point x="579" y="36" type="curve" smooth="yes"/>
			<point x="579" y="62"/>
			<point x="559" y="62"/>
			<point x="517" y="62" type="curve" smooth="yes"/>
			<point x="509" y="62"/>
			<point x="473" y="62"/>
			<point x="441" y="66" type="curve" smooth="yes"/>
			<point x="397" y="72"/>
			<point x="395" y="80"/>
			<point x="395" y="98" type="curve" smooth="yes"/>
			<point x="395" y="104"/>
			<point x="395" y="108"/>
			<point x="405" y="144" type="curve" smooth="yes"/>
		</contour>
	</outline>
</glyph>
<glyph name="I" format="2">
  <advance width="449"/>
  <unicode hex="0049"/>
  <outline>
    <contour>
      <point x="199.8878982235275" y="76.0" type="line" smooth="yes"/>
      <point x="190.8878982235275" y="41.0"/>
      <point x="188.8878982235275" y="31.0"/>
      <point x="111.8878982235275" y="31.0" type="curve" smooth="yes"/>
      <point x="89.8878982235275" y="31.0"/>
      <point x="78.8878982235275" y="31.0"/>
      <point x="78.8878982235275" y="13.0" type="curve" smooth="yes"/>
      <point x="78.8878982235275" y="8.0"/>
      <point x="80.8878982235275" y="0.0"/>
      <point x="93.8878982235275" y="0.0" type="curve" smooth="yes"/>
      <point x="113.8878982235275" y="0.0"/>
      <point x="135.8878982235275" y="2.0"/>
      <point x="156.8878982235275" y="2.0" type="curve" smooth="yes"/>
      <point x="202.8878982235275" y="3.0"/>
      <point x="248.8878982235275" y="3.0"/>
      <point x="274.8878982235275" y="2.0" type="curve" smooth="yes"/>
      <point x="305.8878982235275" y="1.0"/>
      <point x="339.8878982235275" y="0.0"/>
      <point x="359.8878982235275" y="0.0" type="curve" smooth="yes"/>
      <point x="366.8878982235275" y="0.0"/>
      <point x="379.8878982235275" y="0.0"/>
      <point x="379.8878982235275" y="18.0" type="curve" smooth="yes"/>
      <point x="379.8878982235275" y="31.0"/>
      <point x="369.8878982235275" y="31.0"/>
      <point x="349.8878982235275" y="31.0" type="curve" smooth="yes"/>
      <point x="337.4102182235275" y="31.0"/>
      <point x="325.9029208299275" y="31.0"/>
      <point x="316.0740834486275" y="31.6372696653" type="curve" smooth="yes"/>
      <point x="295.9698066219275" y="32.9407652128"/>
      <point x="282.8878982235275" y="36.91048"/>
      <point x="282.8878982235275" y="49.0" type="curve" smooth="yes"/>
      <point x="282.8878982235275" y="56.0"/>
      <point x="282.8878982235275" y="58.0"/>
      <point x="286.8878982235275" y="72.0" type="curve" smooth="yes"/>
      <point x="420.8878982235275" y="605.0" type="line" smooth="yes"/>
      <point x="430.8878982235275" y="643.0"/>
      <point x="432.8878982235275" y="652.0"/>
      <point x="513.8878982235275" y="652.0" type="curve" smooth="yes"/>
      <point x="532.8878982235275" y="652.0"/>
      <point x="542.8878982235275" y="652.0"/>
      <point x="542.8878982235275" y="670.0" type="curve" smooth="yes"/>
      <point x="542.8878982235275" y="681.0"/>
      <point x="532.8878982235275" y="683.0"/>
      <point x="526.8878982235275" y="683.0" type="curve" smooth="yes"/>
      <point x="506.8878982235275" y="683.0"/>
      <point x="483.8878982235275" y="681.0"/>
      <point x="463.8878982235275" y="681.0" type="curve" smooth="yes"/>
      <point x="404.8878982235275" y="680.0"/>
      <point x="376.8878982235275" y="681.0"/>
      <point x="346.8878982235275" y="681.0" type="curve" smooth="yes"/>
      <point x="315.8878982235275" y="681.0"/>
      <point x="281.8878982235275" y="683.0"/>
      <point x="261.8878982235275" y="683.0" type="curve" smooth="yes"/>
      <point x="255.8878982235275" y="683.0"/>
      <point x="241.8878982235275" y="683.0"/>
      <point x="241.8878982235275" y="665.0" type="curve" smooth="yes"/>
      <point x="241.8878982235275" y="652.0"/>
      <point x="251.8878982235275" y="652.0"/>
      <point x="271.8878982235275" y="652.0" type="curve" smooth="yes"/>
      <point x="285.08789822352753" y="652.0"/>
      <point x="297.8878982235275" y="652.0"/>
      <point x="311.7038982235275" y="650.272" type="curve" smooth="yes"/>
      <point x="323.8878982235275" y="649.0"/>
      <point x="331.8878982235275" y="646.0"/>
      <point x="336.8878982235275" y="644.0" type="curve"/>
      <point x="338.8878982235275" y="636.0"/>
      <point x="336.8878982235275" y="620.0"/>
      <point x="335.8878982235275" y="616.0" type="curve" smooth="yes"/>
    </contour>
  </outline>
</glyph>
<glyph name="J" format="2">
	<unicode hex="004A"/>
	<advance width="566"/>
	<outline>
		<contour>
			<point x="249.8878982235" y="-22" type="curve" smooth="yes"/>
			<point x="345.8878982235" y="-22"/>
			<point x="449.8878982235" y="44"/>
			<point x="474.8878982235" y="143" type="curve" smooth="yes"/>
			<point x="591.8878982235" y="610" type="line" smooth="yes"/>
			<point x="599.8878982235" y="644"/>
			<point x="601.8878982235" y="652"/>
			<point x="657.8878982235" y="652" type="curve" smooth="yes"/>
			<point x="669.8878982235" y="652"/>
			<point x="682.8878982235" y="652"/>
			<point x="682.8878982235" y="670" type="curve" smooth="yes"/>
			<point x="682.8878982235" y="671"/>
			<point x="682.8878982235" y="683"/>
			<point x="667.8878982235" y="683" type="curve" smooth="yes"/>
			<point x="660.8878982235" y="683"/>
			<point x="619.8878982235" y="681"/>
			<point x="613.8878982235" y="681" type="curve" smooth="yes"/>
			<point x="598.8878982235" y="681"/>
			<point x="524.8878982235" y="681"/>
			<point x="480.8878982235" y="681" type="curve" smooth="yes"/>
			<point x="456.8878982235" y="681"/>
			<point x="432.8878982235" y="683"/>
			<point x="409.8878982235" y="683" type="curve" smooth="yes"/>
			<point x="401.8878982235" y="683"/>
			<point x="388.8878982235" y="683"/>
			<point x="388.8878982235" y="665" type="curve" smooth="yes"/>
			<point x="388.8878982235" y="652"/>
			<point x="398.8878982235" y="652"/>
			<point x="422.8878982235" y="652" type="curve" smooth="yes"/>
			<point x="427.8878982235" y="652"/>
			<point x="454.8878982235" y="652"/>
			<point x="479.8878982235" y="649" type="curve" smooth="yes"/>
			<point x="503.8878982235" y="647"/>
			<point x="510.8878982235" y="645"/>
			<point x="510.8878982235" y="630" type="curve" smooth="yes"/>
			<point x="510.8878982235" y="623"/>
			<point x="508.8878982235" y="617"/>
			<point x="507.8878982235" y="612" type="curve" smooth="yes"/>
			<point x="468.9268982235" y="457.155"/>
			<point x="429.9658982235" y="302.31"/>
			<point x="390.8878982235" y="147" type="curve" smooth="yes"/>
			<point x="367.8878982235" y="56"/>
			<point x="299.8878982235" y="3"/>
			<point x="247.8878982235" y="3" type="curve" smooth="yes"/>
			<point x="214.8878982235" y="3"/>
			<point x="165.8878982235" y="17"/>
			<point x="150.8878982235" y="62" type="curve"/>
			<point x="195.8878982235" y="55"/>
			<point x="226.8878982235" y="90.925"/>
			<point x="226.8878982235" y="125" type="curve" smooth="yes"/>
			<point x="226.8878982235" y="151"/>
			<point x="206.8878982235" y="167"/>
			<point x="181.8878982235" y="167" type="curve" smooth="yes"/>
			<point x="159.8878982235" y="167"/>
			<point x="115.8878982235" y="151"/>
			<point x="115.8878982235" y="88" type="curve" smooth="yes"/>
			<point x="115.8878982235" y="23"/>
			<point x="171.8878982235" y="-22"/>
		</contour>
	</outline>
</glyph>
<glyph name="K" format="2">
	<unicode hex="004B"/>
	<advance width="1740"/>
	<outline>
		<contour>
			<point x="511" y="574" type="line"/>
			<point x="671" y="1212" type="line" smooth="yes"/>
			<point x="689" y="1288"/>
			<point x="695" y="1304"/>
			<point x="851" y="1304" type="curve" smooth="yes"/>
			<point x="883" y="1304"/>
			<point x="905" y="1304"/>
			<point x="905" y="1340" type="curve" smooth="yes"/>
			<point x="905" y="1358"/>
			<point x="891" y="1366"/>
			<point x="875" y="1366" type="curve" smooth="yes"/>
			<point x="837" y="1366"/>
			<point x="789" y="1364"/>
			<point x="749" y="1362" type="curve" smooth="yes"/>
			<point x="639" y="1358"/>
			<point x="591" y="1358"/>
			<point x="493" y="1362" type="curve" smooth="yes"/>
			<point x="453" y="1364"/>
			<point x="401" y="1366"/>
			<point x="363" y="1366" type="curve" smooth="yes"/>
			<point x="351" y="1366"/>
			<point x="323" y="1366"/>
			<point x="323" y="1330" type="curve" smooth="yes"/>
			<point x="323" y="1304"/>
			<point x="341" y="1304"/>
			<point x="383" y="1304" type="curve" smooth="yes"/>
			<point x="391" y="1304"/>
			<point x="427" y="1304"/>
			<point x="459" y="1300" type="curve" smooth="yes"/>
			<point x="493" y="1296"/>
			<point x="507" y="1292"/>
			<point x="507" y="1270" type="curve" smooth="yes"/>
			<point x="507" y="1260"/>
			<point x="505" y="1252"/>
			<point x="499" y="1230" type="curve" smooth="yes"/>
			<point x="229" y="152" type="line" smooth="yes"/>
			<point x="211" y="80"/>
			<point x="207" y="62"/>
			<point x="57" y="62" type="curve" smooth="yes"/>
			<point x="19" y="62"/>
			<point x="-3" y="62"/>
			<point x="-3" y="26" type="curve" smooth="yes"/>
			<point x="-3" y="4"/>
			<point x="13" y="0"/>
			<point x="27" y="0" type="curve" smooth="yes"/>
			<point x="65" y="0"/>
			<point x="115" y="2"/>
			<point x="153" y="4" type="curve" smooth="yes"/>
			<point x="253" y="8"/>
			<point x="291" y="6"/>
			<point x="389" y="4" type="curve" smooth="yes"/>
			<point x="449" y="4"/>
			<point x="501" y="0"/>
			<point x="539" y="0" type="curve" smooth="yes"/>
			<point x="553" y="0"/>
			<point x="579" y="0"/>
			<point x="579" y="36" type="curve" smooth="yes"/>
			<point x="579" y="62"/>
			<point x="559" y="62"/>
			<point x="517" y="62" type="curve" smooth="yes"/>
			<point x="509" y="62"/>
			<point x="473" y="62"/>
			<point x="441" y="66" type="curve" smooth="yes"/>
			<point x="397" y="72"/>
			<point x="395" y="80"/>
			<point x="395" y="98" type="curve" smooth="yes"/>
			<point x="395" y="102"/>
			<point x="395" y="108"/>
			<point x="403" y="140" type="curve" smooth="yes"/>
			<point x="433" y="259"/>
			<point x="463" y="378"/>
			<point x="493" y="498" type="curve"/>
			<point x="493" y="498"/>
			<point x="493" y="498"/>
			<point x="493" y="498" type="curve"/>
			<point x="799" y="728" type="line"/>
			<point x="799" y="728"/>
			<point x="799" y="728"/>
			<point x="799" y="728" type="curve"/>
			<point x="884" y="542"/>
			<point x="969" y="355"/>
			<point x="1055" y="168" type="curve" smooth="yes"/>
			<point x="1067" y="142"/>
			<point x="1069" y="134"/>
			<point x="1069" y="122" type="curve" smooth="yes"/>
			<point x="1069" y="64"/>
			<point x="985" y="62"/>
			<point x="969" y="62" type="curve" smooth="yes"/>
			<point x="945" y="62"/>
			<point x="921" y="62"/>
			<point x="921" y="26" type="curve" smooth="yes"/>
			<point x="921" y="6"/>
			<point x="939" y="0"/>
			<point x="953" y="0" type="curve" smooth="yes"/>
			<point x="991" y="0"/>
			<point x="1031" y="4"/>
			<point x="1069" y="4" type="curve" smooth="yes"/>
			<point x="1151" y="6"/>
			<point x="1223" y="6"/>
			<point x="1293" y="4" type="curve" smooth="yes"/>
			<point x="1325" y="4"/>
			<point x="1359" y="2"/>
			<point x="1391" y="0" type="curve" smooth="yes"/>
			<point x="1399" y="0"/>
			<point x="1427" y="0"/>
			<point x="1427" y="36" type="curve" smooth="yes"/>
			<point x="1427" y="62"/>
			<point x="1403" y="62"/>
			<point x="1391" y="62" type="curve" smooth="yes"/>
			<point x="1321" y="64"/>
			<point x="1287" y="72"/>
			<point x="1253" y="146" type="curve" smooth="yes"/>
			<point x="941" y="834" type="line"/>
			<point x="941" y="834"/>
			<point x="941" y="834"/>
			<point x="941" y="834" type="curve"/>
			<point x="941" y="834"/>
			<point x="941" y="834"/>
			<point x="941" y="834" type="curve"/>
			<point x="1076" y="936"/>
			<point x="1211" y="1038"/>
			<point x="1347" y="1140" type="curve" smooth="yes"/>
			<point x="1473" y="1236"/>
			<point x="1571" y="1292"/>
			<point x="1689" y="1304" type="curve" smooth="yes"/>
			<point x="1703" y="1306"/>
			<point x="1725" y="1308"/>
			<point x="1725" y="1340" type="curve" smooth="yes"/>
			<point x="1725" y="1350"/>
			<point x="1719" y="1366"/>
			<point x="1701" y="1366" type="curve" smooth="yes"/>
			<point x="1685" y="1366"/>
			<point x="1647" y="1360"/>
			<point x="1567" y="1360" type="curve" smooth="yes"/>
			<point x="1541" y="1360"/>
			<point x="1501" y="1360"/>
			<point x="1475" y="1362" type="curve" smooth="yes"/>
			<point x="1429" y="1364"/>
			<point x="1381" y="1366"/>
			<point x="1337" y="1366" type="curve" smooth="yes"/>
			<point x="1325" y="1366"/>
			<point x="1299" y="1366"/>
			<point x="1299" y="1330" type="curve" smooth="yes"/>
			<point x="1299" y="1306"/>
			<point x="1321" y="1304"/>
			<point x="1327" y="1304" type="curve" smooth="yes"/>
			<point x="1345" y="1302"/>
			<point x="1383" y="1300"/>
			<point x="1383" y="1268" type="curve" smooth="yes"/>
			<point x="1383" y="1240"/>
			<point x="1347" y="1200"/>
			<point x="1307" y="1170" type="curve" smooth="yes"/>
		</contour>
	</outline>
</glyph>
<glyph name="L" format="2">
	<unicode hex="004C"/>
	<advance width="699"/>
	<outline>
		<contour>
			<point x="114.5" y="76" type="line" smooth="yes"/>
			<point x="105.5" y="40"/>
			<point x="103.5" y="31"/>
			<point x="28.5" y="31" type="curve" smooth="yes"/>
			<point x="9.5" y="31"/>
			<point x="-1.5" y="31"/>
			<point x="-1.5" y="13" type="curve" smooth="yes"/>
			<point x="-1.5" y="0"/>
			<point x="8.5" y="0"/>
			<point x="26.5" y="0" type="curve" smooth="yes"/>
			<point x="498.5" y="0" type="line" smooth="yes"/>
			<point x="522.5" y="0"/>
			<point x="523.5" y="1"/>
			<point x="531.5" y="22" type="curve" smooth="yes"/>
			<point x="607.5" y="225" type="line" smooth="yes"/>
			<point x="611.5" y="235"/>
			<point x="613.5" y="243"/>
			<point x="613.5" y="245" type="curve" smooth="yes"/>
			<point x="613.5" y="253"/>
			<point x="606.5" y="258"/>
			<point x="599.5" y="258" type="curve" smooth="yes"/>
			<point x="589.5" y="258"/>
			<point x="588.5" y="254"/>
			<point x="580.5" y="234" type="curve" smooth="yes"/>
			<point x="546.5" y="145"/>
			<point x="502.5" y="31"/>
			<point x="327.5" y="31" type="curve" smooth="yes"/>
			<point x="228.5" y="31" type="line" smooth="yes"/>
			<point x="205.5" y="31"/>
			<point x="195.5" y="31"/>
			<point x="195.5" y="41" type="curve" smooth="yes"/>
			<point x="195.5" y="44"/>
			<point x="195.5" y="46"/>
			<point x="200.5" y="64" type="curve" smooth="yes"/>
			<point x="335.5" y="604" type="line" smooth="yes"/>
			<point x="344.5" y="642"/>
			<point x="347.5" y="652"/>
			<point x="440.5" y="652" type="curve" smooth="yes"/>
			<point x="468.5" y="652"/>
			<point x="477.5" y="652"/>
			<point x="477.5" y="670" type="curve" smooth="yes"/>
			<point x="477.5" y="683"/>
			<point x="464.5" y="683"/>
			<point x="461.5" y="683" type="curve" smooth="yes"/>
			<point x="438.5" y="683"/>
			<point x="412.5" y="682"/>
			<point x="388.5" y="681" type="curve" smooth="yes"/>
			<point x="341.5" y="680"/>
			<point x="292.5" y="679"/>
			<point x="247.5" y="681" type="curve" smooth="yes"/>
			<point x="229.5" y="682"/>
			<point x="198.5" y="683"/>
			<point x="181.5" y="683" type="curve" smooth="yes"/>
			<point x="175.5" y="683"/>
			<point x="161.5" y="683"/>
			<point x="161.5" y="665" type="curve" smooth="yes"/>
			<point x="161.5" y="652"/>
			<point x="170.5" y="652"/>
			<point x="191.5" y="652" type="curve" smooth="yes"/>
			<point x="195.5" y="652"/>
			<point x="213.5" y="652"/>
			<point x="229.5" y="650" type="curve" smooth="yes"/>
			<point x="246.5" y="648"/>
			<point x="253.5" y="646"/>
			<point x="253.5" y="635" type="curve" smooth="yes"/>
			<point x="253.5" y="631"/>
			<point x="252.5" y="626"/>
			<point x="249.5" y="615" type="curve" smooth="yes"/>
		</contour>
	</outline>
</glyph>
<glyph name="M" format="2">
  <advance width="992"/>
  <unicode hex="004D"/>
  <outline>
    <contour>
      <point x="211.8878982235275" y="106.0" type="line" smooth="yes"/>
      <point x="198.8878982235275" y="54.0"/>
      <point x="170.8878982235275" y="34.0"/>
      <point x="104.8878982235275" y="31.0" type="curve"/>
      <point x="101.8878982235275" y="31.0"/>
      <point x="87.8878982235275" y="30.0"/>
      <point x="87.8878982235275" y="13.0" type="curve" smooth="yes"/>
      <point x="87.8878982235275" y="11.0"/>
      <point x="87.8878982235275" y="0.0"/>
      <point x="101.8878982235275" y="0.0" type="curve" smooth="yes"/>
      <point x="128.8878982235275" y="0.0"/>
      <point x="143.8618682235275" y="3.0"/>
      <point x="201.8878982235275" y="3.0" type="curve" smooth="yes"/>
      <point x="253.8878982235275" y="3.0"/>
      <point x="276.8878982235275" y="0.0"/>
      <point x="304.8878982235275" y="0.0" type="curve" smooth="yes"/>
      <point x="309.8878982235275" y="0.0"/>
      <point x="322.8878982235275" y="0.0"/>
      <point x="322.8878982235275" y="18.0" type="curve" smooth="yes"/>
      <point x="322.8878982235275" y="30.0"/>
      <point x="311.8878982235275" y="31.0"/>
      <point x="302.8878982235275" y="31.0" type="curve" smooth="yes"/>
      <point x="255.8878982235275" y="32.0"/>
      <point x="237.8878982235275" y="47.0"/>
      <point x="237.8878982235275" y="74.0" type="curve" smooth="yes"/>
      <point x="237.8878982235275" y="81.0"/>
      <point x="238.8878982235275" y="82.0"/>
      <point x="241.8878982235275" y="96.0" type="curve" smooth="yes"/>
      <point x="376.8878982235275" y="640.0" type="line"/>
      <point x="377.8878982235275" y="640.0" type="line"/>
      <point x="468.8878982235275" y="26.0" type="line" smooth="yes"/>
      <point x="470.8878982235275" y="10.0"/>
      <point x="472.8878982235275" y="0.0"/>
      <point x="485.8878982235275" y="0.0" type="curve" smooth="yes"/>
      <point x="497.8878982235275" y="0.0"/>
      <point x="503.8878982235275" y="10.0"/>
      <point x="509.8878982235275" y="19.0" type="curve" smooth="yes"/>
      <point x="916.8878982235275" y="647.0" type="line"/>
      <point x="917.8878982235275" y="647.0" type="line"/>
      <point x="774.8878982235275" y="76.0" type="line" smooth="yes"/>
      <point x="765.8878982235275" y="40.0"/>
      <point x="763.8878982235275" y="31.0"/>
      <point x="688.8878982235275" y="31.0" type="curve" smooth="yes"/>
      <point x="670.8878982235275" y="31.0"/>
      <point x="658.8878982235275" y="31.0"/>
      <point x="658.8878982235275" y="13.0" type="curve" smooth="yes"/>
      <point x="658.8878982235275" y="4.0"/>
      <point x="665.8878982235275" y="0.0"/>
      <point x="673.8878982235275" y="0.0" type="curve" smooth="yes"/>
      <point x="695.8878982235275" y="0.0"/>
      <point x="724.8878982235275" y="2.0"/>
      <point x="736.8878982235275" y="2.0" type="curve" smooth="yes"/>
      <point x="763.8878982235275" y="3.0"/>
      <point x="809.8878982235275" y="3.0"/>
      <point x="860.8878982235275" y="2.0" type="curve" smooth="yes"/>
      <point x="880.8878982235275" y="2.0"/>
      <point x="902.8878982235275" y="0.0"/>
      <point x="921.8878982235275" y="0.0" type="curve" smooth="yes"/>
      <point x="927.8878982235275" y="0.0"/>
      <point x="940.8878982235275" y="0.0"/>
      <point x="940.8878982235275" y="18.0" type="curve" smooth="yes"/>
      <point x="940.8878982235275" y="31.0"/>
      <point x="930.8878982235275" y="31.0"/>
      <point x="909.8878982235275" y="31.0" type="curve" smooth="yes"/>
      <point x="905.8878982235275" y="31.0"/>
      <point x="887.8878982235275" y="31.0"/>
      <point x="871.8878982235275" y="33.0" type="curve" smooth="yes"/>
      <point x="849.8878982235275" y="36.0"/>
      <point x="848.8878982235275" y="40.0"/>
      <point x="848.8878982235275" y="49.0" type="curve" smooth="yes"/>
      <point x="848.8878982235275" y="58.0"/>
      <point x="850.8878982235275" y="66.0"/>
      <point x="852.8878982235275" y="73.0" type="curve" smooth="yes"/>
      <point x="986.8878982235275" y="606.0" type="line" smooth="yes"/>
      <point x="995.8878982235275" y="643.0"/>
      <point x="998.8878982235275" y="652.0"/>
      <point x="1076.8878982235276" y="652.0" type="curve" smooth="yes"/>
      <point x="1092.8878982235276" y="652.0"/>
      <point x="1103.8878982235276" y="652.0"/>
      <point x="1103.8878982235276" y="670.0" type="curve" smooth="yes"/>
      <point x="1103.8878982235276" y="683.0"/>
      <point x="1093.8878982235276" y="683.0"/>
      <point x="1074.8878982235276" y="683.0" type="curve" smooth="yes"/>
      <point x="943.8878982235275" y="683.0" type="line" smooth="yes"/>
      <point x="918.8878982235275" y="683.0"/>
      <point x="914.8878982235275" y="683.0"/>
      <point x="902.8878982235275" y="664.0" type="curve" smooth="yes"/>
      <point x="533.8878982235275" y="94.0" type="line"/>
      <point x="450.8878982235275" y="657.0" type="line" smooth="yes"/>
      <point x="446.8878982235275" y="683.0"/>
      <point x="445.8878982235275" y="683.0"/>
      <point x="417.8878982235275" y="683.0" type="curve" smooth="yes"/>
      <point x="280.8878982235275" y="683.0" type="line" smooth="yes"/>
      <point x="262.8878982235275" y="683.0"/>
      <point x="250.8878982235275" y="683.0"/>
      <point x="250.8878982235275" y="665.0" type="curve" smooth="yes"/>
      <point x="250.8878982235275" y="652.0"/>
      <point x="260.8878982235275" y="652.0"/>
      <point x="280.8878982235275" y="652.0" type="curve" smooth="yes"/>
      <point x="284.8878982235275" y="652.0"/>
      <point x="302.8878982235275" y="652.0"/>
      <point x="318.8878982235275" y="650.0" type="curve" smooth="yes"/>
      <point x="337.8878982235275" y="648.0"/>
      <point x="342.8878982235275" y="645.0"/>
      <point x="342.8878982235275" y="635.0" type="curve" smooth="yes"/>
      <point x="342.8878982235275" y="630.0"/>
      <point x="341.8878982235275" y="626.0"/>
      <point x="338.8878982235275" y="615.0" type="curve" smooth="yes"/>
    </contour>
  </outline>
</glyph>
<glyph name="N" format="2">
  <advance width="821"/>
  <unicode hex="004E"/>
  <outline>
    <contour>
      <point x="207.8878982235275" y="106.0" type="line" smooth="yes"/>
      <point x="195.8878982235275" y="57.0"/>
      <point x="170.8878982235275" y="34.0"/>
      <point x="100.8878982235275" y="31.0" type="curve" smooth="yes"/>
      <point x="96.8878982235275" y="31.0"/>
      <point x="83.8878982235275" y="30.0"/>
      <point x="83.8878982235275" y="13.0" type="curve" smooth="yes"/>
      <point x="83.8878982235275" y="11.0"/>
      <point x="83.8878982235275" y="0.0"/>
      <point x="97.8878982235275" y="0.0" type="curve" smooth="yes"/>
      <point x="124.8878982235275" y="0.0"/>
      <point x="148.8878982235275" y="3.0"/>
      <point x="197.8878982235275" y="3.0" type="curve" smooth="yes"/>
      <point x="229.8878982235275" y="3.0"/>
      <point x="262.8878982235275" y="2.0"/>
      <point x="300.8878982235275" y="0.0" type="curve" smooth="yes"/>
      <point x="305.8878982235275" y="0.0"/>
      <point x="318.8878982235275" y="0.0"/>
      <point x="318.8878982235275" y="18.0" type="curve" smooth="yes"/>
      <point x="318.8878982235275" y="30.0"/>
      <point x="307.8878982235275" y="31.0"/>
      <point x="298.8878982235275" y="31.0" type="curve" smooth="yes"/>
      <point x="251.8878982235275" y="32.0"/>
      <point x="233.8878982235275" y="47.0"/>
      <point x="233.8878982235275" y="74.0" type="curve" smooth="yes"/>
      <point x="233.8878982235275" y="78.0"/>
      <point x="234.8878982235275" y="82.0"/>
      <point x="237.8878982235275" y="96.0" type="curve" smooth="yes"/>
      <point x="368.8878982235275" y="623.0" type="line"/>
      <point x="368.8878982235275" y="623.0"/>
      <point x="368.8878982235275" y="623.0"/>
      <point x="368.8878982235275" y="623.0" type="curve"/>
      <point x="636.8878982235275" y="18.0" type="line" smooth="yes"/>
      <point x="643.8878982235275" y="2.0"/>
      <point x="644.8878982235275" y="0.0"/>
      <point x="654.8878982235275" y="0.0" type="curve" smooth="yes"/>
      <point x="667.8878982235275" y="0.0"/>
      <point x="668.8878982235275" y="4.0"/>
      <point x="672.8878982235275" y="21.0" type="curve" smooth="yes"/>
      <point x="811.8878982235275" y="575.0" type="line" smooth="yes"/>
      <point x="821.8878982235275" y="616.0"/>
      <point x="840.8878982235275" y="649.0"/>
      <point x="918.8878982235275" y="652.0" type="curve" smooth="yes"/>
      <point x="924.8878982235275" y="652.0"/>
      <point x="936.8878982235275" y="653.0"/>
      <point x="936.8878982235275" y="670.0" type="curve" smooth="yes"/>
      <point x="936.8878982235275" y="678.0"/>
      <point x="930.8878982235275" y="683.0"/>
      <point x="922.8878982235275" y="683.0" type="curve" smooth="yes"/>
      <point x="900.8878982235275" y="683.0"/>
      <point x="844.8878982235275" y="680.0"/>
      <point x="822.8878982235275" y="680.0" type="curve" smooth="yes"/>
      <point x="777.8878982235275" y="680.0"/>
      <point x="736.8878982235275" y="683.0"/>
      <point x="719.8878982235275" y="683.0" type="curve" smooth="yes"/>
      <point x="715.8878982235275" y="683.0"/>
      <point x="701.8878982235275" y="683.0"/>
      <point x="701.8878982235275" y="665.0" type="curve" smooth="yes"/>
      <point x="701.8878982235275" y="652.0"/>
      <point x="713.8878982235275" y="652.0"/>
      <point x="719.8878982235275" y="652.0" type="curve" smooth="yes"/>
      <point x="757.8878982235275" y="651.0"/>
      <point x="786.8878982235275" y="642.0"/>
      <point x="786.8878982235275" y="609.0" type="curve" smooth="yes"/>
      <point x="786.8878982235275" y="604.0"/>
      <point x="784.8878982235275" y="594.0"/>
      <point x="783.8878982235275" y="589.0" type="curve" smooth="yes"/>
      <point x="671.8878982235275" y="144.0" type="line"/>
      <point x="442.8878982235275" y="663.0" type="line" smooth="yes"/>
      <point x="433.8878982235275" y="682.0"/>
      <point x="432.8878982235275" y="683.0"/>
      <point x="409.8878982235275" y="683.0" type="curve" smooth="yes"/>
      <point x="276.8878982235275" y="683.0" type="line" smooth="yes"/>
      <point x="257.8878982235275" y="683.0"/>
      <point x="246.8878982235275" y="683.0"/>
      <point x="246.8878982235275" y="665.0" type="curve" smooth="yes"/>
      <point x="246.8878982235275" y="652.0"/>
      <point x="256.8878982235275" y="652.0"/>
      <point x="276.8878982235275" y="652.0" type="curve" smooth="yes"/>
      <point x="281.8878982235275" y="652.0"/>
      <point x="318.8878982235275" y="652.0"/>
      <point x="342.8878982235275" y="646.0" type="curve"/>
      <point x="342.8878982235275" y="646.0"/>
      <point x="342.8878982235275" y="646.0"/>
      <point x="342.8878982235275" y="646.0" type="curve"/>
    </contour>
  </outline>
</glyph>
<glyph name="O" format="2">
	<unicode hex="004F"/>
	<advance width="1564"/>
	<outline>
		<contour>
			<point x="1425" y="866" type="curve" smooth="yes"/>
			<point x="1425" y="1182"/>
			<point x="1213" y="1410"/>
			<point x="899" y="1410" type="curve" smooth="yes"/>
			<point x="451" y="1410"/>
			<point x="9" y="950"/>
			<point x="9" y="494" type="curve" smooth="yes"/>
			<point x="9" y="166"/>
			<point x="235" y="-44"/>
			<point x="537" y="-44" type="curve" smooth="yes"/>
			<point x="983" y="-44"/>
			<point x="1425" y="402"/>
		</contour>
		<contour>
			<point x="551" y="16" type="curve" smooth="yes"/>
			<point x="359" y="16"/>
			<point x="201" y="162"/>
			<point x="201" y="444" type="curve" smooth="yes"/>
			<point x="201" y="548"/>
			<point x="235" y="844"/>
			<point x="401" y="1072" type="curve" smooth="yes"/>
			<point x="545" y="1268"/>
			<point x="737" y="1354"/>
			<point x="885" y="1354" type="curve" smooth="yes"/>
			<point x="1081" y="1354"/>
			<point x="1243" y="1212"/>
			<point x="1243" y="942" type="curve" smooth="yes"/>
			<point x="1243" y="812"/>
			<point x="1191" y="520"/>
			<point x="1023" y="294" type="curve" smooth="yes"/>
			<point x="873" y="94"/>
			<point x="689" y="16"/>
		</contour>
	</outline>
</glyph>
<glyph name="P" format="2">
	<unicode hex="0050"/>
	<advance width="1312"/>
	<outline>
		<contour>
			<point x="293.7757964471" y="152" type="line" smooth="yes"/>
			<point x="275.7757964471" y="80"/>
			<point x="271.7757964471" y="62"/>
			<point x="121.7757964471" y="62" type="curve" smooth="yes"/>
			<point x="83.7757964471" y="62"/>
			<point x="61.7757964471" y="62"/>
			<point x="61.7757964471" y="26" type="curve" smooth="yes"/>
			<point x="61.7757964471" y="4"/>
			<point x="77.7757964471" y="0"/>
			<point x="91.7757964471" y="0" type="curve" smooth="yes"/>
			<point x="129.7757964471" y="0"/>
			<point x="179.7757964471" y="4"/>
			<point x="217.7757964471" y="4" type="curve" smooth="yes"/>
			<point x="317.7757964471" y="6"/>
			<point x="373.7757964471" y="6"/>
			<point x="473.7757964471" y="4" type="curve" smooth="yes"/>
			<point x="513.7757964471" y="4"/>
			<point x="565.7757964471" y="0"/>
			<point x="603.7757964471" y="0" type="curve" smooth="yes"/>
			<point x="617.7757964471" y="0"/>
			<point x="643.7757964471" y="0"/>
			<point x="643.7757964471" y="36" type="curve" smooth="yes"/>
			<point x="643.7757964471" y="62"/>
			<point x="623.7757964471" y="62"/>
			<point x="581.7757964471" y="62" type="curve" smooth="yes"/>
			<point x="573.7757964471" y="62"/>
			<point x="537.7757964471" y="62"/>
			<point x="505.7757964471" y="66" type="curve" smooth="yes"/>
			<point x="461.7757964471" y="72"/>
			<point x="459.7757964471" y="80"/>
			<point x="459.7757964471" y="98" type="curve" smooth="yes"/>
			<point x="459.7757964471" y="104"/>
			<point x="459.7757964471" y="108"/>
			<point x="469.7757964471" y="144" type="curve" smooth="yes"/>
			<point x="589.7757964471" y="628" type="line"/>
			<point x="923.7757964471" y="628" type="line" smooth="yes"/>
			<point x="1247.7757964471" y="628"/>
			<point x="1511.7757964471" y="850"/>
			<point x="1511.7757964471" y="1062" type="curve" smooth="yes"/>
			<point x="1511.7757964471" y="1220"/>
			<point x="1369.7757964471" y="1366"/>
			<point x="1107.7757964471" y="1366" type="curve" smooth="yes"/>
			<point x="447.7757964471" y="1366" type="line" smooth="yes"/>
			<point x="411.7757964471" y="1366"/>
			<point x="387.7757964471" y="1366"/>
			<point x="387.7757964471" y="1330" type="curve" smooth="yes"/>
			<point x="387.7757964471" y="1304"/>
			<point x="405.7757964471" y="1304"/>
			<point x="447.7757964471" y="1304" type="curve" smooth="yes"/>
			<point x="455.7757964471" y="1304"/>
			<point x="491.7757964471" y="1304"/>
			<point x="523.7757964471" y="1300" type="curve" smooth="yes"/>
			<point x="557.7757964471" y="1296"/>
			<point x="571.7757964471" y="1292"/>
			<point x="571.7757964471" y="1270" type="curve" smooth="yes"/>
			<point x="571.7757964471" y="1260"/>
			<point x="569.7757964471" y="1252"/>
			<point x="563.7757964471" y="1230" type="curve" smooth="yes"/>
		</contour>
		<contour>
			<point x="597.7757964471" y="684" type="line"/>
			<point x="733.7757964471" y="1226" type="line" smooth="yes"/>
			<point x="751.7757964471" y="1298"/>
			<point x="755.7757964471" y="1304"/>
			<point x="839.7757964471" y="1304" type="curve" smooth="yes"/>
			<point x="1041.7757964471" y="1304" type="line" smooth="yes"/>
			<point x="1197.7757964471" y="1304"/>
			<point x="1321.7757964471" y="1256"/>
			<point x="1321.7757964471" y="1110" type="curve" smooth="yes"/>
			<point x="1321.7757964471" y="1068"/>
			<point x="1299.7757964471" y="880"/>
			<point x="1195.7757964471" y="784" type="curve" smooth="yes"/>
			<point x="1151.7757964471" y="744"/>
			<point x="1059.7757964471" y="684"/>
			<point x="887.7757964471" y="684" type="curve" smooth="yes"/>
		</contour>
	</outline>
</glyph>
<glyph name="Q" format="2">
	<unicode hex="0051"/>
	<advance width="810"/>
	<outline>
		<contour>
			<point x="89.8878982235" y="247" type="curve" smooth="yes"/>
			<point x="89.8878982235" y="83"/>
			<point x="202.8878982235" y="-22"/>
			<point x="353.8878982235" y="-22" type="curve" smooth="yes"/>
			<point x="394.8878982235" y="-22"/>
			<point x="435.8878982235" y="-13"/>
			<point x="452.8878982235" y="-8" type="curve"/>
			<point x="450.8878982235" y="-48"/>
			<point x="449.8878982235" y="-66"/>
			<point x="449.8878982235" y="-78" type="curve" smooth="yes"/>
			<point x="449.8878982235" y="-126"/>
			<point x="457.8878982235" y="-194"/>
			<point x="536.8878982235" y="-194" type="curve" smooth="yes"/>
			<point x="655.8878982235" y="-194"/>
			<point x="706.8878982235" y="-15"/>
			<point x="706.8878982235" y="0" type="curve" smooth="yes"/>
			<point x="706.8878982235" y="6"/>
			<point x="701.8878982235" y="12"/>
			<point x="693.8878982235" y="12" type="curve" smooth="yes"/>
			<point x="685.8878982235" y="12"/>
			<point x="683.8878982235" y="5"/>
			<point x="680.8878982235" y="-2" type="curve"/>
			<point x="657.8878982235" y="-70"/>
			<point x="599.8878982235" y="-95"/>
			<point x="562.8878982235" y="-95" type="curve" smooth="yes"/>
			<point x="516.8878982235" y="-95"/>
			<point x="501.8878982235" y="-66"/>
			<point x="491.8878982235" y="5" type="curve"/>
			<point x="709.8878982235" y="99"/>
			<point x="797.8878982235" y="296"/>
			<point x="797.8878982235" y="433" type="curve" smooth="yes"/>
			<point x="797.8878982235" y="591"/>
			<point x="691.8878982235" y="705"/>
			<point x="534.8878982235" y="705" type="curve" smooth="yes"/>
			<point x="310.8878982235" y="705"/>
			<point x="89.8878982235" y="475"/>
		</contour>
		<contour>
			<point x="180.8878982235" y="217" type="curve" smooth="yes"/>
			<point x="180.8878982235" y="270"/>
			<point x="197.8878982235" y="431"/>
			<point x="305.8878982235" y="560" type="curve" smooth="yes"/>
			<point x="357.8878982235" y="621"/>
			<point x="441.8878982235" y="677"/>
			<point x="527.8878982235" y="677" type="curve" smooth="yes"/>
			<point x="626.8878982235" y="677"/>
			<point x="706.8878982235" y="604"/>
			<point x="706.8878982235" y="464" type="curve" smooth="yes"/>
			<point x="706.8878982235" y="364"/>
			<point x="657.8878982235" y="138"/>
			<point x="485.8878982235" y="42" type="curve"/>
			<point x="476.8878982235" y="96"/>
			<point x="457.8878982235" y="149"/>
			<point x="393.8878982235" y="149" type="curve" smooth="yes"/>
			<point x="337.8878982235" y="149"/>
			<point x="288.8878982235" y="98"/>
			<point x="288.8878982235" y="47" type="curve" smooth="yes"/>
			<point x="288.8878982235" y="39"/>
			<point x="290.8878982235" y="25"/>
			<point x="293.8878982235" y="18" type="curve"/>
			<point x="247.8878982235" y="36"/>
			<point x="180.8878982235" y="88"/>
		</contour>
		<contour>
			<point x="313.8878982235" y="47" type="curve" smooth="yes"/>
			<point x="313.8878982235" y="84"/>
			<point x="350.8878982235" y="124"/>
			<point x="394.8878982235" y="124" type="curve" smooth="yes"/>
			<point x="453.8878982235" y="124"/>
			<point x="454.8878982235" y="70"/>
			<point x="454.8878982235" y="26" type="curve"/>
			<point x="440.8878982235" y="20"/>
			<point x="401.8878982235" y="6"/>
			<point x="360.8878982235" y="6" type="curve" smooth="yes"/>
			<point x="347.8878982235" y="6"/>
			<point x="313.8878982235" y="6"/>
		</contour>
	</outline>
</glyph>
<glyph name="R" format="2">
	<unicode hex="0052"/>
	<advance width="777"/>
	<outline>
		<contour>
			<point x="270.5" y="354" type="line"/>
			<point x="335.5" y="613" type="line" smooth="yes"/>
			<point x="341.5" y="638"/>
			<point x="344.5" y="648"/>
			<point x="362.5" y="651" type="curve" smooth="yes"/>
			<point x="371.5" y="652"/>
			<point x="404.5" y="652"/>
			<point x="425.5" y="652" type="curve" smooth="yes"/>
			<point x="504.5" y="652"/>
			<point x="614.5" y="652"/>
			<point x="614.5" y="551" type="curve" smooth="yes"/>
			<point x="614.5" y="514"/>
			<point x="599.5" y="439"/>
			<point x="542.5" y="396" type="curve"/>
			<point x="518.5" y="380"/>
			<point x="468.5" y="354"/>
			<point x="387.5" y="354" type="curve" smooth="yes"/>
		</contour>
		<contour>
			<point x="710.5" y="532" type="curve" smooth="yes"/>
			<point x="710.5" y="619"/>
			<point x="615.5" y="683"/>
			<point x="482.5" y="683" type="curve" smooth="yes"/>
			<point x="192.5" y="683" type="line" smooth="yes"/>
			<point x="174.5" y="683"/>
			<point x="162.5" y="683"/>
			<point x="162.5" y="665" type="curve" smooth="yes"/>
			<point x="162.5" y="652"/>
			<point x="171.5" y="652"/>
			<point x="192.5" y="652" type="curve" smooth="yes"/>
			<point x="196.5" y="652"/>
			<point x="214.5" y="652"/>
			<point x="230.5" y="650" type="curve" smooth="yes"/>
			<point x="247.5" y="648"/>
			<point x="254.5" y="646"/>
			<point x="254.5" y="635" type="curve" smooth="yes"/>
			<point x="254.5" y="630"/>
			<point x="253.5" y="626"/>
			<point x="250.5" y="615" type="curve" smooth="yes"/>
			<point x="115.5" y="76" type="line" smooth="yes"/>
			<point x="106.5" y="40"/>
			<point x="104.5" y="31"/>
			<point x="29.5" y="31" type="curve" smooth="yes"/>
			<point x="10.5" y="31"/>
			<point x="-0.5" y="31"/>
			<point x="-0.5" y="13" type="curve" smooth="yes"/>
			<point x="-0.5" y="2"/>
			<point x="7.5" y="0"/>
			<point x="14.5" y="0" type="curve" smooth="yes"/>
			<point x="30.5" y="0"/>
			<point x="60.5" y="2"/>
			<point x="77.5" y="2" type="curve" smooth="yes"/>
			<point x="115.5" y="3"/>
			<point x="149.5" y="4"/>
			<point x="203.5" y="2" type="curve" smooth="yes"/>
			<point x="223.5" y="1"/>
			<point x="248.5" y="0"/>
			<point x="267.5" y="0" type="curve" smooth="yes"/>
			<point x="274.5" y="0"/>
			<point x="287.5" y="0"/>
			<point x="287.5" y="18" type="curve" smooth="yes"/>
			<point x="287.5" y="31"/>
			<point x="277.5" y="31"/>
			<point x="256.5" y="31" type="curve" smooth="yes"/>
			<point x="252.5" y="31"/>
			<point x="234.5" y="31"/>
			<point x="218.5" y="33" type="curve" smooth="yes"/>
			<point x="196.5" y="36"/>
			<point x="195.5" y="40"/>
			<point x="195.5" y="49" type="curve" smooth="yes"/>
			<point x="195.5" y="52"/>
			<point x="195.5" y="54"/>
			<point x="200.5" y="72" type="curve" smooth="yes"/>
			<point x="264.5" y="329" type="line"/>
			<point x="387.5" y="329" type="line" smooth="yes"/>
			<point x="477.5" y="329"/>
			<point x="500.5" y="277"/>
			<point x="500.5" y="239" type="curve" smooth="yes"/>
			<point x="500.5" y="232"/>
			<point x="500.5" y="225"/>
			<point x="494.5" y="203" type="curve" smooth="yes"/>
			<point x="470.5" y="111"/>
			<point x="470.5" y="102"/>
			<point x="470.5" y="87" type="curve" smooth="yes"/>
			<point x="470.5" y="-3"/>
			<point x="555.5" y="-22"/>
			<point x="606.5" y="-22" type="curve" smooth="yes"/>
			<point x="693.5" y="-22"/>
			<point x="729.5" y="79"/>
			<point x="729.5" y="95" type="curve" smooth="yes"/>
			<point x="729.5" y="102"/>
			<point x="723.5" y="107"/>
			<point x="716.5" y="107" type="curve" smooth="yes"/>
			<point x="705.5" y="107"/>
			<point x="704.5" y="102"/>
			<point x="700.5" y="90" type="curve" smooth="yes"/>
			<point x="683.5" y="38"/>
			<point x="646.5" y="3"/>
			<point x="609.5" y="3" type="curve" smooth="yes"/>
			<point x="571.5" y="3"/>
			<point x="569.5" y="33"/>
			<point x="569.5" y="62" type="curve" smooth="yes"/>
			<point x="569.5" y="87"/>
			<point x="576.5" y="145"/>
			<point x="577.5" y="152" type="curve" smooth="yes"/>
			<point x="579.5" y="168"/>
			<point x="584.5" y="208"/>
			<point x="584.5" y="223" type="curve" smooth="yes"/>
			<point x="584.5" y="280"/>
			<point x="548.5" y="319"/>
			<point x="490.5" y="339" type="curve"/>
			<point x="626.5" y="374"/>
			<point x="710.5" y="450"/>
		</contour>
	</outline>
</glyph>
<glyph name="S" format="2">
	<unicode hex="0053"/>
	<advance width="627"/>
	<outline>
		<contour>
			<point x="134.5" y="470" type="curve" smooth="yes"/>
			<point x="134.5" y="429"/>
			<point x="147.5" y="395"/>
			<point x="173.5" y="367" type="curve" smooth="yes"/>
			<point x="202.5" y="337"/>
			<point x="227.5" y="330"/>
			<point x="299.5" y="312" type="curve" smooth="yes"/>
			<point x="325.141" y="305.673"/>
			<point x="350.782" y="299.346"/>
			<point x="376.5" y="293" type="curve" smooth="yes"/>
			<point x="416.5" y="283"/>
			<point x="448.5" y="249"/>
			<point x="448.5" y="192" type="curve" smooth="yes"/>
			<point x="448.5" y="103"/>
			<point x="363.5" y="9"/>
			<point x="263.5" y="9" type="curve" smooth="yes"/>
			<point x="204.5" y="9"/>
			<point x="85.5" y="27"/>
			<point x="85.5" y="155" type="curve" smooth="yes"/>
			<point x="85.5" y="194"/>
			<point x="93.5" y="212"/>
			<point x="93.5" y="217" type="curve" smooth="yes"/>
			<point x="93.5" y="220"/>
			<point x="91.5" y="227"/>
			<point x="79.5" y="227" type="curve" smooth="yes"/>
			<point x="67.5" y="227"/>
			<point x="66.5" y="222"/>
			<point x="62.5" y="205" type="curve" smooth="yes"/>
			<point x="45.184" y="134.737"/>
			<point x="27.868" y="64.474"/>
			<point x="10.5" y="-6" type="curve" smooth="yes"/>
			<point x="7.5" y="-17"/>
			<point x="14.5" y="-22"/>
			<point x="21.5" y="-22" type="curve" smooth="yes"/>
			<point x="26.5" y="-22"/>
			<point x="27.5" y="-21"/>
			<point x="40.5" y="-7" type="curve" smooth="yes"/>
			<point x="46.5" y="0"/>
			<point x="75.5" y="36"/>
			<point x="87.5" y="49" type="curve"/>
			<point x="139.5" y="-18"/>
			<point x="231.5" y="-22"/>
			<point x="261.5" y="-22" type="curve" smooth="yes"/>
			<point x="399.5" y="-22"/>
			<point x="519.5" y="107"/>
			<point x="519.5" y="233" type="curve" smooth="yes"/>
			<point x="519.5" y="278.17816"/>
			<point x="506.4911237112" y="310.08195644"/>
			<point x="488.4534008057" y="332.7739498803" type="curve" smooth="yes"/>
			<point x="456.9831835852" y="372.3644218304"/>
			<point x="410.20546" y="383.91472"/>
			<point x="390.5" y="389" type="curve" smooth="yes"/>
			<point x="360.197" y="396.992"/>
			<point x="329.894" y="404.984"/>
			<point x="299.5" y="413" type="curve" smooth="yes"/>
			<point x="266.5" y="422"/>
			<point x="205.5" y="437"/>
			<point x="205.5" y="513" type="curve" smooth="yes"/>
			<point x="205.5" y="589"/>
			<point x="285.5" y="677"/>
			<point x="385.5" y="677" type="curve" smooth="yes"/>
			<point x="477.5" y="677"/>
			<point x="531.5" y="623"/>
			<point x="531.5" y="521" type="curve" smooth="yes"/>
			<point x="531.5" y="490"/>
			<point x="527.5" y="477"/>
			<point x="527.5" y="469" type="curve" smooth="yes"/>
			<point x="527.5" y="461"/>
			<point x="531.5" y="456"/>
			<point x="541.5" y="456" type="curve" smooth="yes"/>
			<point x="552.5" y="456"/>
			<point x="552.5" y="458"/>
			<point x="557.5" y="477" type="curve" smooth="yes"/>
			<point x="610.5" y="686" type="line" smooth="yes"/>
			<point x="612.5" y="695"/>
			<point x="611.5" y="705"/>
			<point x="599.5" y="705" type="curve" smooth="yes"/>
			<point x="594.5" y="705"/>
			<point x="593.5" y="704"/>
			<point x="581.5" y="690" type="curve" smooth="yes"/>
			<point x="567.5" y="675"/>
			<point x="579.5" y="688"/>
			<point x="533.5" y="634" type="curve"/>
			<point x="496.5" y="690"/>
			<point x="438.5" y="705"/>
			<point x="385.5" y="705" type="curve" smooth="yes"/>
			<point x="256.5" y="705"/>
			<point x="134.5" y="590"/>
		</contour>
	</outline>
</glyph>
<glyph name="T" format="2">
	<unicode hex="0054"/>
	<advance width="1198"/>
	<outline>
		<contour>
			<point x="407.7757964471" y="158" type="line" smooth="yes"/>
			<point x="393.7757964471" y="103"/>
			<point x="387.7757964471" y="76"/>
			<point x="290.7757964471" y="66" type="curve" smooth="yes"/>
			<point x="260.7757964471" y="63"/>
			<point x="221.7757964471" y="62"/>
			<point x="171.7757964471" y="62" type="curve" smooth="yes"/>
			<point x="107.7757964471" y="62"/>
			<point x="89.7757964471" y="62"/>
			<point x="89.7757964471" y="26" type="curve" smooth="yes"/>
			<point x="89.7757964471" y="0"/>
			<point x="115.7757964471" y="0"/>
			<point x="123.7757964471" y="0" type="curve" smooth="yes"/>
			<point x="175.7757964471" y="0"/>
			<point x="233.7757964471" y="4"/>
			<point x="287.7757964471" y="4" type="curve" smooth="yes"/>
			<point x="431.7757964471" y="6"/>
			<point x="502.7757964471" y="7"/>
			<point x="623.7757964471" y="4" type="curve" smooth="yes"/>
			<point x="649.7757964471" y="4"/>
			<point x="781.7757964471" y="0"/>
			<point x="797.7757964471" y="0" type="curve" smooth="yes"/>
			<point x="815.7757964471" y="0"/>
			<point x="839.7757964471" y="0"/>
			<point x="839.7757964471" y="36" type="curve" smooth="yes"/>
			<point x="839.7757964471" y="62"/>
			<point x="821.7757964471" y="62"/>
			<point x="771.7757964471" y="62" type="curve" smooth="yes"/>
			<point x="721.7757964471" y="62"/>
			<point x="697.7757964471" y="62"/>
			<point x="643.7757964471" y="66" type="curve" smooth="yes"/>
			<point x="583.7757964471" y="72"/>
			<point x="563.7757964471" y="78"/>
			<point x="577.7757964471" y="136" type="curve" smooth="yes"/>
			<point x="849.7757964471" y="1218" type="line" smooth="yes"/>
			<point x="861.7757964471" y="1262"/>
			<point x="865.7757964471" y="1282"/>
			<point x="899.7757964471" y="1288" type="curve" smooth="yes"/>
			<point x="915.7757964471" y="1292"/>
			<point x="979.7757964471" y="1292"/>
			<point x="1021.7757964471" y="1292" type="curve" smooth="yes"/>
			<point x="1251.7757964471" y="1292"/>
			<point x="1319.7757964471" y="1278"/>
			<point x="1319.7757964471" y="1122" type="curve" smooth="yes"/>
			<point x="1319.7757964471" y="1096"/>
			<point x="1317.7757964471" y="1058"/>
			<point x="1301.7757964471" y="944" type="curve" smooth="yes"/>
			<point x="1297.7757964471" y="914"/>
			<point x="1307.7757964471" y="904"/>
			<point x="1327.7757964471" y="904" type="curve" smooth="yes"/>
			<point x="1351.7757964471" y="904"/>
			<point x="1355.7757964471" y="922"/>
			<point x="1359.7757964471" y="952" type="curve" smooth="yes"/>
			<point x="1413.7757964471" y="1310" type="line" smooth="yes"/>
			<point x="1419.7757964471" y="1354"/>
			<point x="1403.7757964471" y="1354"/>
			<point x="1361.7757964471" y="1354" type="curve" smooth="yes"/>
			<point x="219.7757964471" y="1354" type="line" smooth="yes"/>
			<point x="171.7757964471" y="1354"/>
			<point x="169.7757964471" y="1352"/>
			<point x="155.7757964471" y="1314" type="curve" smooth="yes"/>
			<point x="31.7757964471" y="962" type="line" smooth="yes"/>
			<point x="23.7757964471" y="936"/>
			<point x="23.7757964471" y="932"/>
			<point x="23.7757964471" y="930" type="curve" smooth="yes"/>
			<point x="23.7757964471" y="920"/>
			<point x="29.7757964471" y="904"/>
			<point x="49.7757964471" y="904" type="curve" smooth="yes"/>
			<point x="71.7757964471" y="904"/>
			<point x="75.7757964471" y="916"/>
			<point x="87.7757964471" y="952" type="curve" smooth="yes"/>
			<point x="197.7757964471" y="1264"/>
			<point x="259.7757964471" y="1292"/>
			<point x="549.7757964471" y="1292" type="curve" smooth="yes"/>
			<point x="627.7757964471" y="1292" type="line" smooth="yes"/>
			<point x="683.7757964471" y="1292"/>
			<point x="683.7757964471" y="1286"/>
			<point x="683.7757964471" y="1270" type="curve" smooth="yes"/>
			<point x="683.7757964471" y="1262"/>
			<point x="679.7757964471" y="1244"/>
			<point x="675.7757964471" y="1228" type="curve" smooth="yes"/>
		</contour>
	</outline>
</glyph>
<glyph name="U" format="2">
	<unicode hex="0055"/>
	<advance width="1398"/>
	<outline>
		<contour>
			<point x="517.7757964471" y="-44" type="curve" smooth="yes"/>
			<point x="777.7757964471" y="-44"/>
			<point x="1029.7757964471" y="186"/>
			<point x="1093.7757964471" y="446" type="curve" smooth="yes"/>
			<point x="1152.7757964471" y="680"/>
			<point x="1210.7757964471" y="915"/>
			<point x="1269.7757964471" y="1150" type="curve" smooth="yes"/>
			<point x="1289.7757964471" y="1234"/>
			<point x="1327.7757964471" y="1298"/>
			<point x="1483.7757964471" y="1304" type="curve" smooth="yes"/>
			<point x="1495.7757964471" y="1304"/>
			<point x="1519.7757964471" y="1306"/>
			<point x="1519.7757964471" y="1340" type="curve" smooth="yes"/>
			<point x="1519.7757964471" y="1356"/>
			<point x="1507.7757964471" y="1366"/>
			<point x="1491.7757964471" y="1366" type="curve" smooth="yes"/>
			<point x="1447.7757964471" y="1366"/>
			<point x="1335.7757964471" y="1360"/>
			<point x="1291.7757964471" y="1360" type="curve" smooth="yes"/>
			<point x="1251.7757964471" y="1360"/>
			<point x="1237.7757964471" y="1360"/>
			<point x="1189.7757964471" y="1362" type="curve" smooth="yes"/>
			<point x="1157.7757964471" y="1362"/>
			<point x="1115.7757964471" y="1366"/>
			<point x="1085.7757964471" y="1366" type="curve" smooth="yes"/>
			<point x="1077.7757964471" y="1366"/>
			<point x="1049.7757964471" y="1366"/>
			<point x="1049.7757964471" y="1330" type="curve" smooth="yes"/>
			<point x="1049.7757964471" y="1304"/>
			<point x="1073.7757964471" y="1304"/>
			<point x="1085.7757964471" y="1304" type="curve" smooth="yes"/>
			<point x="1161.7757964471" y="1302"/>
			<point x="1219.7757964471" y="1284"/>
			<point x="1219.7757964471" y="1218" type="curve" smooth="yes"/>
			<point x="1219.7757964471" y="1208"/>
			<point x="1217.7757964471" y="1198"/>
			<point x="1213.7757964471" y="1178" type="curve" smooth="yes"/>
			<point x="1153.7757964471" y="940"/>
			<point x="1093.7757964471" y="701"/>
			<point x="1033.7757964471" y="462" type="curve" smooth="yes"/>
			<point x="963.7757964471" y="186"/>
			<point x="721.7757964471" y="18"/>
			<point x="523.7757964471" y="18" type="curve" smooth="yes"/>
			<point x="421.7757964471" y="18"/>
			<point x="273.7757964471" y="72"/>
			<point x="273.7757964471" y="284" type="curve" smooth="yes"/>
			<point x="273.7757964471" y="336"/>
			<point x="281.7757964471" y="388"/>
			<point x="293.7757964471" y="440" type="curve" smooth="yes"/>
			<point x="487.7757964471" y="1212" type="line" smooth="yes"/>
			<point x="505.7757964471" y="1288"/>
			<point x="511.7757964471" y="1304"/>
			<point x="667.7757964471" y="1304" type="curve" smooth="yes"/>
			<point x="699.7757964471" y="1304"/>
			<point x="721.7757964471" y="1304"/>
			<point x="721.7757964471" y="1340" type="curve" smooth="yes"/>
			<point x="721.7757964471" y="1358"/>
			<point x="707.7757964471" y="1366"/>
			<point x="691.7757964471" y="1366" type="curve" smooth="yes"/>
			<point x="649.7757964471" y="1364"/>
			<point x="607.7757964471" y="1364"/>
			<point x="565.7757964471" y="1362" type="curve" smooth="yes"/>
			<point x="445.7757964471" y="1358"/>
			<point x="429.7757964471" y="1358"/>
			<point x="309.7757964471" y="1362" type="curve" smooth="yes"/>
			<point x="269.7757964471" y="1364"/>
			<point x="217.7757964471" y="1366"/>
			<point x="179.7757964471" y="1366" type="curve" smooth="yes"/>
			<point x="167.7757964471" y="1366"/>
			<point x="139.7757964471" y="1366"/>
			<point x="139.7757964471" y="1330" type="curve" smooth="yes"/>
			<point x="139.7757964471" y="1304"/>
			<point x="159.7757964471" y="1304"/>
			<point x="199.7757964471" y="1304" type="curve" smooth="yes"/>
			<point x="207.7757964471" y="1304"/>
			<point x="243.7757964471" y="1304"/>
			<point x="275.7757964471" y="1300" type="curve" smooth="yes"/>
			<point x="313.7757964471" y="1296"/>
			<point x="323.7757964471" y="1290"/>
			<point x="323.7757964471" y="1270" type="curve" smooth="yes"/>
			<point x="323.7757964471" y="1258"/>
			<point x="305.7757964471" y="1186"/>
			<point x="293.7757964471" y="1144" type="curve" smooth="yes"/>
			<point x="229.7757964471" y="890"/>
			<point x="135.7757964471" y="514"/>
			<point x="127.7757964471" y="474" type="curve" smooth="yes"/>
			<point x="111.7757964471" y="410"/>
			<point x="109.7757964471" y="388"/>
			<point x="109.7757964471" y="344" type="curve" smooth="yes"/>
			<point x="109.7757964471" y="112"/>
			<point x="283.7757964471" y="-44"/>
		</contour>
	</outline>
</glyph>
<glyph name="V" format="2">
	<unicode hex="0056"/>
	<advance width="1198"/>
	<outline>
		<contour>
			<point x="413" y="-44" type="curve" smooth="yes"/>
			<point x="445" y="-44"/>
			<point x="457" y="-28"/>
			<point x="471" y="-4" type="curve" smooth="yes"/>
			<point x="1201" y="1130" type="line" smooth="yes"/>
			<point x="1283" y="1258"/>
			<point x="1353" y="1296"/>
			<point x="1445" y="1304" type="curve" smooth="yes"/>
			<point x="1469" y="1306"/>
			<point x="1487" y="1308"/>
			<point x="1487" y="1340" type="curve" smooth="yes"/>
			<point x="1487" y="1356"/>
			<point x="1475" y="1366"/>
			<point x="1461" y="1366" type="curve" smooth="yes"/>
			<point x="1453" y="1366"/>
			<point x="1403" y="1360"/>
			<point x="1297" y="1360" type="curve" smooth="yes"/>
			<point x="1233" y="1360"/>
			<point x="1165" y="1366"/>
			<point x="1103" y="1366" type="curve" smooth="yes"/>
			<point x="1089" y="1366"/>
			<point x="1067" y="1362"/>
			<point x="1067" y="1330" type="curve" smooth="yes"/>
			<point x="1067" y="1306"/>
			<point x="1089" y="1304"/>
			<point x="1095" y="1304" type="curve" smooth="yes"/>
			<point x="1115" y="1304"/>
			<point x="1187" y="1298"/>
			<point x="1187" y="1240" type="curve" smooth="yes"/>
			<point x="1187" y="1216"/>
			<point x="1169" y="1184"/>
			<point x="1153" y="1156" type="curve" smooth="yes"/>
			<point x="527" y="186" type="line"/>
			<point x="377" y="1228" type="line" smooth="yes"/>
			<point x="375" y="1240"/>
			<point x="375" y="1242"/>
			<point x="375" y="1244" type="curve" smooth="yes"/>
			<point x="375" y="1270"/>
			<point x="400" y="1304"/>
			<point x="513" y="1304" type="curve" smooth="yes"/>
			<point x="537" y="1304"/>
			<point x="561" y="1304"/>
			<point x="561" y="1340" type="curve" smooth="yes"/>
			<point x="561" y="1362"/>
			<point x="541" y="1366"/>
			<point x="529" y="1366" type="curve" smooth="yes"/>
			<point x="493" y="1366"/>
			<point x="451" y="1364"/>
			<point x="413" y="1362" type="curve" smooth="yes"/>
			<point x="339" y="1360"/>
			<point x="219" y="1360"/>
			<point x="177" y="1362" type="curve" smooth="yes"/>
			<point x="161" y="1362"/>
			<point x="79" y="1366"/>
			<point x="63" y="1366" type="curve" smooth="yes"/>
			<point x="55" y="1366"/>
			<point x="27" y="1366"/>
			<point x="27" y="1330" type="curve" smooth="yes"/>
			<point x="27" y="1304"/>
			<point x="49" y="1304"/>
			<point x="73" y="1304" type="curve" smooth="yes"/>
			<point x="185" y="1304"/>
			<point x="187" y="1286"/>
			<point x="195" y="1236" type="curve" smooth="yes"/>
			<point x="371" y="8" type="line" smooth="yes"/>
			<point x="377" y="-30"/>
			<point x="379" y="-44"/>
		</contour>
	</outline>
</glyph>
<glyph name="W" format="2">
  <advance width="970"/>
  <unicode hex="0057"/>
  <outline>
    <contour>
      <point x="566.8878982235275" y="510.0" type="line"/>
      <point x="608.8878982235275" y="5.0" type="line" smooth="yes"/>
      <point x="609.8878982235275" y="-13.0"/>
      <point x="610.8878982235275" y="-22.0"/>
      <point x="626.8878982235275" y="-22.0" type="curve" smooth="yes"/>
      <point x="630.8878982235275" y="-22.0"/>
      <point x="641.8878982235275" y="-22.0"/>
      <point x="653.8878982235275" y="-1.0" type="curve" smooth="yes"/>
      <point x="983.8878982235275" y="567.0" type="line" smooth="yes"/>
      <point x="1029.8878982235276" y="646.0"/>
      <point x="1069.6994482235275" y="649.70083"/>
      <point x="1101.8878982235276" y="652.0" type="curve" smooth="yes"/>
      <point x="1114.8878982235276" y="653.0"/>
      <point x="1114.8878982235276" y="669.0"/>
      <point x="1114.8878982235276" y="670.0" type="curve" smooth="yes"/>
      <point x="1114.8878982235276" y="676.0"/>
      <point x="1110.8878982235276" y="683.0"/>
      <point x="1102.8878982235276" y="683.0" type="curve" smooth="yes"/>
      <point x="1097.8878982235276" y="683.0"/>
      <point x="1077.8878982235276" y="680.0"/>
      <point x="1022.8878982235275" y="680.0" type="curve" smooth="yes"/>
      <point x="988.8878982235275" y="680.0"/>
      <point x="953.8878982235275" y="683.0"/>
      <point x="921.8878982235275" y="683.0" type="curve" smooth="yes"/>
      <point x="915.8878982235275" y="683.0"/>
      <point x="902.8878982235275" y="683.0"/>
      <point x="902.8878982235275" y="665.0" type="curve" smooth="yes"/>
      <point x="902.8878982235275" y="653.0"/>
      <point x="913.8878982235275" y="652.0"/>
      <point x="917.8878982235275" y="652.0" type="curve" smooth="yes"/>
      <point x="931.8878982235275" y="651.0"/>
      <point x="974.8878982235275" y="649.0"/>
      <point x="974.8878982235275" y="614.0" type="curve" smooth="yes"/>
      <point x="974.8878982235275" y="607.0"/>
      <point x="972.8878982235275" y="597.0"/>
      <point x="960.8878982235275" y="577.0" type="curve" smooth="yes"/>
      <point x="688.8878982235275" y="111.0" type="line"/>
      <point x="646.8878982235275" y="620.0" type="line" smooth="yes"/>
      <point x="645.8878982235275" y="631.0"/>
      <point x="656.8878982235275" y="652.0"/>
      <point x="718.8878982235275" y="652.0" type="curve" smooth="yes"/>
      <point x="730.8878982235275" y="652.0"/>
      <point x="742.8878982235275" y="652.0"/>
      <point x="742.8878982235275" y="670.0" type="curve" smooth="yes"/>
      <point x="742.8878982235275" y="679.0"/>
      <point x="735.8878982235275" y="683.0"/>
      <point x="727.8878982235275" y="683.0" type="curve" smooth="yes"/>
      <point x="712.2681282235275" y="683.0"/>
      <point x="692.8878982235275" y="682.0"/>
      <point x="665.8878982235275" y="681.0" type="curve" smooth="yes"/>
      <point x="622.8878982235275" y="680.0"/>
      <point x="575.8878982235275" y="680.0"/>
      <point x="551.8878982235275" y="681.0" type="curve" smooth="yes"/>
      <point x="538.8878982235275" y="682.0"/>
      <point x="511.8878982235275" y="683.0"/>
      <point x="499.8878982235275" y="683.0" type="curve" smooth="yes"/>
      <point x="494.8878982235275" y="683.0"/>
      <point x="481.8878982235275" y="683.0"/>
      <point x="481.8878982235275" y="665.0" type="curve" smooth="yes"/>
      <point x="481.8878982235275" y="652.0"/>
      <point x="492.8878982235275" y="652.0"/>
      <point x="504.8878982235275" y="652.0" type="curve" smooth="yes"/>
      <point x="550.8878982235275" y="652.0"/>
      <point x="554.8878982235275" y="645.0"/>
      <point x="556.8878982235275" y="629.0" type="curve" smooth="yes"/>
      <point x="557.8878982235275" y="623.0"/>
      <point x="562.8878982235275" y="562.0"/>
      <point x="562.8878982235275" y="560.0" type="curve" smooth="yes"/>
      <point x="562.8878982235275" y="556.0"/>
      <point x="562.8878982235275" y="553.0"/>
      <point x="555.8878982235275" y="541.0" type="curve" smooth="yes"/>
      <point x="303.8878982235275" y="111.0" type="line"/>
      <point x="262.8878982235275" y="604.0" type="line" smooth="yes"/>
      <point x="260.8878982235275" y="624.0"/>
      <point x="258.8878982235275" y="651.0"/>
      <point x="332.8878982235275" y="652.0" type="curve" smooth="yes"/>
      <point x="345.8878982235275" y="652.0"/>
      <point x="357.8878982235275" y="652.0"/>
      <point x="357.8878982235275" y="670.0" type="curve" smooth="yes"/>
      <point x="357.8878982235275" y="682.0"/>
      <point x="346.8878982235275" y="683.0"/>
      <point x="342.8878982235275" y="683.0" type="curve" smooth="yes"/>
      <point x="319.8878982235275" y="682.0"/>
      <point x="293.8878982235275" y="681.0"/>
      <point x="284.8878982235275" y="681.0" type="curve" smooth="yes"/>
      <point x="246.8878982235275" y="681.0"/>
      <point x="192.8878982235275" y="680.0"/>
      <point x="167.8878982235275" y="681.0" type="curve" smooth="yes"/>
      <point x="158.8878982235275" y="681.0"/>
      <point x="123.8878982235275" y="683.0"/>
      <point x="115.8878982235275" y="683.0" type="curve" smooth="yes"/>
      <point x="111.8878982235275" y="683.0"/>
      <point x="97.8878982235275" y="683.0"/>
      <point x="97.8878982235275" y="665.0" type="curve" smooth="yes"/>
      <point x="97.8878982235275" y="652.0"/>
      <point x="108.8878982235275" y="652.0"/>
      <point x="120.8878982235275" y="652.0" type="curve" smooth="yes"/>
      <point x="170.8878982235275" y="652.0"/>
      <point x="171.8878982235275" y="644.0"/>
      <point x="173.8878982235275" y="617.0" type="curve" smooth="yes"/>
      <point x="224.8878982235275" y="3.0" type="line" smooth="yes"/>
      <point x="225.8878982235275" y="-14.0"/>
      <point x="226.8878982235275" y="-22.0"/>
      <point x="241.8878982235275" y="-22.0" type="curve" smooth="yes"/>
      <point x="255.8878982235275" y="-22.0"/>
      <point x="258.8878982235275" y="-16.0"/>
      <point x="267.8878982235275" y="-1.0" type="curve" smooth="yes"/>
    </contour>
  </outline>
</glyph>
<glyph name="X" format="2">
	<unicode hex="0058"/>
	<advance width="1696"/>
	<outline>
		<contour>
			<point x="925" y="766" type="curve"/>
			<point x="995" y="834"/>
			<point x="1101" y="950"/>
			<point x="1229" y="1086" type="curve" smooth="yes"/>
			<point x="1353" y="1216"/>
			<point x="1433" y="1292"/>
			<point x="1601" y="1304" type="curve" smooth="yes"/>
			<point x="1625" y="1306"/>
			<point x="1647" y="1308"/>
			<point x="1647" y="1340" type="curve" smooth="yes"/>
			<point x="1647" y="1348"/>
			<point x="1641" y="1366"/>
			<point x="1619" y="1366" type="curve" smooth="yes"/>
			<point x="1591" y="1366"/>
			<point x="1525" y="1360"/>
			<point x="1433" y="1360" type="curve" smooth="yes"/>
			<point x="1287" y="1362"/>
			<point x="1225" y="1366"/>
			<point x="1211" y="1366" type="curve" smooth="yes"/>
			<point x="1199" y="1366"/>
			<point x="1173" y="1366"/>
			<point x="1173" y="1330" type="curve" smooth="yes"/>
			<point x="1173" y="1306"/>
			<point x="1197" y="1304"/>
			<point x="1201" y="1304" type="curve" smooth="yes"/>
			<point x="1219" y="1302"/>
			<point x="1277" y="1298"/>
			<point x="1277" y="1246" type="curve" smooth="yes"/>
			<point x="1277" y="1212"/>
			<point x="1231" y="1164"/>
			<point x="1229" y="1162" type="curve" smooth="yes"/>
			<point x="901" y="820" type="line"/>
			<point x="723" y="1220" type="line" smooth="yes"/>
			<point x="713" y="1240"/>
			<point x="713" y="1244"/>
			<point x="713" y="1246" type="curve" smooth="yes"/>
			<point x="713" y="1256"/>
			<point x="745" y="1304"/>
			<point x="831" y="1304" type="curve" smooth="yes"/>
			<point x="841" y="1304"/>
			<point x="865" y="1306"/>
			<point x="865" y="1340" type="curve" smooth="yes"/>
			<point x="865" y="1358"/>
			<point x="851" y="1366"/>
			<point x="835" y="1366" type="curve" smooth="yes"/>
			<point x="795" y="1366"/>
			<point x="749" y="1362"/>
			<point x="709" y="1362" type="curve" smooth="yes"/>
			<point x="607" y="1360"/>
			<point x="548" y="1359"/>
			<point x="469" y="1362" type="curve" smooth="yes"/>
			<point x="432" y="1363"/>
			<point x="396" y="1365"/>
			<point x="359" y="1366" type="curve" smooth="yes"/>
			<point x="351" y="1366"/>
			<point x="321" y="1366"/>
			<point x="321" y="1330" type="curve" smooth="yes"/>
			<point x="321" y="1304"/>
			<point x="345" y="1304"/>
			<point x="369" y="1304" type="curve" smooth="yes"/>
			<point x="487" y="1304"/>
			<point x="497" y="1284"/>
			<point x="515" y="1242" type="curve" smooth="yes"/>
			<point x="575" y="1104"/>
			<point x="753" y="708"/>
			<point x="765" y="682" type="curve"/>
			<point x="745" y="658"/>
			<point x="433" y="330"/>
			<point x="381" y="276" type="curve" smooth="yes"/>
			<point x="261" y="152"/>
			<point x="181" y="74"/>
			<point x="13" y="62" type="curve" smooth="yes"/>
			<point x="-11" y="60"/>
			<point x="-33" y="58"/>
			<point x="-33" y="26" type="curve" smooth="yes"/>
			<point x="-33" y="14"/>
			<point x="-25" y="0"/>
			<point x="-5" y="0" type="curve" smooth="yes"/>
			<point x="17" y="0"/>
			<point x="81" y="6"/>
			<point x="181" y="6" type="curve" smooth="yes"/>
			<point x="269" y="6"/>
			<point x="379" y="0"/>
			<point x="401" y="0" type="curve" smooth="yes"/>
			<point x="411" y="0"/>
			<point x="441" y="0"/>
			<point x="441" y="36" type="curve" smooth="yes"/>
			<point x="441" y="60"/>
			<point x="417" y="62"/>
			<point x="413" y="62" type="curve" smooth="yes"/>
			<point x="397" y="64"/>
			<point x="337" y="68"/>
			<point x="337" y="120" type="curve" smooth="yes"/>
			<point x="337" y="152"/>
			<point x="361" y="178"/>
			<point x="423" y="244" type="curve" smooth="yes"/>
			<point x="603" y="430"/>
			<point x="771" y="604"/>
			<point x="789" y="626" type="curve"/>
			<point x="1005" y="146" type="line" smooth="yes"/>
			<point x="1015" y="126"/>
			<point x="1015" y="122"/>
			<point x="1015" y="120" type="curve" smooth="yes"/>
			<point x="1015" y="110"/>
			<point x="983" y="66"/>
			<point x="897" y="62" type="curve" smooth="yes"/>
			<point x="887" y="62"/>
			<point x="863" y="60"/>
			<point x="863" y="26" type="curve" smooth="yes"/>
			<point x="863" y="8"/>
			<point x="877" y="0"/>
			<point x="893" y="0" type="curve" smooth="yes"/>
			<point x="933" y="0"/>
			<point x="979" y="4"/>
			<point x="1019" y="4" type="curve" smooth="yes"/>
			<point x="1121" y="6"/>
			<point x="1180" y="7"/>
			<point x="1259" y="4" type="curve" smooth="yes"/>
			<point x="1295" y="2"/>
			<point x="1333" y="2"/>
			<point x="1369" y="0" type="curve" smooth="yes"/>
			<point x="1377" y="0"/>
			<point x="1407" y="0"/>
			<point x="1407" y="36" type="curve" smooth="yes"/>
			<point x="1407" y="62"/>
			<point x="1383" y="62"/>
			<point x="1359" y="62" type="curve" smooth="yes"/>
			<point x="1241" y="62"/>
			<point x="1231" y="84"/>
			<point x="1213" y="124" type="curve" smooth="yes"/>
			<point x="1117" y="338"/>
			<point x="1021" y="552"/>
		</contour>
	</outline>
</glyph>
<glyph name="Y" format="2">
  <advance width="596"/>
  <unicode hex="0059"/>
  <outline>
    <contour>
      <point x="392.8878982235275" y="314.0" type="line"/>
      <point x="275.8878982235275" y="611.0" type="line" smooth="yes"/>
      <point x="269.8878982235275" y="625.0"/>
      <point x="269.8878982235275" y="627.0"/>
      <point x="269.8878982235275" y="629.0" type="curve" smooth="yes"/>
      <point x="269.8878982235275" y="652.0"/>
      <point x="317.8878982235275" y="652.0"/>
      <point x="326.8878982235275" y="652.0" type="curve" smooth="yes"/>
      <point x="339.8878982235275" y="652.0"/>
      <point x="351.8878982235275" y="652.0"/>
      <point x="351.8878982235275" y="670.0" type="curve" smooth="yes"/>
      <point x="351.8878982235275" y="680.0"/>
      <point x="342.8878982235275" y="683.0"/>
      <point x="335.8878982235275" y="683.0" type="curve" smooth="yes"/>
      <point x="315.8878982235275" y="683.0"/>
      <point x="292.8878982235275" y="681.0"/>
      <point x="272.8878982235275" y="681.0" type="curve" smooth="yes"/>
      <point x="217.8878982235275" y="680.0"/>
      <point x="180.8878982235275" y="680.0"/>
      <point x="151.8878982235275" y="681.0" type="curve" smooth="yes"/>
      <point x="135.8878982235275" y="682.0"/>
      <point x="112.8878982235275" y="683.0"/>
      <point x="96.8878982235275" y="683.0" type="curve" smooth="yes"/>
      <point x="91.8878982235275" y="683.0"/>
      <point x="77.8878982235275" y="683.0"/>
      <point x="77.8878982235275" y="665.0" type="curve" smooth="yes"/>
      <point x="77.8878982235275" y="652.0"/>
      <point x="88.8878982235275" y="652.0"/>
      <point x="100.8878982235275" y="652.0" type="curve" smooth="yes"/>
      <point x="159.8878982235275" y="652.0"/>
      <point x="163.8878982235275" y="642.0"/>
      <point x="172.8878982235275" y="619.0" type="curve" smooth="yes"/>
      <point x="302.8878982235275" y="288.0" type="line" smooth="yes"/>
      <point x="307.8878982235275" y="275.0"/>
      <point x="307.8878982235275" y="273.0"/>
      <point x="307.8878982235275" y="272.0" type="curve" smooth="yes"/>
      <point x="307.8878982235275" y="268.0"/>
      <point x="267.8878982235275" y="108.0"/>
      <point x="262.8878982235275" y="90.0" type="curve" smooth="yes"/>
      <point x="249.8878982235275" y="36.0"/>
      <point x="248.8878982235275" y="32.0"/>
      <point x="169.8878982235275" y="31.0" type="curve" smooth="yes"/>
      <point x="153.8878982235275" y="31.0"/>
      <point x="142.8878982235275" y="31.0"/>
      <point x="142.8878982235275" y="13.0" type="curve" smooth="yes"/>
      <point x="142.8878982235275" y="4.0"/>
      <point x="149.8878982235275" y="0.0"/>
      <point x="157.8878982235275" y="0.0" type="curve" smooth="yes"/>
      <point x="173.8878982235275" y="0.0"/>
      <point x="203.8878982235275" y="1.0"/>
      <point x="228.8878982235275" y="2.0" type="curve" smooth="yes"/>
      <point x="258.8878982235275" y="3.0"/>
      <point x="280.8878982235275" y="4.0"/>
      <point x="346.8878982235275" y="2.0" type="curve" smooth="yes"/>
      <point x="366.8878982235275" y="1.0"/>
      <point x="391.8878982235275" y="0.0"/>
      <point x="410.8878982235275" y="0.0" type="curve" smooth="yes"/>
      <point x="417.8878982235275" y="0.0"/>
      <point x="430.8878982235275" y="0.0"/>
      <point x="430.8878982235275" y="18.0" type="curve" smooth="yes"/>
      <point x="430.8878982235275" y="31.0"/>
      <point x="420.8878982235275" y="31.0"/>
      <point x="399.8878982235275" y="31.0" type="curve" smooth="yes"/>
      <point x="395.8878982235275" y="31.0"/>
      <point x="377.8878982235275" y="31.0"/>
      <point x="361.8878982235275" y="33.0" type="curve" smooth="yes"/>
      <point x="339.8878982235275" y="36.0"/>
      <point x="338.8878982235275" y="40.0"/>
      <point x="338.8878982235275" y="49.0" type="curve" smooth="yes"/>
      <point x="338.8878982235275" y="56.0"/>
      <point x="346.8878982235275" y="88.0"/>
      <point x="351.8878982235275" y="107.0" type="curve" smooth="yes"/>
      <point x="365.5408982235275" y="162.611"/>
      <point x="379.1938982235275" y="218.222"/>
      <point x="392.8878982235275" y="274.0" type="curve"/>
      <point x="396.8878982235275" y="277.0"/>
      <point x="398.8878982235275" y="279.0"/>
      <point x="403.8878982235275" y="285.0" type="curve" smooth="yes"/>
      <point x="654.8878982235275" y="565.0" type="line" smooth="yes"/>
      <point x="661.3909382235275" y="572.31592"/>
      <point x="667.6410894491275" y="578.9955392128"/>
      <point x="673.6619296181275" y="585.0963283255" type="curve" smooth="yes"/>
      <point x="734.3022959259275" y="646.54192"/>
      <point x="771.6813382235275" y="649.27096"/>
      <point x="809.8878982235275" y="652.0" type="curve" smooth="yes"/>
      <point x="817.8878982235275" y="653.0"/>
      <point x="821.8878982235275" y="662.0"/>
      <point x="821.8878982235275" y="670.0" type="curve" smooth="yes"/>
      <point x="821.8878982235275" y="678.0"/>
      <point x="815.8878982235275" y="683.0"/>
      <point x="808.8878982235275" y="683.0" type="curve" smooth="yes"/>
      <point x="806.8878982235275" y="683.0"/>
      <point x="776.8878982235275" y="680.0"/>
      <point x="726.8878982235275" y="680.0" type="curve" smooth="yes"/>
      <point x="694.8878982235275" y="680.0"/>
      <point x="659.8878982235275" y="683.0"/>
      <point x="628.8878982235275" y="683.0" type="curve" smooth="yes"/>
      <point x="623.8878982235275" y="683.0"/>
      <point x="610.8878982235275" y="683.0"/>
      <point x="610.8878982235275" y="665.0" type="curve" smooth="yes"/>
      <point x="610.8878982235275" y="653.0"/>
      <point x="621.8878982235275" y="652.0"/>
      <point x="627.8878982235275" y="652.0" type="curve"/>
      <point x="648.8878982235275" y="650.0"/>
      <point x="659.8878982235275" y="643.0"/>
      <point x="659.8878982235275" y="630.0" type="curve" smooth="yes"/>
      <point x="659.8878982235275" y="613.0"/>
      <point x="636.8878982235275" y="587.0"/>
      <point x="630.8878982235275" y="580.0" type="curve" smooth="yes"/>
    </contour>
  </outline>
</glyph>
<glyph name="Z" format="2">
	<unicode hex="005A"/>
	<advance width="1398"/>
	<outline>
		<contour>
			<point x="1235.7757964471" y="1304" type="line"/>
			<point x="99.7757964471" y="54" type="line"/>
			<point x="97.7757964471" y="46"/>
			<point x="91.7757964471" y="30"/>
			<point x="91.7757964471" y="22" type="curve" smooth="yes"/>
			<point x="91.7757964471" y="0"/>
			<point x="103.7757964471" y="0"/>
			<point x="143.7757964471" y="0" type="curve" smooth="yes"/>
			<point x="1037.7757964471" y="0" type="line" smooth="yes"/>
			<point x="1087.7757964471" y="0"/>
			<point x="1089.7757964471" y="2"/>
			<point x="1101.7757964471" y="40" type="curve" smooth="yes"/>
			<point x="1241.7757964471" y="480" type="line"/>
			<point x="1241.7757964471" y="482"/>
			<point x="1249.7757964471" y="506"/>
			<point x="1249.7757964471" y="508" type="curve" smooth="yes"/>
			<point x="1249.7757964471" y="516"/>
			<point x="1245.7757964471" y="534"/>
			<point x="1223.7757964471" y="534" type="curve" smooth="yes"/>
			<point x="1201.7757964471" y="534"/>
			<point x="1197.7757964471" y="524"/>
			<point x="1185.7757964471" y="486" type="curve" smooth="yes"/>
			<point x="1101.7757964471" y="226"/>
			<point x="1011.7757964471" y="68"/>
			<point x="657.7757964471" y="68" type="curve" smooth="yes"/>
			<point x="305.7757964471" y="68" type="line"/>
			<point x="1421.7757964471" y="1296" type="line" smooth="yes"/>
			<point x="1435.7757964471" y="1312"/>
			<point x="1447.7757964471" y="1324"/>
			<point x="1447.7757964471" y="1346" type="curve" smooth="yes"/>
			<point x="1447.7757964471" y="1366"/>
			<point x="1433.7757964471" y="1366"/>
			<point x="1395.7757964471" y="1366" type="curve" smooth="yes"/>
			<point x="529.7757964471" y="1366" type="line" smooth="yes"/>
			<point x="479.7757964471" y="1366"/>
			<point x="477.7757964471" y="1364"/>
			<point x="465.7757964471" y="1324" type="curve" smooth="yes"/>
			<point x="359.7757964471" y="980" type="line" smooth="yes"/>
			<point x="353.7757964471" y="962"/>
			<point x="349.7757964471" y="950"/>
			<point x="349.7757964471" y="942" type="curve" smooth="yes"/>
			<point x="349.7757964471" y="926"/>
			<point x="361.7757964471" y="916"/>
			<point x="377.7757964471" y="916" type="curve" smooth="yes"/>
			<point x="391.7757964471" y="916"/>
			<point x="399.7757964471" y="924"/>
			<point x="403.7757964471" y="936" type="curve" smooth="yes"/>
			<point x="479.7757964471" y="1162"/>
			<point x="577.7757964471" y="1304"/>
			<point x="901.7757964471" y="1304" type="curve" smooth="yes"/>
		</contour>
	</outline>
</glyph>
<glyph name="a" format="2">
	<unicode hex="0061"/>
	<advance width="1088"/>
	<outline>
		<contour>
			<point x="55.7757964471" y="302" type="curve" smooth="yes"/>
			<point x="55.7757964471" y="82"/>
			<point x="195.7757964471" y="-22"/>
			<point x="329.7757964471" y="-22" type="curve" smooth="yes"/>
			<point x="459.7757964471" y="-22"/>
			<point x="565.7757964471" y="86"/>
			<point x="597.7757964471" y="124" type="curve"/>
			<point x="619.7757964471" y="14"/>
			<point x="719.7757964471" y="-22"/>
			<point x="783.7757964471" y="-22" type="curve" smooth="yes"/>
			<point x="841.7757964471" y="-22"/>
			<point x="891.7757964471" y="4"/>
			<point x="935.7757964471" y="88" type="curve" smooth="yes"/>
			<point x="971.7757964471" y="154"/>
			<point x="999.7757964471" y="278"/>
			<point x="999.7757964471" y="286" type="curve" smooth="yes"/>
			<point x="999.7757964471" y="296"/>
			<point x="993.7757964471" y="310"/>
			<point x="973.7757964471" y="310" type="curve" smooth="yes"/>
			<point x="949.7757964471" y="310"/>
			<point x="947.7757964471" y="300"/>
			<point x="939.7757964471" y="262" type="curve" smooth="yes"/>
			<point x="895.7757964471" y="88"/>
			<point x="851.7757964471" y="28"/>
			<point x="789.7757964471" y="28" type="curve" smooth="yes"/>
			<point x="739.7757964471" y="28"/>
			<point x="727.7757964471" y="76"/>
			<point x="727.7757964471" y="120" type="curve" smooth="yes"/>
			<point x="727.7757964471" y="158"/>
			<point x="737.7757964471" y="198"/>
			<point x="755.7757964471" y="268" type="curve" smooth="yes"/>
			<point x="817.7757964471" y="522"/>
			<point x="855.7757964471" y="674"/>
			<point x="863.7757964471" y="704" type="curve" smooth="yes"/>
			<point x="871.7757964471" y="732"/>
			<point x="883.7757964471" y="780"/>
			<point x="883.7757964471" y="786" type="curve" smooth="yes"/>
			<point x="883.7757964471" y="818"/>
			<point x="857.7757964471" y="844"/>
			<point x="821.7757964471" y="844" type="curve" smooth="yes"/>
			<point x="795.7757964471" y="844"/>
			<point x="745.7757964471" y="828"/>
			<point x="735.7757964471" y="760" type="curve"/>
			<point x="697.7757964471" y="832"/>
			<point x="635.7757964471" y="884"/>
			<point x="545.7757964471" y="884" type="curve" smooth="yes"/>
			<point x="313.7757964471" y="884"/>
			<point x="55.7757964471" y="608"/>
		</contour>
		<contour>
			<point x="203.7757964471" y="216" type="curve" smooth="yes"/>
			<point x="203.7757964471" y="314"/>
			<point x="261.7757964471" y="544"/>
			<point x="309.7757964471" y="640" type="curve" smooth="yes"/>
			<point x="373.7757964471" y="760"/>
			<point x="465.7757964471" y="834"/>
			<point x="545.7757964471" y="834" type="curve" smooth="yes"/>
			<point x="679.7757964471" y="834"/>
			<point x="709.7757964471" y="674"/>
			<point x="709.7757964471" y="660" type="curve" smooth="yes"/>
			<point x="709.7757964471" y="650"/>
			<point x="705.7757964471" y="638"/>
			<point x="703.7757964471" y="630" type="curve" smooth="yes"/>
			<point x="670.7757964471" y="501"/>
			<point x="638.7757964471" y="373"/>
			<point x="605.7757964471" y="244" type="curve" smooth="yes"/>
			<point x="595.7757964471" y="206"/>
			<point x="595.7757964471" y="204"/>
			<point x="563.7757964471" y="166" type="curve" smooth="yes"/>
			<point x="491.7757964471" y="80"/>
			<point x="409.7757964471" y="28"/>
			<point x="335.7757964471" y="28" type="curve" smooth="yes"/>
			<point x="237.7757964471" y="28"/>
			<point x="203.7757964471" y="130"/>
		</contour>
	</outline>
</glyph>
<glyph name="b" format="2">
	<unicode hex="0062"/>
	<advance width="880"/>
	<outline>
		<contour>
			<point x="271" y="-22" type="curve" smooth="yes"/>
			<point x="505" y="-22"/>
			<point x="761" y="260"/>
			<point x="761" y="560" type="curve" smooth="yes"/>
			<point x="761" y="764"/>
			<point x="635" y="884"/>
			<point x="485" y="884" type="curve" smooth="yes"/>
			<point x="383" y="884"/>
			<point x="295" y="814"/>
			<point x="249" y="770" type="curve"/>
			<point x="387" y="1320" type="line" smooth="yes"/>
			<point x="395" y="1348"/>
			<point x="395" y="1352"/>
			<point x="395" y="1360" type="curve" smooth="yes"/>
			<point x="395" y="1378"/>
			<point x="383" y="1388"/>
			<point x="365" y="1388" type="curve" smooth="yes"/>
			<point x="337" y="1388"/>
			<point x="161" y="1372"/>
			<point x="121" y="1368" type="curve" smooth="yes"/>
			<point x="101" y="1366"/>
			<point x="79" y="1364"/>
			<point x="79" y="1330" type="curve" smooth="yes"/>
			<point x="79" y="1304"/>
			<point x="101" y="1304"/>
			<point x="133" y="1304" type="curve" smooth="yes"/>
			<point x="227" y="1304"/>
			<point x="227" y="1290"/>
			<point x="227" y="1272" type="curve" smooth="yes"/>
			<point x="227" y="1260"/>
			<point x="227" y="1256"/>
			<point x="213" y="1202" type="curve" smooth="yes"/>
			<point x="79" y="668"/>
			<point x="53" y="566"/>
			<point x="31" y="472" type="curve" smooth="yes"/>
			<point x="17" y="422"/>
			<point x="3" y="362"/>
			<point x="3" y="298" type="curve" smooth="yes"/>
			<point x="3" y="126"/>
			<point x="99" y="-22"/>
		</contour>
		<contour>
			<point x="271" y="28" type="curve" smooth="yes"/>
			<point x="171" y="28"/>
			<point x="131" y="128"/>
			<point x="131" y="230" type="curve" smooth="yes"/>
			<point x="131" y="300"/>
			<point x="145" y="354"/>
			<point x="191" y="536" type="curve" smooth="yes"/>
			<point x="201" y="576"/>
			<point x="211" y="616"/>
			<point x="221" y="656" type="curve"/>
			<point x="221" y="656"/>
			<point x="221" y="656"/>
			<point x="221" y="656" type="curve"/>
			<point x="277" y="736"/>
			<point x="379" y="834"/>
			<point x="481" y="834" type="curve" smooth="yes"/>
			<point x="575" y="834"/>
			<point x="613" y="740"/>
			<point x="613" y="646" type="curve" smooth="yes"/>
			<point x="613" y="556"/>
			<point x="557" y="308"/>
			<point x="495" y="202" type="curve" smooth="yes"/>
			<point x="421" y="74"/>
			<point x="333" y="28"/>
		</contour>
	</outline>
</glyph>
<glyph name="c" format="2">
	<unicode hex="0063"/>
	<advance width="444"/>
	<outline>
		<contour>
			<point x="82.8878982235" y="160" type="curve" smooth="yes"/>
			<point x="82.8878982235" y="60"/>
			<point x="149.8878982235" y="-11"/>
			<point x="250.8878982235" y="-11" type="curve" smooth="yes"/>
			<point x="311.7848982235" y="-11"/>
			<point x="361.8037940371" y="6.1412550816"/>
			<point x="399.7401421904" y="27.375627611" type="curve" smooth="yes"/>
			<point x="455.2476783499" y="58.4452418036"/>
			<point x="484.8878982235" y="98.27774"/>
			<point x="484.8878982235" y="106" type="curve" smooth="yes"/>
			<point x="484.8878982235" y="112"/>
			<point x="477.8878982235" y="120"/>
			<point x="470.8878982235" y="120" type="curve" smooth="yes"/>
			<point x="465.8878982235" y="120"/>
			<point x="464.8878982235" y="119"/>
			<point x="455.8878982235" y="108" type="curve" smooth="yes"/>
			<point x="395.8878982235" y="34"/>
			<point x="304.8878982235" y="14"/>
			<point x="252.8878982235" y="14" type="curve" smooth="yes"/>
			<point x="196.8878982235" y="14"/>
			<point x="159.8878982235" y="51"/>
			<point x="159.8878982235" y="123" type="curve" smooth="yes"/>
			<point x="159.8878982235" y="166"/>
			<point x="178.8878982235" y="265"/>
			<point x="218.8878982235" y="329" type="curve" smooth="yes"/>
			<point x="241.8878982235" y="365"/>
			<point x="293.8878982235" y="417"/>
			<point x="356.8878982235" y="417" type="curve" smooth="yes"/>
			<point x="375.8878982235" y="417"/>
			<point x="417.8878982235" y="413"/>
			<point x="441.8878982235" y="382" type="curve"/>
			<point x="426.8189982235" y="381.60345"/>
			<point x="414.5806324685" y="376.80384673"/>
			<point x="405.2975174424" y="369.596653932" type="curve" smooth="yes"/>
			<point x="391.1709362735" y="358.62910761"/>
			<point x="383.8878982235" y="342.08625"/>
			<point x="383.8878982235" y="327" type="curve" smooth="yes"/>
			<point x="383.8878982235" y="298"/>
			<point x="409.8878982235" y="291"/>
			<point x="421.8878982235" y="291" type="curve" smooth="yes"/>
			<point x="441.8878982235" y="291"/>
			<point x="477.8878982235" y="308"/>
			<point x="477.8878982235" y="355" type="curve" smooth="yes"/>
			<point x="477.8878982235" y="408"/>
			<point x="424.8878982235" y="442"/>
			<point x="355.8878982235" y="442" type="curve" smooth="yes"/>
			<point x="219.8878982235" y="442"/>
			<point x="82.8878982235" y="304"/>
		</contour>
	</outline>
</glyph>
<glyph name="d" format="2">
	<unicode hex="0064"/>
	<advance width="1064"/>
	<outline>
		<contour>
			<point x="267" y="-22" type="curve" smooth="yes"/>
			<point x="397" y="-22"/>
			<point x="503" y="86"/>
			<point x="535" y="124" type="curve"/>
			<point x="557" y="14"/>
			<point x="657" y="-22"/>
			<point x="721" y="-22" type="curve" smooth="yes"/>
			<point x="779" y="-22"/>
			<point x="829" y="4"/>
			<point x="873" y="88" type="curve" smooth="yes"/>
			<point x="909" y="154"/>
			<point x="937" y="278"/>
			<point x="937" y="286" type="curve" smooth="yes"/>
			<point x="937" y="296"/>
			<point x="931" y="310"/>
			<point x="911" y="310" type="curve" smooth="yes"/>
			<point x="887" y="310"/>
			<point x="885" y="300"/>
			<point x="877" y="262" type="curve" smooth="yes"/>
			<point x="833" y="88"/>
			<point x="789" y="28"/>
			<point x="727" y="28" type="curve" smooth="yes"/>
			<point x="677" y="28"/>
			<point x="665" y="76"/>
			<point x="665" y="120" type="curve" smooth="yes"/>
			<point x="665" y="146"/>
			<point x="675" y="202"/>
			<point x="677" y="208" type="curve"/>
			<point x="957" y="1320" type="line" smooth="yes"/>
			<point x="965" y="1348"/>
			<point x="965" y="1352"/>
			<point x="965" y="1360" type="curve" smooth="yes"/>
			<point x="965" y="1378"/>
			<point x="953" y="1388"/>
			<point x="935" y="1388" type="curve" smooth="yes"/>
			<point x="907" y="1388"/>
			<point x="731" y="1372"/>
			<point x="691" y="1368" type="curve" smooth="yes"/>
			<point x="671" y="1366"/>
			<point x="649" y="1364"/>
			<point x="649" y="1330" type="curve" smooth="yes"/>
			<point x="649" y="1304"/>
			<point x="671" y="1304"/>
			<point x="703" y="1304" type="curve" smooth="yes"/>
			<point x="797" y="1304"/>
			<point x="797" y="1290"/>
			<point x="797" y="1272" type="curve" smooth="yes"/>
			<point x="797" y="1258"/>
			<point x="779" y="1188"/>
			<point x="769" y="1146" type="curve" smooth="yes"/>
			<point x="713" y="916"/>
			<point x="691" y="838"/>
			<point x="673" y="760" type="curve"/>
			<point x="635" y="832"/>
			<point x="573" y="884"/>
			<point x="483" y="884" type="curve" smooth="yes"/>
			<point x="251" y="884"/>
			<point x="-7" y="608"/>
			<point x="-7" y="302" type="curve" smooth="yes"/>
			<point x="-7" y="82"/>
			<point x="133" y="-22"/>
		</contour>
		<contour>
			<point x="273" y="28" type="curve" smooth="yes"/>
			<point x="175" y="28"/>
			<point x="141" y="130"/>
			<point x="141" y="216" type="curve" smooth="yes"/>
			<point x="141" y="314"/>
			<point x="199" y="544"/>
			<point x="247" y="640" type="curve" smooth="yes"/>
			<point x="311" y="760"/>
			<point x="403" y="834"/>
			<point x="483" y="834" type="curve" smooth="yes"/>
			<point x="617" y="834"/>
			<point x="647" y="672"/>
			<point x="647" y="662" type="curve" smooth="yes"/>
			<point x="647" y="652"/>
			<point x="643" y="640"/>
			<point x="641" y="632" type="curve" smooth="yes"/>
			<point x="608" y="502"/>
			<point x="576" y="372"/>
			<point x="543" y="242" type="curve" smooth="yes"/>
			<point x="535" y="210"/>
			<point x="533" y="206"/>
			<point x="501" y="166" type="curve" smooth="yes"/>
			<point x="429" y="80"/>
			<point x="347" y="28"/>
		</contour>
	</outline>
</glyph>
<glyph name="e" format="2">
  <advance width="477"/>
  <unicode hex="0065"/>
  <outline>
    <contour>
      <point x="86.8878982235275" y="172.0" type="curve" smooth="yes"/>
      <point x="86.8878982235275" y="77.0"/>
      <point x="142.8878982235275" y="-11.0"/>
      <point x="250.8878982235275" y="-11.0" type="curve" smooth="yes"/>
      <point x="309.2213982235275" y="-11.0"/>
      <point x="357.5733597049275" y="4.7284849384"/>
      <point x="394.88513161832753" y="24.7167351133" type="curve" smooth="yes"/>
      <point x="453.5176419271275" y="56.1266956789"/>
      <point x="484.8878982235275" y="98.05557"/>
      <point x="484.8878982235275" y="106.0" type="curve" smooth="yes"/>
      <point x="484.8878982235275" y="112.0"/>
      <point x="477.8878982235275" y="120.0"/>
      <point x="470.8878982235275" y="120.0" type="curve" smooth="yes"/>
      <point x="465.8878982235275" y="120.0"/>
      <point x="464.8878982235275" y="119.0"/>
      <point x="455.8878982235275" y="108.0" type="curve" smooth="yes"/>
      <point x="395.8878982235275" y="34.0"/>
      <point x="304.8878982235275" y="14.0"/>
      <point x="252.8878982235275" y="14.0" type="curve" smooth="yes"/>
      <point x="181.8878982235275" y="14.0"/>
      <point x="162.8878982235275" y="81.0"/>
      <point x="162.8878982235275" y="131.0" type="curve" smooth="yes"/>
      <point x="162.8878982235275" y="133.0"/>
      <point x="162.8878982235275" y="168.0"/>
      <point x="176.8878982235275" y="229.0" type="curve"/>
      <point x="196.65311822352749" y="229.0"/>
      <point x="216.8382940651275" y="229.0"/>
      <point x="236.89912938112752" y="229.4422407983" type="curve" smooth="yes"/>
      <point x="278.7506306987275" y="230.3648564852"/>
      <point x="320.0609582235275" y="233.21226"/>
      <point x="355.8878982235275" y="242.0" type="curve" smooth="yes"/>
      <point x="449.8878982235275" y="265.0"/>
      <point x="466.8878982235275" y="321.0"/>
      <point x="466.8878982235275" y="355.0" type="curve" smooth="yes"/>
      <point x="466.8878982235275" y="412.0"/>
      <point x="413.8878982235275" y="442.0"/>
      <point x="354.8878982235275" y="442.0" type="curve" smooth="yes"/>
      <point x="238.8878982235275" y="442.0"/>
      <point x="86.8878982235275" y="344.0"/>
    </contour>
    <contour>
      <point x="183.8878982235275" y="254.0" type="curve"/>
      <point x="227.8878982235275" y="412.0"/>
      <point x="338.8878982235275" y="417.0"/>
      <point x="354.8878982235275" y="417.0" type="curve" smooth="yes"/>
      <point x="388.8878982235275" y="417.0"/>
      <point x="429.8878982235275" y="401.0"/>
      <point x="429.8878982235275" y="355.0" type="curve" smooth="yes"/>
      <point x="429.8878982235275" y="274.11819"/>
      <point x="333.0521031524275" y="258.0073422661"/>
      <point x="245.6867654707275" y="254.798222506" type="curve" smooth="yes"/>
      <point x="223.95589096512748" y="254.0"/>
      <point x="202.81094822352748" y="254.0"/>
    </contour>
  </outline>
</glyph>
<glyph name="f" format="2">
	<unicode hex="0066"/>
	<advance width="996"/>
	<outline>
		<contour>
			<point x="657" y="800" type="curve"/>
			<point x="837" y="800" type="line" smooth="yes"/>
			<point x="877" y="800"/>
			<point x="897" y="800"/>
			<point x="897" y="836" type="curve" smooth="yes"/>
			<point x="897" y="862"/>
			<point x="877" y="862"/>
			<point x="839" y="862" type="curve" smooth="yes"/>
			<point x="669" y="862" type="line"/>
			<point x="691" y="982"/>
			<point x="719" y="1146"/>
			<point x="745" y="1254" type="curve" smooth="yes"/>
			<point x="753" y="1289"/>
			<point x="767" y="1314"/>
			<point x="784" y="1331" type="curve" smooth="yes"/>
			<point x="805" y="1352"/>
			<point x="829" y="1360"/>
			<point x="851" y="1360" type="curve" smooth="yes"/>
			<point x="863" y="1360"/>
			<point x="909" y="1356"/>
			<point x="943" y="1332" type="curve"/>
			<point x="903" y="1324"/>
			<point x="845" y="1288"/>
			<point x="845" y="1222" type="curve" smooth="yes"/>
			<point x="845" y="1172"/>
			<point x="883" y="1150"/>
			<point x="921" y="1150" type="curve" smooth="yes"/>
			<point x="975" y="1150"/>
			<point x="1031" y="1194"/>
			<point x="1031" y="1270" type="curve" smooth="yes"/>
			<point x="1031" y="1360"/>
			<point x="943" y="1410"/>
			<point x="849" y="1410" type="curve" smooth="yes"/>
			<point x="759" y="1410"/>
			<point x="669" y="1346"/>
			<point x="627" y="1264" type="curve" smooth="yes"/>
			<point x="583" y="1178"/>
			<point x="569" y="1100"/>
			<point x="527" y="862" type="curve"/>
			<point x="383" y="862" type="line" smooth="yes"/>
			<point x="345" y="862"/>
			<point x="321" y="862"/>
			<point x="321" y="826" type="curve" smooth="yes"/>
			<point x="321" y="800"/>
			<point x="343" y="800"/>
			<point x="379" y="800" type="curve" smooth="yes"/>
			<point x="515" y="800" type="line"/>
			<point x="493" y="684"/>
			<point x="468" y="550"/>
			<point x="444" y="419" type="curve" smooth="yes"/>
			<point x="407" y="221"/>
			<point x="371" y="27"/>
			<point x="345" y="-98" type="curve" smooth="yes"/>
			<point x="321" y="-208"/>
			<point x="289" y="-360"/>
			<point x="193" y="-360" type="curve" smooth="yes"/>
			<point x="163" y="-360"/>
			<point x="123" y="-348"/>
			<point x="103" y="-332" type="curve"/>
			<point x="153" y="-324"/>
			<point x="203" y="-282"/>
			<point x="203" y="-222" type="curve" smooth="yes"/>
			<point x="203" y="-172"/>
			<point x="165" y="-150"/>
			<point x="127" y="-150" type="curve" smooth="yes"/>
			<point x="73" y="-150"/>
			<point x="17" y="-194"/>
			<point x="17" y="-270" type="curve" smooth="yes"/>
			<point x="17" y="-362"/>
			<point x="109" y="-410"/>
			<point x="193" y="-410" type="curve" smooth="yes"/>
			<point x="299" y="-410"/>
			<point x="376" y="-320"/>
			<point x="429" y="-209" type="curve" smooth="yes"/>
			<point x="478" y="-107"/>
			<point x="508" y="12"/>
			<point x="523" y="94" type="curve" smooth="yes"/>
			<point x="568" y="329"/>
			<point x="612" y="564"/>
		</contour>
	</outline>
</glyph>
<glyph name="g" format="2">
  <advance width="490"/>
  <unicode hex="0067"/>
  <outline>
    <contour>
      <point x="113.8878982235275" y="160.0" type="curve" smooth="yes"/>
      <point x="113.8878982235275" y="66.0"/>
      <point x="172.8878982235275" y="0.0"/>
      <point x="252.8878982235275" y="0.0" type="curve" smooth="yes"/>
      <point x="297.8878982235275" y="0.0"/>
      <point x="337.8878982235275" y="25.0"/>
      <point x="370.8878982235275" y="55.0" type="curve"/>
      <point x="370.8878982235275" y="55.0" type="line"/>
      <point x="357.8878982235275" y="0.0"/>
      <point x="341.8878982235275" y="-67.0"/>
      <point x="333.8878982235275" y="-85.0" type="curve" smooth="yes"/>
      <point x="331.3878982235275" y="-90.5"/>
      <point x="321.1378982235275" y="-114.25"/>
      <point x="298.8878982235275" y="-136.625" type="curve" smooth="yes"/>
      <point x="276.6378982235275" y="-159.0"/>
      <point x="242.3878982235275" y="-180.0"/>
      <point x="191.8878982235275" y="-180.0" type="curve" smooth="yes"/>
      <point x="171.8878982235275" y="-180.0"/>
      <point x="139.8878982235275" y="-179.0"/>
      <point x="114.8878982235275" y="-172.0" type="curve"/>
      <point x="133.8878982235275" y="-164.0"/>
      <point x="150.8878982235275" y="-142.0"/>
      <point x="150.8878982235275" y="-121.0" type="curve" smooth="yes"/>
      <point x="150.8878982235275" y="-99.0"/>
      <point x="133.8878982235275" y="-85.0"/>
      <point x="112.8878982235275" y="-85.0" type="curve" smooth="yes"/>
      <point x="89.8878982235275" y="-85.0"/>
      <point x="57.8878982235275" y="-103.0"/>
      <point x="57.8878982235275" y="-144.0" type="curve" smooth="yes"/>
      <point x="57.8878982235275" y="-193.0"/>
      <point x="113.8878982235275" y="-205.0"/>
      <point x="193.8878982235275" y="-205.0" type="curve" smooth="yes"/>
      <point x="322.8878982235275" y="-205.0"/>
      <point x="396.8878982235275" y="-131.0"/>
      <point x="412.8878982235275" y="-67.0" type="curve" smooth="yes"/>
      <point x="525.8878982235275" y="386.0" type="line" smooth="yes"/>
      <point x="526.8878982235275" y="390.0"/>
      <point x="526.8878982235275" y="391.0"/>
      <point x="526.8878982235275" y="393.0" type="curve" smooth="yes"/>
      <point x="526.8878982235275" y="409.0"/>
      <point x="513.8878982235275" y="422.0"/>
      <point x="495.8878982235275" y="422.0" type="curve" smooth="yes"/>
      <point x="478.8878982235275" y="422.0"/>
      <point x="457.8878982235275" y="410.0"/>
      <point x="452.8878982235275" y="382.0" type="curve"/>
      <point x="430.8878982235275" y="420.0"/>
      <point x="398.8878982235275" y="442.0"/>
      <point x="357.8878982235275" y="442.0" type="curve" smooth="yes"/>
      <point x="236.8878982235275" y="442.0"/>
      <point x="113.8878982235275" y="300.0"/>
    </contour>
    <contour>
      <point x="389.8878982235275" y="130.0" type="line" smooth="yes"/>
      <point x="385.8878982235275" y="112.0"/>
      <point x="384.8878982235275" y="110.0"/>
      <point x="368.8878982235275" y="91.0" type="curve" smooth="yes"/>
      <point x="317.8878982235275" y="33.0"/>
      <point x="275.8878982235275" y="25.0"/>
      <point x="255.8878982235275" y="25.0" type="curve" smooth="yes"/>
      <point x="206.8878982235275" y="25.0"/>
      <point x="188.8878982235275" y="73.0"/>
      <point x="188.8878982235275" y="118.0" type="curve" smooth="yes"/>
      <point x="188.8878982235275" y="157.0"/>
      <point x="212.8878982235275" y="269.0"/>
      <point x="242.8878982235275" y="327.0" type="curve" smooth="yes"/>
      <point x="268.8878982235275" y="374.0"/>
      <point x="312.8878982235275" y="417.0"/>
      <point x="358.8878982235275" y="417.0" type="curve" smooth="yes"/>
      <point x="422.8878982235275" y="417.0"/>
      <point x="439.8878982235275" y="341.0"/>
      <point x="439.8878982235275" y="332.0" type="curve" smooth="yes"/>
      <point x="439.8878982235275" y="330.0"/>
      <point x="437.8878982235275" y="322.0"/>
      <point x="436.8878982235275" y="317.0" type="curve" smooth="yes"/>
    </contour>
  </outline>
</glyph>
<glyph name="h" format="2">
	<unicode hex="0068"/>
	<advance width="1184"/>
	<outline>
		<contour>
			<point x="699.7757964471" y="884" type="curve" smooth="yes"/>
			<point x="579.7757964471" y="884"/>
			<point x="477.7757964471" y="828"/>
			<point x="397.7757964471" y="730" type="curve"/>
			<point x="545.7757964471" y="1320" type="line" smooth="yes"/>
			<point x="553.7757964471" y="1348"/>
			<point x="553.7757964471" y="1352"/>
			<point x="553.7757964471" y="1360" type="curve" smooth="yes"/>
			<point x="553.7757964471" y="1378"/>
			<point x="541.7757964471" y="1388"/>
			<point x="523.7757964471" y="1388" type="curve" smooth="yes"/>
			<point x="495.7757964471" y="1388"/>
			<point x="319.7757964471" y="1372"/>
			<point x="279.7757964471" y="1368" type="curve" smooth="yes"/>
			<point x="259.7757964471" y="1366"/>
			<point x="237.7757964471" y="1364"/>
			<point x="237.7757964471" y="1330" type="curve" smooth="yes"/>
			<point x="237.7757964471" y="1304"/>
			<point x="259.7757964471" y="1304"/>
			<point x="291.7757964471" y="1304" type="curve" smooth="yes"/>
			<point x="385.7757964471" y="1304"/>
			<point x="385.7757964471" y="1290"/>
			<point x="385.7757964471" y="1272" type="curve" smooth="yes"/>
			<point x="385.7757964471" y="1264"/>
			<point x="385.7757964471" y="1260"/>
			<point x="375.7757964471" y="1224" type="curve" smooth="yes"/>
			<point x="89.7757964471" y="74" type="line" smooth="yes"/>
			<point x="81.7757964471" y="46"/>
			<point x="81.7757964471" y="42"/>
			<point x="81.7757964471" y="36" type="curve" smooth="yes"/>
			<point x="81.7757964471" y="4"/>
			<point x="107.7757964471" y="-22"/>
			<point x="143.7757964471" y="-22" type="curve" smooth="yes"/>
			<point x="177.7757964471" y="-22"/>
			<point x="205.7757964471" y="-2"/>
			<point x="219.7757964471" y="26" type="curve"/>
			<point x="223.7757964471" y="36"/>
			<point x="241.7757964471" y="108"/>
			<point x="251.7757964471" y="150" type="curve" smooth="yes"/>
			<point x="305.7757964471" y="358"/>
			<point x="323.7757964471" y="434"/>
			<point x="329.7757964471" y="464" type="curve"/>
			<point x="337.7757964471" y="493"/>
			<point x="345.7757964471" y="523"/>
			<point x="353.7757964471" y="552" type="curve"/>
			<point x="363.7757964471" y="598"/>
			<point x="477.7757964471" y="834"/>
			<point x="693.7757964471" y="834" type="curve" smooth="yes"/>
			<point x="801.7757964471" y="834"/>
			<point x="801.7757964471" y="728"/>
			<point x="801.7757964471" y="694" type="curve" smooth="yes"/>
			<point x="801.7757964471" y="572"/>
			<point x="707.7757964471" y="328"/>
			<point x="685.7757964471" y="266" type="curve" smooth="yes"/>
			<point x="661.7757964471" y="204"/>
			<point x="653.7757964471" y="184"/>
			<point x="653.7757964471" y="146" type="curve" smooth="yes"/>
			<point x="653.7757964471" y="38"/>
			<point x="735.7757964471" y="-22"/>
			<point x="825.7757964471" y="-22" type="curve" smooth="yes"/>
			<point x="1017.7757964471" y="-22"/>
			<point x="1095.7757964471" y="264"/>
			<point x="1095.7757964471" y="286" type="curve" smooth="yes"/>
			<point x="1095.7757964471" y="296"/>
			<point x="1089.7757964471" y="310"/>
			<point x="1069.7757964471" y="310" type="curve" smooth="yes"/>
			<point x="1047.7757964471" y="310"/>
			<point x="1045.7757964471" y="300"/>
			<point x="1037.7757964471" y="274" type="curve" smooth="yes"/>
			<point x="987.7757964471" y="104"/>
			<point x="903.7757964471" y="28"/>
			<point x="831.7757964471" y="28" type="curve" smooth="yes"/>
			<point x="817.7757964471" y="28"/>
			<point x="781.7757964471" y="28"/>
			<point x="781.7757964471" y="92" type="curve" smooth="yes"/>
			<point x="781.7757964471" y="142"/>
			<point x="801.7757964471" y="194"/>
			<point x="817.7757964471" y="238" type="curve" smooth="yes"/>
			<point x="857.7757964471" y="340"/>
			<point x="937.7757964471" y="552"/>
			<point x="937.7757964471" y="664" type="curve" smooth="yes"/>
			<point x="937.7757964471" y="842"/>
			<point x="805.7757964471" y="884"/>
		</contour>
	</outline>
</glyph>
<glyph name="i" format="2">
	<unicode hex="0069"/>
	<advance width="351"/>
	<outline>
		<contour>
			<point x="244.5" y="624" type="curve" smooth="yes"/>
			<point x="244.5" y="646"/>
			<point x="228.5" y="661"/>
			<point x="206.5" y="661" type="curve" smooth="yes"/>
			<point x="179.5" y="661"/>
			<point x="152.5" y="635"/>
			<point x="152.5" y="608" type="curve" smooth="yes"/>
			<point x="152.5" y="588"/>
			<point x="167.5" y="571"/>
			<point x="190.5" y="571" type="curve" smooth="yes"/>
			<point x="217.5" y="571"/>
			<point x="244.5" y="596"/>
		</contour>
		<contour>
			<point x="37.5" y="73" type="curve" smooth="yes"/>
			<point x="37.5" y="26"/>
			<point x="72.5" y="-11"/>
			<point x="123.5" y="-11" type="curve" smooth="yes"/>
			<point x="220.5" y="-11"/>
			<point x="258.5" y="133"/>
			<point x="258.5" y="143" type="curve" smooth="yes"/>
			<point x="258.5" y="148"/>
			<point x="255.5" y="155"/>
			<point x="245.5" y="155" type="curve" smooth="yes"/>
			<point x="234.5" y="155"/>
			<point x="233.5" y="150"/>
			<point x="229.5" y="137" type="curve" smooth="yes"/>
			<point x="205.5" y="55"/>
			<point x="164.5" y="14"/>
			<point x="126.5" y="14" type="curve" smooth="yes"/>
			<point x="110.5" y="14"/>
			<point x="102.5" y="22"/>
			<point x="102.5" y="47" type="curve" smooth="yes"/>
			<point x="102.5" y="71"/>
			<point x="110.5" y="93"/>
			<point x="118.5" y="112" type="curve" smooth="yes"/>
			<point x="161.5" y="226"/>
			<point x="180.17322" y="272.48502"/>
			<point x="197.5" y="321" type="curve" smooth="yes"/>
			<point x="204.5" y="339"/>
			<point x="204.5" y="349"/>
			<point x="204.5" y="358" type="curve" smooth="yes"/>
			<point x="204.5" y="415"/>
			<point x="159.5" y="442"/>
			<point x="119.5" y="442" type="curve" smooth="yes"/>
			<point x="22.5" y="442"/>
			<point x="-16.5" y="299"/>
			<point x="-16.5" y="288" type="curve" smooth="yes"/>
			<point x="-16.5" y="279"/>
			<point x="-9.5" y="276"/>
			<point x="-2.5" y="276" type="curve" smooth="yes"/>
			<point x="8.5" y="276"/>
			<point x="9.5" y="282"/>
			<point x="13.5" y="295" type="curve" smooth="yes"/>
			<point x="34.5" y="366"/>
			<point x="72.5" y="417"/>
			<point x="116.5" y="417" type="curve" smooth="yes"/>
			<point x="126.5" y="417"/>
			<point x="140.5" y="415"/>
			<point x="140.5" y="385" type="curve" smooth="yes"/>
			<point x="140.5" y="360"/>
			<point x="130.5" y="334"/>
			<point x="121.5" y="311" type="curve" smooth="yes"/>
			<point x="97.857" y="249.395"/>
			<point x="74.214" y="187.79"/>
			<point x="50.5" y="126" type="curve" smooth="yes"/>
			<point x="43.5" y="107"/>
			<point x="37.5" y="91"/>
		</contour>
	</outline>
</glyph>
<glyph name="j" format="2">
  <advance width="420"/>
  <unicode hex="006A"/>
  <outline>
    <contour>
      <point x="443.8878982235275" y="624.0" type="curve" smooth="yes"/>
      <point x="443.8878982235275" y="643.0"/>
      <point x="429.8878982235275" y="661.0"/>
      <point x="405.8878982235275" y="661.0" type="curve" smooth="yes"/>
      <point x="379.8878982235275" y="661.0"/>
      <point x="351.8878982235275" y="638.0"/>
      <point x="351.8878982235275" y="608.0" type="curve" smooth="yes"/>
      <point x="351.8878982235275" y="583.0"/>
      <point x="370.8878982235275" y="571.0"/>
      <point x="388.8878982235275" y="571.0" type="curve" smooth="yes"/>
      <point x="419.8878982235275" y="571.0"/>
      <point x="443.8878982235275" y="600.0"/>
    </contour>
    <contour>
      <point x="239.8878982235275" y="-46.0" type="line" smooth="yes"/>
      <point x="218.8878982235275" y="-131.0"/>
      <point x="165.8878982235275" y="-180.0"/>
      <point x="115.8878982235275" y="-180.0" type="curve" smooth="yes"/>
      <point x="94.8878982235275" y="-180.0"/>
      <point x="91.8878982235275" y="-178.0"/>
      <point x="79.8878982235275" y="-174.0" type="curve"/>
      <point x="98.8878982235275" y="-167.0"/>
      <point x="119.8878982235275" y="-146.0"/>
      <point x="119.8878982235275" y="-121.0" type="curve" smooth="yes"/>
      <point x="119.8878982235275" y="-99.0"/>
      <point x="102.8878982235275" y="-85.0"/>
      <point x="81.8878982235275" y="-85.0" type="curve" smooth="yes"/>
      <point x="53.8878982235275" y="-85.0"/>
      <point x="26.887898223527497" y="-108.0"/>
      <point x="26.887898223527497" y="-142.0" type="curve" smooth="yes"/>
      <point x="26.887898223527497" y="-185.0"/>
      <point x="70.8878982235275" y="-205.0"/>
      <point x="116.8878982235275" y="-205.0" type="curve" smooth="yes"/>
      <point x="188.8878982235275" y="-205.0"/>
      <point x="284.8878982235275" y="-152.0"/>
      <point x="309.8878982235275" y="-53.0" type="curve" smooth="yes"/>
      <point x="402.8878982235275" y="317.0" type="line" smooth="yes"/>
      <point x="406.8878982235275" y="333.0"/>
      <point x="406.8878982235275" y="348.0"/>
      <point x="406.8878982235275" y="349.0" type="curve" smooth="yes"/>
      <point x="406.8878982235275" y="404.0"/>
      <point x="365.8878982235275" y="442.0"/>
      <point x="309.8878982235275" y="442.0" type="curve" smooth="yes"/>
      <point x="205.8878982235275" y="442.0"/>
      <point x="146.8878982235275" y="299.0"/>
      <point x="146.8878982235275" y="288.0" type="curve" smooth="yes"/>
      <point x="146.8878982235275" y="279.0"/>
      <point x="153.8878982235275" y="276.0"/>
      <point x="160.8878982235275" y="276.0" type="curve" smooth="yes"/>
      <point x="170.8878982235275" y="276.0"/>
      <point x="171.8878982235275" y="279.0"/>
      <point x="179.8878982235275" y="298.0" type="curve" smooth="yes"/>
      <point x="207.8878982235275" y="362.0"/>
      <point x="255.8878982235275" y="417.0"/>
      <point x="307.8878982235275" y="417.0" type="curve" smooth="yes"/>
      <point x="337.8878982235275" y="417.0"/>
      <point x="338.8878982235275" y="389.0"/>
      <point x="338.8878982235275" y="371.0" type="curve" smooth="yes"/>
      <point x="338.8878982235275" y="370.0"/>
      <point x="338.8878982235275" y="351.0"/>
      <point x="335.8878982235275" y="339.0" type="curve" smooth="yes"/>
    </contour>
  </outline>
</glyph>
<glyph name="k" format="2">
	<unicode hex="006B"/>
	<advance width="1070"/>
	<outline>
		<contour>
			<point x="681" y="-22" type="curve" smooth="yes"/>
			<point x="757" y="-22"/>
			<point x="805" y="24"/>
			<point x="841" y="82" type="curve" smooth="yes"/>
			<point x="891" y="158"/>
			<point x="919" y="278"/>
			<point x="919" y="286" type="curve" smooth="yes"/>
			<point x="919" y="296"/>
			<point x="913" y="310"/>
			<point x="893" y="310" type="curve" smooth="yes"/>
			<point x="871" y="310"/>
			<point x="867" y="300"/>
			<point x="857" y="264" type="curve" smooth="yes"/>
			<point x="831" y="162"/>
			<point x="781" y="28"/>
			<point x="687" y="28" type="curve" smooth="yes"/>
			<point x="629" y="28"/>
			<point x="623" y="80"/>
			<point x="623" y="124" type="curve" smooth="yes"/>
			<point x="623" y="174"/>
			<point x="635" y="226"/>
			<point x="637" y="230" type="curve"/>
			<point x="641" y="242"/>
			<point x="645" y="266"/>
			<point x="645" y="290" type="curve" smooth="yes"/>
			<point x="645" y="430"/>
			<point x="499" y="484"/>
			<point x="345" y="502" type="curve"/>
			<point x="405" y="540"/>
			<point x="449" y="582"/>
			<point x="513" y="646" type="curve" smooth="yes"/>
			<point x="615" y="748"/>
			<point x="699" y="834"/>
			<point x="805" y="834" type="curve" smooth="yes"/>
			<point x="829" y="834"/>
			<point x="855" y="828"/>
			<point x="871" y="810" type="curve"/>
			<point x="781" y="802"/>
			<point x="759" y="728"/>
			<point x="759" y="700" type="curve" smooth="yes"/>
			<point x="759" y="662"/>
			<point x="787" y="628"/>
			<point x="837" y="628" type="curve" smooth="yes"/>
			<point x="883" y="628"/>
			<point x="947" y="664"/>
			<point x="947" y="752" type="curve" smooth="yes"/>
			<point x="947" y="818"/>
			<point x="899" y="884"/>
			<point x="805" y="884" type="curve" smooth="yes"/>
			<point x="683" y="884"/>
			<point x="585" y="786"/>
			<point x="501" y="700" type="curve" smooth="yes"/>
			<point x="405" y="606"/>
			<point x="357" y="558"/>
			<point x="283" y="526" type="curve"/>
			<point x="483" y="1320" type="line" smooth="yes"/>
			<point x="491" y="1348"/>
			<point x="491" y="1352"/>
			<point x="491" y="1360" type="curve" smooth="yes"/>
			<point x="491" y="1378"/>
			<point x="479" y="1388"/>
			<point x="461" y="1388" type="curve" smooth="yes"/>
			<point x="433" y="1388"/>
			<point x="257" y="1372"/>
			<point x="217" y="1368" type="curve" smooth="yes"/>
			<point x="197" y="1366"/>
			<point x="175" y="1364"/>
			<point x="175" y="1330" type="curve" smooth="yes"/>
			<point x="175" y="1304"/>
			<point x="197" y="1304"/>
			<point x="229" y="1304" type="curve" smooth="yes"/>
			<point x="323" y="1304"/>
			<point x="323" y="1290"/>
			<point x="323" y="1272" type="curve" smooth="yes"/>
			<point x="323" y="1264"/>
			<point x="323" y="1260"/>
			<point x="313" y="1224" type="curve" smooth="yes"/>
			<point x="27" y="74" type="line" smooth="yes"/>
			<point x="19" y="46"/>
			<point x="19" y="42"/>
			<point x="19" y="36" type="curve" smooth="yes"/>
			<point x="19" y="4"/>
			<point x="45" y="-22"/>
			<point x="81" y="-22" type="curve" smooth="yes"/>
			<point x="147" y="-22"/>
			<point x="161" y="36"/>
			<point x="171" y="76" type="curve" smooth="yes"/>
			<point x="202" y="202"/>
			<point x="234" y="328"/>
			<point x="265" y="454" type="curve"/>
			<point x="401" y="442"/>
			<point x="503" y="388"/>
			<point x="503" y="288" type="curve" smooth="yes"/>
			<point x="503" y="276"/>
			<point x="503" y="268"/>
			<point x="497" y="238" type="curve" smooth="yes"/>
			<point x="495" y="230"/>
			<point x="489" y="202"/>
			<point x="489" y="180" type="curve" smooth="yes"/>
			<point x="489" y="62"/>
			<point x="571" y="-22"/>
		</contour>
	</outline>
</glyph>
<glyph name="l" format="2">
  <advance width="306"/>
  <unicode hex="006C"/>
  <outline>
    <contour>
      <point x="157.8878982235275" y="104.0" type="curve" smooth="yes"/>
      <point x="297.8878982235275" y="660.0" type="line" smooth="yes"/>
      <point x="301.8878982235275" y="674.0"/>
      <point x="301.8878982235275" y="676.0"/>
      <point x="301.8878982235275" y="680.0" type="curve" smooth="yes"/>
      <point x="301.8878982235275" y="689.0"/>
      <point x="295.8878982235275" y="694.0"/>
      <point x="286.8878982235275" y="694.0" type="curve" smooth="yes"/>
      <point x="269.8878982235275" y="694.0"/>
      <point x="186.8878982235275" y="686.0"/>
      <point x="164.8878982235275" y="684.0" type="curve" smooth="yes"/>
      <point x="156.8878982235275" y="683.0"/>
      <point x="144.8878982235275" y="682.0"/>
      <point x="144.8878982235275" y="665.0" type="curve" smooth="yes"/>
      <point x="144.8878982235275" y="652.0"/>
      <point x="155.8878982235275" y="652.0"/>
      <point x="170.8878982235275" y="652.0" type="curve" smooth="yes"/>
      <point x="217.8878982235275" y="652.0"/>
      <point x="217.8878982235275" y="644.0"/>
      <point x="217.8878982235275" y="636.0" type="curve" smooth="yes"/>
      <point x="217.8878982235275" y="632.0"/>
      <point x="217.8878982235275" y="630.0"/>
      <point x="212.8878982235275" y="612.0" type="curve" smooth="yes"/>
      <point x="89.8878982235275" y="120.0" type="line" smooth="yes"/>
      <point x="84.8878982235275" y="100.0"/>
      <point x="84.8878982235275" y="86.0"/>
      <point x="84.8878982235275" y="82.0" type="curve" smooth="yes"/>
      <point x="84.8878982235275" y="19.0"/>
      <point x="135.8878982235275" y="-11.0"/>
      <point x="179.8878982235275" y="-11.0" type="curve" smooth="yes"/>
      <point x="224.8878982235275" y="-11.0"/>
      <point x="245.8878982235275" y="25.0"/>
      <point x="256.8878982235275" y="47.0" type="curve" smooth="yes"/>
      <point x="274.8878982235275" y="83.0"/>
      <point x="286.8878982235275" y="140.0"/>
      <point x="286.8878982235275" y="143.0" type="curve" smooth="yes"/>
      <point x="286.8878982235275" y="148.0"/>
      <point x="283.8878982235275" y="155.0"/>
      <point x="273.8878982235275" y="155.0" type="curve" smooth="yes"/>
      <point x="261.8878982235275" y="155.0"/>
      <point x="260.8878982235275" y="150.0"/>
      <point x="256.8878982235275" y="131.0" type="curve" smooth="yes"/>
      <point x="239.8878982235275" y="63.0"/>
      <point x="219.8878982235275" y="14.0"/>
      <point x="182.8878982235275" y="14.0" type="curve" smooth="yes"/>
      <point x="162.8878982235275" y="14.0"/>
      <point x="151.8878982235275" y="28.0"/>
      <point x="151.8878982235275" y="60.0" type="curve" smooth="yes"/>
      <point x="151.8878982235275" y="81.0"/>
      <point x="153.8878982235275" y="88.0"/>
    </contour>
  </outline>
</glyph>
<glyph name="m" format="2">
	<unicode hex="006D"/>
	<advance width="905"/>
	<outline>
		<contour>
			<point x="68.5" y="-11" type="curve" smooth="yes"/>
			<point x="82.5" y="-11"/>
			<point x="97.5" y="-2"/>
			<point x="104.5" y="10" type="curve"/>
			<point x="107.5" y="16"/>
			<point x="115.5" y="48"/>
			<point x="120.5" y="68" type="curve" smooth="yes"/>
			<point x="155.5" y="204"/>
			<point x="173.5" y="280"/>
			<point x="174.5" y="285" type="curve"/>
			<point x="176.5" y="291"/>
			<point x="201.5" y="339"/>
			<point x="237.5" y="374" type="curve" smooth="yes"/>
			<point x="266.5" y="401"/>
			<point x="304.5" y="417"/>
			<point x="343.5" y="417" type="curve" smooth="yes"/>
			<point x="397.5" y="417"/>
			<point x="397.5" y="364"/>
			<point x="397.5" y="347" type="curve" smooth="yes"/>
			<point x="397.5" y="335"/>
			<point x="397.5" y="321"/>
			<point x="385.5" y="272" type="curve" smooth="yes"/>
			<point x="370.182" y="211.061"/>
			<point x="354.864" y="150.122"/>
			<point x="339.5" y="89" type="curve" smooth="yes"/>
			<point x="330.5" y="54"/>
			<point x="322.5" y="23"/>
			<point x="322.5" y="18" type="curve" smooth="yes"/>
			<point x="322.5" y="5"/>
			<point x="331.5" y="-11"/>
			<point x="353.5" y="-11" type="curve" smooth="yes"/>
			<point x="367.5" y="-11"/>
			<point x="382.5" y="-2"/>
			<point x="389.5" y="10" type="curve"/>
			<point x="392.5" y="16"/>
			<point x="400.5" y="48"/>
			<point x="405.5" y="68" type="curve" smooth="yes"/>
			<point x="440.5" y="204"/>
			<point x="458.5" y="277"/>
			<point x="459.5" y="285" type="curve"/>
			<point x="461.5" y="291"/>
			<point x="486.5" y="339"/>
			<point x="522.5" y="374" type="curve" smooth="yes"/>
			<point x="551.5" y="401"/>
			<point x="589.5" y="417"/>
			<point x="628.5" y="417" type="curve" smooth="yes"/>
			<point x="682.5" y="417"/>
			<point x="682.5" y="364"/>
			<point x="682.5" y="347" type="curve" smooth="yes"/>
			<point x="682.5" y="286"/>
			<point x="635.5" y="164"/>
			<point x="624.5" y="133" type="curve" smooth="yes"/>
			<point x="612.5" y="102"/>
			<point x="608.5" y="92"/>
			<point x="608.5" y="73" type="curve" smooth="yes"/>
			<point x="608.5" y="19"/>
			<point x="649.5" y="-11"/>
			<point x="694.5" y="-11" type="curve" smooth="yes"/>
			<point x="790.5" y="-11"/>
			<point x="829.5" y="132"/>
			<point x="829.5" y="143" type="curve" smooth="yes"/>
			<point x="829.5" y="148"/>
			<point x="826.5" y="155"/>
			<point x="816.5" y="155" type="curve" smooth="yes"/>
			<point x="805.5" y="155"/>
			<point x="804.5" y="150"/>
			<point x="800.5" y="137" type="curve" smooth="yes"/>
			<point x="775.5" y="52"/>
			<point x="733.5" y="14"/>
			<point x="697.5" y="14" type="curve" smooth="yes"/>
			<point x="690.5" y="14"/>
			<point x="672.5" y="14"/>
			<point x="672.5" y="46" type="curve" smooth="yes"/>
			<point x="672.5" y="71"/>
			<point x="682.5" y="97"/>
			<point x="690.5" y="119" type="curve" smooth="yes"/>
			<point x="710.5" y="170"/>
			<point x="750.5" y="276"/>
			<point x="750.5" y="332" type="curve" smooth="yes"/>
			<point x="750.5" y="421"/>
			<point x="684.5" y="442"/>
			<point x="631.5" y="442" type="curve" smooth="yes"/>
			<point x="536.5" y="442"/>
			<point x="484.5" y="371"/>
			<point x="466.5" y="346" type="curve"/>
			<point x="456.5" y="429"/>
			<point x="388.5" y="442"/>
			<point x="346.5" y="442" type="curve" smooth="yes"/>
			<point x="253.5" y="442"/>
			<point x="204.5" y="376"/>
			<point x="188.5" y="355" type="curve"/>
			<point x="182.5" y="409"/>
			<point x="141.5" y="442"/>
			<point x="91.5" y="442" type="curve" smooth="yes"/>
			<point x="49.5" y="442"/>
			<point x="28.5" y="411"/>
			<point x="14.5" y="384" type="curve" smooth="yes"/>
			<point x="-2.5" y="349"/>
			<point x="-16.5" y="292"/>
			<point x="-16.5" y="288" type="curve" smooth="yes"/>
			<point x="-16.5" y="279"/>
			<point x="-9.5" y="276"/>
			<point x="-2.5" y="276" type="curve" smooth="yes"/>
			<point x="8.5" y="276"/>
			<point x="10.5" y="281"/>
			<point x="15.5" y="301" type="curve" smooth="yes"/>
			<point x="34.5" y="380"/>
			<point x="55.5" y="417"/>
			<point x="89.5" y="417" type="curve" smooth="yes"/>
			<point x="119.5" y="417"/>
			<point x="119.5" y="385"/>
			<point x="119.5" y="370" type="curve" smooth="yes"/>
			<point x="119.5" y="349"/>
			<point x="111.5" y="318"/>
			<point x="105.5" y="292" type="curve" smooth="yes"/>
			<point x="98.5" y="266"/>
			<point x="87.49728" y="223.28887"/>
			<point x="44.5" y="47" type="curve" smooth="yes"/>
			<point x="37.5" y="23"/>
			<point x="37.5" y="21"/>
			<point x="37.5" y="18" type="curve" smooth="yes"/>
			<point x="37.5" y="5"/>
			<point x="46.5" y="-11"/>
		</contour>
	</outline>
</glyph>
<glyph name="n" format="2">
	<unicode hex="006E"/>
	<advance width="1238"/>
	<outline>
		<contour>
			<point x="199.7757964471" y="-22" type="curve" smooth="yes"/>
			<point x="227.7757964471" y="-22"/>
			<point x="257.7757964471" y="-4"/>
			<point x="271.7757964471" y="20" type="curve"/>
			<point x="277.7757964471" y="32"/>
			<point x="293.7757964471" y="96"/>
			<point x="303.7757964471" y="136" type="curve" smooth="yes"/>
			<point x="373.7757964471" y="408"/>
			<point x="405.7757964471" y="546"/>
			<point x="411.7757964471" y="570" type="curve"/>
			<point x="415.7757964471" y="582"/>
			<point x="465.7757964471" y="678"/>
			<point x="537.7757964471" y="748" type="curve" smooth="yes"/>
			<point x="595.7757964471" y="802"/>
			<point x="671.7757964471" y="834"/>
			<point x="749.7757964471" y="834" type="curve" smooth="yes"/>
			<point x="857.7757964471" y="834"/>
			<point x="857.7757964471" y="728"/>
			<point x="857.7757964471" y="694" type="curve" smooth="yes"/>
			<point x="857.7757964471" y="572"/>
			<point x="763.7757964471" y="328"/>
			<point x="741.7757964471" y="266" type="curve" smooth="yes"/>
			<point x="717.7757964471" y="204"/>
			<point x="709.7757964471" y="184"/>
			<point x="709.7757964471" y="146" type="curve" smooth="yes"/>
			<point x="709.7757964471" y="38"/>
			<point x="791.7757964471" y="-22"/>
			<point x="881.7757964471" y="-22" type="curve" smooth="yes"/>
			<point x="1073.7757964471" y="-22"/>
			<point x="1151.7757964471" y="264"/>
			<point x="1151.7757964471" y="286" type="curve" smooth="yes"/>
			<point x="1151.7757964471" y="296"/>
			<point x="1145.7757964471" y="310"/>
			<point x="1125.7757964471" y="310" type="curve" smooth="yes"/>
			<point x="1103.7757964471" y="310"/>
			<point x="1101.7757964471" y="300"/>
			<point x="1093.7757964471" y="274" type="curve" smooth="yes"/>
			<point x="1043.7757964471" y="104"/>
			<point x="959.7757964471" y="28"/>
			<point x="887.7757964471" y="28" type="curve" smooth="yes"/>
			<point x="873.7757964471" y="28"/>
			<point x="837.7757964471" y="28"/>
			<point x="837.7757964471" y="92" type="curve" smooth="yes"/>
			<point x="837.7757964471" y="142"/>
			<point x="857.7757964471" y="194"/>
			<point x="873.7757964471" y="238" type="curve" smooth="yes"/>
			<point x="913.7757964471" y="340"/>
			<point x="993.7757964471" y="552"/>
			<point x="993.7757964471" y="664" type="curve" smooth="yes"/>
			<point x="993.7757964471" y="842"/>
			<point x="861.7757964471" y="884"/>
			<point x="755.7757964471" y="884" type="curve" smooth="yes"/>
			<point x="569.7757964471" y="884"/>
			<point x="471.7757964471" y="752"/>
			<point x="439.7757964471" y="710" type="curve"/>
			<point x="427.7757964471" y="818"/>
			<point x="345.7757964471" y="884"/>
			<point x="245.7757964471" y="884" type="curve" smooth="yes"/>
			<point x="161.7757964471" y="884"/>
			<point x="119.7757964471" y="822"/>
			<point x="91.7757964471" y="768" type="curve" smooth="yes"/>
			<point x="57.7757964471" y="698"/>
			<point x="29.7757964471" y="584"/>
			<point x="29.7757964471" y="576" type="curve" smooth="yes"/>
			<point x="29.7757964471" y="558"/>
			<point x="43.7757964471" y="552"/>
			<point x="57.7757964471" y="552" type="curve" smooth="yes"/>
			<point x="79.7757964471" y="552"/>
			<point x="83.7757964471" y="562"/>
			<point x="93.7757964471" y="602" type="curve" smooth="yes"/>
			<point x="131.7757964471" y="760"/>
			<point x="173.7757964471" y="834"/>
			<point x="241.7757964471" y="834" type="curve" smooth="yes"/>
			<point x="301.7757964471" y="834"/>
			<point x="301.7757964471" y="770"/>
			<point x="301.7757964471" y="740" type="curve" smooth="yes"/>
			<point x="301.7757964471" y="698"/>
			<point x="285.7757964471" y="636"/>
			<point x="273.7757964471" y="584" type="curve" smooth="yes"/>
			<point x="259.7757964471" y="532"/>
			<point x="237.7757964471" y="447"/>
			<point x="151.7757964471" y="94" type="curve" smooth="yes"/>
			<point x="137.7757964471" y="46"/>
			<point x="137.7757964471" y="42"/>
			<point x="137.7757964471" y="36" type="curve" smooth="yes"/>
			<point x="137.7757964471" y="10"/>
			<point x="155.7757964471" y="-22"/>
		</contour>
	</outline>
</glyph>
<glyph name="o" format="2">
	<unicode hex="006F"/>
	<advance width="994"/>
	<outline>
		<contour>
			<point x="873" y="542" type="curve" smooth="yes"/>
			<point x="873" y="742"/>
			<point x="737" y="884"/>
			<point x="541" y="884" type="curve" smooth="yes"/>
			<point x="269" y="884"/>
			<point x="-5" y="608"/>
			<point x="-5" y="320" type="curve" smooth="yes"/>
			<point x="-5" y="110"/>
			<point x="141" y="-22"/>
			<point x="327" y="-22" type="curve" smooth="yes"/>
			<point x="599" y="-22"/>
			<point x="873" y="254"/>
		</contour>
		<contour>
			<point x="329" y="28" type="curve" smooth="yes"/>
			<point x="249" y="28"/>
			<point x="149" y="78"/>
			<point x="149" y="246" type="curve" smooth="yes"/>
			<point x="149" y="332"/>
			<point x="187" y="530"/>
			<point x="267" y="658" type="curve" smooth="yes"/>
			<point x="323" y="748"/>
			<point x="431" y="834"/>
			<point x="539" y="834" type="curve" smooth="yes"/>
			<point x="629" y="834"/>
			<point x="719" y="772"/>
			<point x="719" y="616" type="curve" smooth="yes"/>
			<point x="719" y="540"/>
			<point x="685" y="348"/>
			<point x="607" y="218" type="curve" smooth="yes"/>
			<point x="543" y="108"/>
			<point x="431" y="28"/>
		</contour>
	</outline>
</glyph>
<glyph name="p" format="2">
	<unicode hex="0070"/>
	<advance width="515"/>
	<outline>
		<contour>
			<point x="0.5" y="-125" type="line" smooth="yes"/>
			<point x="-6.5" y="-154"/>
			<point x="-8.5" y="-163"/>
			<point x="-51.5" y="-163" type="curve" smooth="yes"/>
			<point x="-62.5" y="-163"/>
			<point x="-74.5" y="-163"/>
			<point x="-74.5" y="-181" type="curve" smooth="yes"/>
			<point x="-74.5" y="-185"/>
			<point x="-72.5" y="-194"/>
			<point x="-61.5" y="-194" type="curve" smooth="yes"/>
			<point x="-12.5" y="-192"/>
			<point x="10.5" y="-191"/>
			<point x="24.5" y="-191" type="curve" smooth="yes"/>
			<point x="57.5" y="-191"/>
			<point x="92.5625" y="-194"/>
			<point x="123.5" y="-194" type="curve" smooth="yes"/>
			<point x="129.5" y="-194"/>
			<point x="142.5" y="-194"/>
			<point x="142.5" y="-176" type="curve" smooth="yes"/>
			<point x="142.5" y="-163"/>
			<point x="132.5" y="-163"/>
			<point x="115.5" y="-163" type="curve" smooth="yes"/>
			<point x="68.5" y="-163"/>
			<point x="68.5" y="-156"/>
			<point x="68.5" y="-147" type="curve" smooth="yes"/>
			<point x="68.5" y="-141"/>
			<point x="75.5" y="-114"/>
			<point x="79.5" y="-98" type="curve" smooth="yes"/>
			<point x="91.821" y="-48.383"/>
			<point x="104.142" y="1.234"/>
			<point x="116.5" y="51" type="curve"/>
			<point x="126.5" y="30"/>
			<point x="154.5" y="-11"/>
			<point x="211.5" y="-11" type="curve" smooth="yes"/>
			<point x="328.5" y="-11"/>
			<point x="456.5" y="130"/>
			<point x="456.5" y="280" type="curve" smooth="yes"/>
			<point x="456.5" y="382"/>
			<point x="393.5" y="442"/>
			<point x="318.5" y="442" type="curve" smooth="yes"/>
			<point x="297.5" y="442"/>
			<point x="247.5" y="437"/>
			<point x="186.5" y="369" type="curve"/>
			<point x="171.5" y="425"/>
			<point x="125.5" y="442"/>
			<point x="91.5" y="442" type="curve" smooth="yes"/>
			<point x="49.5" y="442"/>
			<point x="28.5" y="411"/>
			<point x="14.5" y="384" type="curve" smooth="yes"/>
			<point x="-2.5" y="349"/>
			<point x="-16.5" y="292"/>
			<point x="-16.5" y="288" type="curve" smooth="yes"/>
			<point x="-16.5" y="279"/>
			<point x="-9.5" y="276"/>
			<point x="-2.5" y="276" type="curve" smooth="yes"/>
			<point x="8.5" y="276"/>
			<point x="10.5" y="281"/>
			<point x="15.5" y="301" type="curve" smooth="yes"/>
			<point x="34.5" y="380"/>
			<point x="55.5" y="417"/>
			<point x="89.5" y="417" type="curve" smooth="yes"/>
			<point x="119.5" y="417"/>
			<point x="119.5" y="385"/>
			<point x="119.5" y="370" type="curve" smooth="yes"/>
			<point x="119.5" y="362"/>
			<point x="118.5" y="347"/>
			<point x="116.5" y="339" type="curve" smooth="yes"/>
		</contour>
		<contour>
			<point x="316.5" y="417" type="curve" smooth="yes"/>
			<point x="363.5" y="417"/>
			<point x="382.5" y="370"/>
			<point x="382.5" y="323" type="curve" smooth="yes"/>
			<point x="382.5" y="278"/>
			<point x="354.5" y="154"/>
			<point x="323.5" y="101" type="curve" smooth="yes"/>
			<point x="289.5" y="44"/>
			<point x="247.5" y="14"/>
			<point x="210.5" y="14" type="curve" smooth="yes"/>
			<point x="145.5" y="14"/>
			<point x="129.5" y="93"/>
			<point x="129.5" y="100" type="curve" smooth="yes"/>
			<point x="129.5" y="106"/>
			<point x="131.5" y="111"/>
			<point x="132.5" y="116" type="curve"/>
			<point x="181.5" y="308" type="line" smooth="yes"/>
			<point x="186.5" y="328"/>
			<point x="186.5" y="330"/>
			<point x="199.5" y="345" type="curve" smooth="yes"/>
			<point x="226.5" y="379"/>
			<point x="271.5" y="417"/>
		</contour>
	</outline>
</glyph>
<glyph name="q" format="2">
	<unicode hex="0071"/>
	<advance width="918"/>
	<outline>
		<contour>
			<point x="457" y="-382" type="curve" smooth="yes"/>
			<point x="577" y="-382"/>
			<point x="611" y="-388"/>
			<point x="665" y="-388" type="curve" smooth="yes"/>
			<point x="677" y="-388"/>
			<point x="703" y="-388"/>
			<point x="703" y="-352" type="curve" smooth="yes"/>
			<point x="703" y="-326"/>
			<point x="683" y="-326"/>
			<point x="649" y="-326" type="curve" smooth="yes"/>
			<point x="555" y="-326"/>
			<point x="555" y="-312"/>
			<point x="555" y="-294" type="curve" smooth="yes"/>
			<point x="555" y="-292"/>
			<point x="555" y="-280"/>
			<point x="563" y="-250" type="curve" smooth="yes"/>
			<point x="831" y="816" type="line" smooth="yes"/>
			<point x="839" y="844"/>
			<point x="839" y="848"/>
			<point x="839" y="856" type="curve" smooth="yes"/>
			<point x="839" y="880"/>
			<point x="819" y="884"/>
			<point x="815" y="884" type="curve" smooth="yes"/>
			<point x="795" y="884"/>
			<point x="719" y="816"/>
			<point x="679" y="746" type="curve"/>
			<point x="647" y="818"/>
			<point x="585" y="884"/>
			<point x="483" y="884" type="curve" smooth="yes"/>
			<point x="251" y="884"/>
			<point x="-7" y="608"/>
			<point x="-7" y="302" type="curve" smooth="yes"/>
			<point x="-7" y="82"/>
			<point x="133" y="-22"/>
			<point x="267" y="-22" type="curve" smooth="yes"/>
			<point x="353" y="-22"/>
			<point x="431" y="22"/>
			<point x="505" y="92" type="curve"/>
			<point x="505" y="92" type="line"/>
			<point x="480" y="-11"/>
			<point x="454" y="-113"/>
			<point x="429" y="-216" type="curve" smooth="yes"/>
			<point x="403" y="-318"/>
			<point x="401" y="-324"/>
			<point x="275" y="-326" type="curve"/>
			<point x="251" y="-326"/>
			<point x="227" y="-326"/>
			<point x="227" y="-362" type="curve" smooth="yes"/>
			<point x="227" y="-366"/>
			<point x="227" y="-388"/>
			<point x="255" y="-388" type="curve" smooth="yes"/>
			<point x="299" y="-388"/>
			<point x="413" y="-382"/>
		</contour>
		<contour>
			<point x="273" y="28" type="curve" smooth="yes"/>
			<point x="175" y="28"/>
			<point x="141" y="130"/>
			<point x="141" y="216" type="curve" smooth="yes"/>
			<point x="141" y="314"/>
			<point x="199" y="544"/>
			<point x="247" y="640" type="curve" smooth="yes"/>
			<point x="311" y="760"/>
			<point x="403" y="834"/>
			<point x="483" y="834" type="curve" smooth="yes"/>
			<point x="617" y="834"/>
			<point x="647" y="674"/>
			<point x="647" y="660" type="curve" smooth="yes"/>
			<point x="647" y="650"/>
			<point x="643" y="638"/>
			<point x="641" y="630" type="curve" smooth="yes"/>
			<point x="608" y="501"/>
			<point x="576" y="373"/>
			<point x="543" y="244" type="curve" smooth="yes"/>
			<point x="533" y="206"/>
			<point x="533" y="204"/>
			<point x="501" y="166" type="curve" smooth="yes"/>
			<point x="429" y="80"/>
			<point x="347" y="28"/>
		</contour>
	</outline>
</glyph>
<glyph name="r" format="2">
  <advance width="463"/>
  <unicode hex="0072"/>
  <outline>
    <contour>
      <point x="153.8878982235275" y="-11.0" type="curve" smooth="yes"/>
      <point x="185.8878982235275" y="-11.0"/>
      <point x="192.8878982235275" y="16.0"/>
      <point x="199.8878982235275" y="45.0" type="curve" smooth="yes"/>
      <point x="211.8878982235275" y="88.0"/>
      <point x="211.8878982235275" y="90.0"/>
      <point x="221.8878982235275" y="131.0" type="curve" smooth="yes"/>
      <point x="258.8878982235275" y="281.0"/>
      <point x="264.8878982235275" y="305.0"/>
      <point x="266.8878982235275" y="310.0" type="curve"/>
      <point x="270.6656782235275" y="317.55556"/>
      <point x="290.3008156995275" y="358.0151367627"/>
      <point x="325.0444905525275" y="386.9487377432" type="curve" smooth="yes"/>
      <point x="345.48191388882753" y="403.9684759945"/>
      <point x="371.1471882235275" y="417.0"/>
      <point x="401.8878982235275" y="417.0" type="curve" smooth="yes"/>
      <point x="424.8878982235275" y="417.0"/>
      <point x="438.8878982235275" y="409.0"/>
      <point x="443.8878982235275" y="405.0" type="curve"/>
      <point x="410.8878982235275" y="399.0"/>
      <point x="393.8878982235275" y="371.0"/>
      <point x="393.8878982235275" y="350.0" type="curve" smooth="yes"/>
      <point x="393.8878982235275" y="331.0"/>
      <point x="407.8878982235275" y="314.0"/>
      <point x="432.8878982235275" y="314.0" type="curve" smooth="yes"/>
      <point x="459.8878982235275" y="314.0"/>
      <point x="487.8878982235275" y="337.0"/>
      <point x="487.8878982235275" y="374.0" type="curve" smooth="yes"/>
      <point x="487.8878982235275" y="413.0"/>
      <point x="451.8878982235275" y="442.0"/>
      <point x="402.8878982235275" y="442.0" type="curve" smooth="yes"/>
      <point x="327.8878982235275" y="442.0"/>
      <point x="285.8878982235275" y="386.0"/>
      <point x="271.8878982235275" y="367.0" type="curve"/>
      <point x="259.8878982235275" y="422.0"/>
      <point x="214.8878982235275" y="442.0"/>
      <point x="176.8878982235275" y="442.0" type="curve" smooth="yes"/>
      <point x="140.8878982235275" y="442.0"/>
      <point x="117.8878982235275" y="420.0"/>
      <point x="100.8878982235275" y="385.0" type="curve" smooth="yes"/>
      <point x="81.8878982235275" y="349.0"/>
      <point x="68.8878982235275" y="292.0"/>
      <point x="68.8878982235275" y="288.0" type="curve" smooth="yes"/>
      <point x="68.8878982235275" y="279.0"/>
      <point x="75.8878982235275" y="276.0"/>
      <point x="82.8878982235275" y="276.0" type="curve" smooth="yes"/>
      <point x="93.8878982235275" y="276.0"/>
      <point x="95.8878982235275" y="281.0"/>
      <point x="100.8878982235275" y="301.0" type="curve" smooth="yes"/>
      <point x="119.8878982235275" y="380.0"/>
      <point x="140.8878982235275" y="417.0"/>
      <point x="174.8878982235275" y="417.0" type="curve" smooth="yes"/>
      <point x="204.8878982235275" y="417.0"/>
      <point x="204.8878982235275" y="385.0"/>
      <point x="204.8878982235275" y="370.0" type="curve" smooth="yes"/>
      <point x="204.8878982235275" y="349.0"/>
      <point x="196.8878982235275" y="318.0"/>
      <point x="190.8878982235275" y="292.0" type="curve" smooth="yes"/>
      <point x="183.8878982235275" y="266.0"/>
      <point x="172.88517822352748" y="223.28887"/>
      <point x="129.8878982235275" y="47.0" type="curve" smooth="yes"/>
      <point x="122.8878982235275" y="23.0"/>
      <point x="122.8878982235275" y="21.0"/>
      <point x="122.8878982235275" y="18.0" type="curve" smooth="yes"/>
      <point x="122.8878982235275" y="5.0"/>
      <point x="131.8878982235275" y="-11.0"/>
    </contour>
  </outline>
</glyph>
